<?xml version="1.0" encoding="UTF-8"?>
<svg xmlns="http://www.w3.org/2000/svg" xmlns:xlink="http://www.w3.org/1999/xlink" width="419pt" height="195pt" viewBox="0 0 419 195" version="1.1">
<g id="surface1">
<path style="fill:none;stroke-width:2;stroke-linecap:butt;stroke-linejoin:round;stroke:rgb(0%,0%,0%);stroke-opacity:1;stroke-miterlimit:10;" d="M 224 160 C 224 213.019531 181.019531 256 128 256 C 74.980469 256 32 213.019531 32 160 C 32 106.980469 74.980469 64 128 64 C 181.019531 64 224 106.980469 224 160 " transform="matrix(1,0,0,-1,-30.5,257.5)"/>
<path style="fill:none;stroke-width:2;stroke-linecap:butt;stroke-linejoin:round;stroke:rgb(0%,0%,0%);stroke-opacity:1;stroke-miterlimit:10;" d="M 83.335938 218.667969 C 77.335938 216.667969 72.667969 212.332031 70.503906 204.5 C 68.335938 196.667969 68.667969 185.335938 77.835938 183.167969 C 87.003906 181 105.003906 188 110.835938 195.667969 C 116.667969 203.332031 110.335938 211.667969 103.503906 216 C 96.667969 220.332031 89.335938 220.667969 83.335938 218.667969 Z M 83.335938 218.667969 " transform="matrix(1,0,0,-1,-30.5,257.5)"/>
<path style="fill:none;stroke-width:2;stroke-linecap:butt;stroke-linejoin:round;stroke:rgb(0%,0%,0%);stroke-opacity:1;stroke-miterlimit:10;" d="M 70.769531 189.128906 C 70.769531 189.128906 70.769531 189.128906 71.210938 188.507812 C 71.652344 187.886719 72.535156 186.640625 73.535156 185.699219 C 74.535156 184.757812 75.648438 184.117188 76.96875 183.679688 C 78.292969 183.238281 79.824219 183.003906 81.472656 182.964844 C 83.121094 182.921875 84.886719 183.074219 86.710938 183.378906 C 88.535156 183.683594 90.417969 184.140625 92.351562 184.738281 C 94.289062 185.34375 96.277344 186.089844 97.273438 186.464844 C 98.269531 186.839844 98.269531 186.839844 98.269531 186.839844 " transform="matrix(1,0,0,-1,-30.5,257.5)"/>
<path style="fill-rule:evenodd;fill:rgb(0%,0%,0%);fill-opacity:1;stroke-width:2;stroke-linecap:butt;stroke-linejoin:round;stroke:rgb(0%,0%,0%);stroke-opacity:1;stroke-miterlimit:10;" d="M 98.269531 186.839844 L 90.898438 186.558594 L 92.539062 182.195312 Z M 98.269531 186.839844 " transform="matrix(1,0,0,-1,-30.5,257.5)"/>
<path style="fill:none;stroke-width:0.8;stroke-linecap:butt;stroke-linejoin:round;stroke:rgb(0%,0%,0%);stroke-opacity:1;stroke-miterlimit:10;" d="M 128 160 L 98.269531 186.839844 " transform="matrix(1,0,0,-1,-30.5,257.5)"/>
<path style="fill:none;stroke-width:0.8;stroke-linecap:butt;stroke-linejoin:round;stroke:rgb(0%,0%,0%);stroke-opacity:1;stroke-miterlimit:10;" d="M 128 160 L 112.28125 206.261719 " transform="matrix(1,0,0,-1,-30.5,257.5)"/>
<path style="fill:none;stroke-width:0.8;stroke-linecap:butt;stroke-linejoin:round;stroke:rgb(0%,0%,0%);stroke-opacity:1;stroke-miterlimit:10;" d="M 128 160 L 74.988281 184.273438 " transform="matrix(1,0,0,-1,-30.5,257.5)"/>
<path style="fill:none;stroke-width:0.8;stroke-linecap:butt;stroke-linejoin:round;stroke:rgb(0%,0%,0%);stroke-opacity:1;stroke-miterlimit:10;" d="M 128 160 L 154.078125 100.898438 " transform="matrix(1,0,0,-1,-30.5,257.5)"/>
<path style="fill:none;stroke-width:0.8;stroke-linecap:butt;stroke-linejoin:round;stroke:rgb(0%,0%,0%);stroke-opacity:1;stroke-miterlimit:10;" d="M 128 160 L 173.078125 196.898438 " transform="matrix(1,0,0,-1,-30.5,257.5)"/>
<path style="fill:none;stroke-width:2;stroke-linecap:butt;stroke-linejoin:round;stroke:rgb(0%,0%,0%);stroke-opacity:1;stroke-miterlimit:10;" d="M 154.078125 100.898438 C 154.078125 100.898438 154.078125 100.898438 154.078125 104.734375 C 154.078125 108.566406 154.078125 116.234375 156.242188 122.566406 C 158.410156 128.898438 162.742188 133.898438 167.578125 140.066406 C 172.410156 146.234375 177.742188 153.566406 179.910156 160.730469 C 182.078125 167.898438 181.078125 174.898438 179.410156 180.898438 C 177.742188 186.898438 175.410156 191.898438 174.242188 194.398438 C 173.078125 196.898438 173.078125 196.898438 173.078125 196.898438 " transform="matrix(1,0,0,-1,-30.5,257.5)"/>
<path style="fill-rule:evenodd;fill:rgb(0%,0%,0%);fill-opacity:1;stroke-width:2;stroke-linecap:butt;stroke-linejoin:round;stroke:rgb(0%,0%,0%);stroke-opacity:1;stroke-miterlimit:10;" d="M 173.078125 196.898438 L 173.925781 189.570312 L 178.148438 191.539062 Z M 173.078125 196.898438 " transform="matrix(1,0,0,-1,-30.5,257.5)"/>
<path style="fill:none;stroke-width:2;stroke-linecap:butt;stroke-linejoin:round;stroke:rgb(0%,0%,100%);stroke-opacity:1;stroke-miterlimit:10;" d="M 134.9375 144.277344 C 143.621094 148.109375 147.554688 158.253906 143.722656 166.9375 C 143.09375 168.355469 142.28125 169.683594 141.296875 170.886719 " transform="matrix(1,0,0,-1,-30.5,257.5)"/>
<path style="fill-rule:evenodd;fill:rgb(0%,0%,100%);fill-opacity:1;stroke-width:2;stroke-linecap:butt;stroke-linejoin:round;stroke:rgb(0%,0%,100%);stroke-opacity:1;stroke-miterlimit:10;" d="M 141.296875 170.886719 L 143.925781 163.992188 L 147.535156 166.945312 Z M 141.296875 170.886719 " transform="matrix(1,0,0,-1,-30.5,257.5)"/>
<path style=" stroke:none;fill-rule:evenodd;fill:rgb(82.699585%,82.699585%,82.699585%);fill-opacity:1;" d="M 99.300781 97.5 C 99.300781 96.507812 98.492188 95.699219 97.5 95.699219 C 96.507812 95.699219 95.699219 96.507812 95.699219 97.5 C 95.699219 98.492188 96.507812 99.300781 97.5 99.300781 C 98.492188 99.300781 99.300781 98.492188 99.300781 97.5 "/>
<path style=" stroke:none;fill-rule:evenodd;fill:rgb(0%,0%,0%);fill-opacity:1;" d="M 99.300781 97.5 C 99.300781 96.507812 98.492188 95.699219 97.5 95.699219 C 96.507812 95.699219 95.699219 96.507812 95.699219 97.5 C 95.699219 98.492188 96.507812 99.300781 97.5 99.300781 C 98.492188 99.300781 99.300781 98.492188 99.300781 97.5 M 98.699219 97.5 C 98.699219 96.835938 98.164062 96.300781 97.5 96.300781 C 96.835938 96.300781 96.300781 96.835938 96.300781 97.5 C 96.300781 98.164062 96.835938 98.699219 97.5 98.699219 C 98.164062 98.699219 98.699219 98.164062 98.699219 97.5 "/>
<path style="fill:none;stroke-width:2;stroke-linecap:butt;stroke-linejoin:round;stroke:rgb(0%,0%,0%);stroke-opacity:1;stroke-miterlimit:10;" d="M 448 160 C 448 213.019531 405.019531 256 352 256 C 298.980469 256 256 213.019531 256 160 C 256 106.980469 298.980469 64 352 64 C 405.019531 64 448 106.980469 448 160 " transform="matrix(1,0,0,-1,-30.5,257.5)"/>
<path style="fill:none;stroke-width:2;stroke-linecap:butt;stroke-linejoin:round;stroke:rgb(0%,0%,0%);stroke-opacity:1;stroke-miterlimit:10;" d="M 298.242188 179.398438 C 292.410156 161.230469 295.742188 137.566406 312.074219 123.066406 C 328.40625 108.566406 357.742188 103.234375 381.667969 116.1875 C 405.597656 129.144531 424.117188 160.390625 419.785156 174.886719 C 415.449219 189.386719 388.261719 187.144531 370.167969 192.355469 C 352.074219 197.566406 343.074219 210.230469 331.074219 210.230469 C 319.074219 210.230469 304.074219 197.566406 298.242188 179.398438 Z M 298.242188 179.398438 " transform="matrix(1,0,0,-1,-30.5,257.5)"/>
<path style="fill:none;stroke-width:2;stroke-linecap:butt;stroke-linejoin:round;stroke:rgb(0%,0%,100%);stroke-opacity:1;stroke-miterlimit:10;" d="M 357.539062 174.605469 C 349.472656 177.664062 340.453125 173.605469 337.394531 165.539062 C 334.335938 157.472656 338.394531 148.453125 346.460938 145.394531 C 354.527344 142.335938 363.546875 146.394531 366.605469 154.460938 C 368.890625 160.488281 367.242188 167.300781 362.449219 171.613281 L 357.539062 174.605469 " transform="matrix(1,0,0,-1,-30.5,257.5)"/>
<path style="fill-rule:evenodd;fill:rgb(0%,0%,100%);fill-opacity:1;stroke-width:2;stroke-linecap:butt;stroke-linejoin:round;stroke:rgb(0%,0%,100%);stroke-opacity:1;stroke-miterlimit:10;" d="M 357.539062 174.605469 L 362.304688 168.96875 L 364.730469 172.949219 Z M 357.539062 174.605469 " transform="matrix(1,0,0,-1,-30.5,257.5)"/>
<path style="fill:none;stroke-width:2;stroke-linecap:butt;stroke-linejoin:round;stroke:rgb(0%,0%,0%);stroke-opacity:1;stroke-miterlimit:10;" d="M 414.582031 181.855469 C 414.582031 181.855469 414.582031 181.855469 412.800781 182.589844 C 411.019531 183.324219 407.460938 184.796875 403.3125 185.953125 C 399.160156 187.109375 394.417969 187.953125 390.039062 188.679688 C 385.664062 189.410156 381.65625 190.027344 377.535156 190.917969 C 373.414062 191.808594 369.183594 192.972656 367.066406 193.558594 C 364.953125 194.140625 364.953125 194.140625 364.953125 194.140625 " transform="matrix(1,0,0,-1,-30.5,257.5)"/>
<path style="fill-rule:evenodd;fill:rgb(0%,0%,0%);fill-opacity:1;stroke-width:2;stroke-linecap:butt;stroke-linejoin:round;stroke:rgb(0%,0%,0%);stroke-opacity:1;stroke-miterlimit:10;" d="M 364.953125 194.140625 L 371.082031 190.03125 L 372.320312 194.527344 Z M 364.953125 194.140625 " transform="matrix(1,0,0,-1,-30.5,257.5)"/>
<path style="fill:none;stroke-width:0.8;stroke-linecap:butt;stroke-linejoin:round;stroke:rgb(0%,0%,0%);stroke-opacity:1;stroke-miterlimit:10;" d="M 352 160 L 364.953125 194.140625 " transform="matrix(1,0,0,-1,-30.5,257.5)"/>
<path style=" stroke:none;fill-rule:evenodd;fill:rgb(82.699585%,82.699585%,82.699585%);fill-opacity:1;" d="M 323.300781 97.5 C 323.300781 96.507812 322.492188 95.699219 321.5 95.699219 C 320.507812 95.699219 319.699219 96.507812 319.699219 97.5 C 319.699219 98.492188 320.507812 99.300781 321.5 99.300781 C 322.492188 99.300781 323.300781 98.492188 323.300781 97.5 "/>
<path style=" stroke:none;fill-rule:evenodd;fill:rgb(0%,0%,0%);fill-opacity:1;" d="M 323.300781 97.5 C 323.300781 96.507812 322.492188 95.699219 321.5 95.699219 C 320.507812 95.699219 319.699219 96.507812 319.699219 97.5 C 319.699219 98.492188 320.507812 99.300781 321.5 99.300781 C 322.492188 99.300781 323.300781 98.492188 323.300781 97.5 M 322.699219 97.5 C 322.699219 96.835938 322.164062 96.300781 321.5 96.300781 C 320.835938 96.300781 320.300781 96.835938 320.300781 97.5 C 320.300781 98.164062 320.835938 98.699219 321.5 98.699219 C 322.164062 98.699219 322.699219 98.164062 322.699219 97.5 "/>
</g>
</svg>
