<?xml version="1.0" encoding="UTF-8"?>
<svg xmlns="http://www.w3.org/2000/svg" xmlns:xlink="http://www.w3.org/1999/xlink" width="327.226pt" height="140.476pt" viewBox="0 0 327.226 140.476" version="1.1">
<g id="surface1">
<path style="fill:none;stroke-width:2;stroke-linecap:butt;stroke-linejoin:round;stroke:rgb(0%,0%,0%);stroke-opacity:1;stroke-miterlimit:10;" d="M 384.000563 575.999031 C 384.000563 611.346687 355.344313 639.999031 320.000563 639.999031 C 284.652906 639.999031 256.000563 611.346687 256.000563 575.999031 C 256.000563 540.655281 284.652906 511.999031 320.000563 511.999031 C 355.344313 511.999031 384.000563 540.655281 384.000563 575.999031 " transform="matrix(1,0,0,-1,-250.274,646.417)"/>
<path style="fill:none;stroke-width:2;stroke-linecap:butt;stroke-linejoin:round;stroke:rgb(0%,0%,0%);stroke-opacity:1;stroke-miterlimit:10;" d="M 256.000563 639.999031 L 256.000563 511.999031 " transform="matrix(1,0,0,-1,-250.274,646.417)"/>
<path style="fill:none;stroke-width:2;stroke-linecap:butt;stroke-linejoin:round;stroke:rgb(0%,0%,0%);stroke-opacity:1;stroke-miterlimit:10;" d="M 384.000563 639.999031 L 384.000563 511.999031 " transform="matrix(1,0,0,-1,-250.274,646.417)"/>
<path style=" stroke:none;fill-rule:evenodd;fill:rgb(54.499817%,0%,54.499817%);fill-opacity:1;" d="M 11.234375 134.625 C 11.234375 131.78125 8.929688 129.472656 6.082031 129.472656 C 3.238281 129.472656 0.933594 131.78125 0.933594 134.625 C 0.933594 137.46875 3.238281 139.777344 6.082031 139.777344 C 8.929688 139.777344 11.234375 137.46875 11.234375 134.625 "/>
<path style=" stroke:none;fill-rule:evenodd;fill:rgb(54.499817%,0%,54.499817%);fill-opacity:1;" d="M 139.128906 134.378906 C 139.128906 131.535156 136.820312 129.230469 133.976562 129.230469 C 131.132812 129.230469 128.824219 131.535156 128.824219 134.378906 C 128.824219 137.226562 131.132812 139.53125 133.976562 139.53125 C 136.820312 139.53125 139.128906 137.226562 139.128906 134.378906 "/>
<path style=" stroke:none;fill-rule:evenodd;fill:rgb(54.499817%,0%,54.499817%);fill-opacity:1;" d="M 138.894531 6.097656 C 138.894531 3.25 136.589844 0.945312 133.746094 0.945312 C 130.898438 0.945312 128.59375 3.25 128.59375 6.097656 C 128.59375 8.941406 130.898438 11.246094 133.746094 11.246094 C 136.589844 11.246094 138.894531 8.941406 138.894531 6.097656 "/>
<path style=" stroke:none;fill-rule:evenodd;fill:rgb(54.499817%,0%,54.499817%);fill-opacity:1;" d="M 11.003906 5.851562 C 11.003906 3.007812 8.695312 0.699219 5.851562 0.699219 C 3.007812 0.699219 0.699219 3.007812 0.699219 5.851562 C 0.699219 8.695312 3.007812 11.003906 5.851562 11.003906 C 8.695312 11.003906 11.003906 8.695312 11.003906 5.851562 "/>
<path style="fill:none;stroke-width:0.8;stroke-linecap:butt;stroke-linejoin:round;stroke:rgb(100%,0%,0%);stroke-opacity:1;stroke-miterlimit:10;" d="M 261.684156 640.069344 L 287.633375 639.924812 " transform="matrix(1,0,0,-1,-250.274,646.417)"/>
<path style="fill-rule:evenodd;fill:rgb(100%,0%,0%);fill-opacity:1;stroke-width:0.8;stroke-linecap:butt;stroke-linejoin:round;stroke:rgb(100%,0%,0%);stroke-opacity:1;stroke-miterlimit:10;" d="M 287.633375 639.924812 L 280.649 642.295906 L 280.621656 637.631844 Z M 287.633375 639.924812 " transform="matrix(1,0,0,-1,-250.274,646.417)"/>
<path style="fill:none;stroke-width:0.8;stroke-linecap:butt;stroke-linejoin:round;stroke:rgb(100%,0%,0%);stroke-opacity:1;stroke-miterlimit:10;" d="M 378.422438 640.07325 L 352.18025 639.928719 " transform="matrix(1,0,0,-1,-250.274,646.417)"/>
<path style="fill-rule:evenodd;fill:rgb(100%,0%,0%);fill-opacity:1;stroke-width:0.8;stroke-linecap:butt;stroke-linejoin:round;stroke:rgb(100%,0%,0%);stroke-opacity:1;stroke-miterlimit:10;" d="M 352.18025 639.928719 L 359.195875 637.63575 L 359.168531 642.295906 Z M 352.18025 639.928719 " transform="matrix(1,0,0,-1,-250.274,646.417)"/>
<path style="fill:none;stroke-width:0.8;stroke-linecap:butt;stroke-linejoin:round;stroke:rgb(100%,0%,0%);stroke-opacity:1;stroke-miterlimit:10;" d="M 262.051344 511.995125 L 288.000563 511.850594 " transform="matrix(1,0,0,-1,-250.274,646.417)"/>
<path style="fill-rule:evenodd;fill:rgb(100%,0%,0%);fill-opacity:1;stroke-width:0.8;stroke-linecap:butt;stroke-linejoin:round;stroke:rgb(100%,0%,0%);stroke-opacity:1;stroke-miterlimit:10;" d="M 288.000563 511.850594 L 281.012281 514.221687 L 280.988844 509.557625 Z M 288.000563 511.850594 " transform="matrix(1,0,0,-1,-250.274,646.417)"/>
<path style="fill:none;stroke-width:0.8;stroke-linecap:butt;stroke-linejoin:round;stroke:rgb(100%,0%,0%);stroke-opacity:1;stroke-miterlimit:10;" d="M 378.422438 512.127937 L 352.18025 511.9795 " transform="matrix(1,0,0,-1,-250.274,646.417)"/>
<path style="fill-rule:evenodd;fill:rgb(100%,0%,0%);fill-opacity:1;stroke-width:0.8;stroke-linecap:butt;stroke-linejoin:round;stroke:rgb(100%,0%,0%);stroke-opacity:1;stroke-miterlimit:10;" d="M 352.18025 511.9795 L 359.195875 509.690437 L 359.168531 514.350594 Z M 352.18025 511.9795 " transform="matrix(1,0,0,-1,-250.274,646.417)"/>
<path style="fill:none;stroke-width:0.8;stroke-linecap:butt;stroke-linejoin:round;stroke:rgb(100%,0%,0%);stroke-opacity:1;stroke-miterlimit:10;" d="M 257.121656 623.838875 L 269.61775 623.838875 " transform="matrix(1,0,0,-1,-250.274,646.417)"/>
<path style="fill-rule:evenodd;fill:rgb(100%,0%,0%);fill-opacity:1;stroke-width:0.8;stroke-linecap:butt;stroke-linejoin:round;stroke:rgb(100%,0%,0%);stroke-opacity:1;stroke-miterlimit:10;" d="M 269.61775 623.838875 L 262.61775 626.170906 L 262.61775 621.506844 Z M 269.61775 623.838875 " transform="matrix(1,0,0,-1,-250.274,646.417)"/>
<path style="fill:none;stroke-width:0.8;stroke-linecap:butt;stroke-linejoin:round;stroke:rgb(100%,0%,0%);stroke-opacity:1;stroke-miterlimit:10;" d="M 257.363844 527.795906 L 269.371656 528.042 " transform="matrix(1,0,0,-1,-250.274,646.417)"/>
<path style="fill-rule:evenodd;fill:rgb(100%,0%,0%);fill-opacity:1;stroke-width:0.8;stroke-linecap:butt;stroke-linejoin:round;stroke:rgb(100%,0%,0%);stroke-opacity:1;stroke-miterlimit:10;" d="M 269.371656 528.042 L 262.324781 530.2295 L 262.418531 525.569344 Z M 269.371656 528.042 " transform="matrix(1,0,0,-1,-250.274,646.417)"/>
<path style="fill:none;stroke-width:0.8;stroke-linecap:butt;stroke-linejoin:round;stroke:rgb(100%,0%,0%);stroke-opacity:1;stroke-miterlimit:10;" d="M 382.563063 528.042 L 369.824781 528.042 " transform="matrix(1,0,0,-1,-250.274,646.417)"/>
<path style="fill-rule:evenodd;fill:rgb(100%,0%,0%);fill-opacity:1;stroke-width:0.8;stroke-linecap:butt;stroke-linejoin:round;stroke:rgb(100%,0%,0%);stroke-opacity:1;stroke-miterlimit:10;" d="M 369.824781 528.042 L 376.824781 525.709969 L 376.824781 530.370125 Z M 369.824781 528.042 " transform="matrix(1,0,0,-1,-250.274,646.417)"/>
<path style="fill:none;stroke-width:0.8;stroke-linecap:butt;stroke-linejoin:round;stroke:rgb(100%,0%,0%);stroke-opacity:1;stroke-miterlimit:10;" d="M 382.598219 624.045906 L 370.727125 624.045906 " transform="matrix(1,0,0,-1,-250.274,646.417)"/>
<path style="fill-rule:evenodd;fill:rgb(100%,0%,0%);fill-opacity:1;stroke-width:0.8;stroke-linecap:butt;stroke-linejoin:round;stroke:rgb(100%,0%,0%);stroke-opacity:1;stroke-miterlimit:10;" d="M 370.727125 624.045906 L 377.727125 621.713875 L 377.727125 626.377937 Z M 370.727125 624.045906 " transform="matrix(1,0,0,-1,-250.274,646.417)"/>
<path style="fill:none;stroke-width:2;stroke-linecap:butt;stroke-linejoin:round;stroke:rgb(0%,0%,0%);stroke-opacity:1;stroke-miterlimit:10;" d="M 400.078688 576.534187 C 407.613844 591.608406 415.149 562.002937 423.223219 580.303719 " transform="matrix(1,0,0,-1,-250.274,646.417)"/>
<path style="fill:none;stroke-width:2;stroke-linecap:butt;stroke-linejoin:round;stroke:rgb(0%,0%,0%);stroke-opacity:1;stroke-miterlimit:10;" d="M 576.000563 575.999031 C 576.000563 611.346687 547.344313 639.999031 512.000563 639.999031 C 476.652906 639.999031 448.000563 611.346687 448.000563 575.999031 C 448.000563 540.655281 476.652906 511.999031 512.000563 511.999031 C 547.344313 511.999031 576.000563 540.655281 576.000563 575.999031 " transform="matrix(1,0,0,-1,-250.274,646.417)"/>
<path style=" stroke:none;fill-rule:evenodd;fill:rgb(54.499817%,0%,54.499817%);fill-opacity:1;" d="M 267.253906 6.414062 C 267.253906 3.570312 264.949219 1.261719 262.105469 1.261719 C 259.257812 1.261719 256.953125 3.570312 256.953125 6.414062 C 256.953125 9.257812 259.257812 11.566406 262.105469 11.566406 C 264.949219 11.566406 267.253906 9.257812 267.253906 6.414062 "/>
<path style=" stroke:none;fill-rule:evenodd;fill:rgb(54.499817%,0%,54.499817%);fill-opacity:1;" d="M 267.253906 134.453125 C 267.253906 131.609375 264.949219 129.304688 262.105469 129.304688 C 259.257812 129.304688 256.953125 131.609375 256.953125 134.453125 C 256.953125 137.300781 259.257812 139.605469 262.105469 139.605469 C 264.949219 139.605469 267.253906 137.300781 267.253906 134.453125 "/>
</g>
</svg>
