<?xml version="1.0" encoding="UTF-8" standalone="no"?>
<svg
   xmlns:dc="http://purl.org/dc/elements/1.1/"
   xmlns:cc="http://creativecommons.org/ns#"
   xmlns:rdf="http://www.w3.org/1999/02/22-rdf-syntax-ns#"
   xmlns:svg="http://www.w3.org/2000/svg"
   xmlns="http://www.w3.org/2000/svg"
   viewBox="0 0 85.866669 85.866669"
   height="85.866669"
   width="85.866669"
   xml:space="preserve"
   id="svg2"
   version="1.1"><metadata
     id="metadata8"><rdf:RDF><cc:Work
         rdf:about=""><dc:format>image/svg+xml</dc:format><dc:type
           rdf:resource="http://purl.org/dc/dcmitype/StillImage" /></cc:Work></rdf:RDF></metadata><defs
     id="defs6"><clipPath
       id="clipPath14"
       clipPathUnits="userSpaceOnUse"><path
         id="path12"
         d="M 0,0 H 595 V 842 H 0 Z" /></clipPath></defs><g
     clip-path="url(#clipPath14)"
     transform="matrix(1.3333333,0,0,-1.3333333,-191.73333,704.26667)"
     id="g10"><g
       id="g16"><path
         id="path18"
         style="fill:#ffffff;fill-opacity:1;fill-rule:evenodd;stroke:none"
         d="m 144,528 v -64 h 64 v 64 z" /></g><g
       id="g20"><path
         id="path22"
         style="fill:#98cee0;fill-opacity:1;fill-rule:evenodd;stroke:none"
         d="m 156.042,513.237 v -27.216 l 14.515,-10.886 v 27.216 z" /></g><g
       id="g24"><path
         id="path26"
         style="fill:#50accb;fill-opacity:1;fill-rule:evenodd;stroke:none"
         d="m 170.557,502.351 v -27.216 l 25.401,3.629 v 27.216 0 z" /></g><g
       id="g28"><path
         id="path30"
         style="fill:#74bdd6;fill-opacity:1;fill-rule:evenodd;stroke:none"
         d="m 170.557,502.351 -14.515,10.886 25.401,3.629 14.515,-10.886 v 0 z" /></g><g
       id="g32"><g
         id="g34"><path
           id="path36"
           style="fill:#000000;fill-opacity:1;fill-rule:evenodd;stroke:none"
           d="m 159.041,513.237 c 0,1.657 -1.343,3 -3,3 -1.656,0 -3,-1.343 -3,-3 0,-1.657 1.344,-3 3,-3 1.657,0 3,1.343 3,3" /></g></g><g
       id="g38"><g
         id="g40"><path
           id="path42"
           style="fill:#000000;fill-opacity:1;fill-rule:evenodd;stroke:none"
           d="m 184.443,516.866 c 0,1.657 -1.343,3 -3,3 -1.657,0 -3,-1.343 -3,-3 0,-1.657 1.343,-3 3,-3 1.657,0 3,1.343 3,3" /></g></g><g
       id="g44"><g
         id="g46"><path
           id="path48"
           style="fill:#000000;fill-opacity:1;fill-rule:evenodd;stroke:none"
           d="m 198.958,505.979 c 0,1.657 -1.343,3 -3,3 -1.657,0 -3,-1.343 -3,-3 0,-1.657 1.343,-3 3,-3 1.657,0 3,1.343 3,3" /></g></g><g
       id="g50"><g
         id="g52"><path
           id="path54"
           style="fill:#000000;fill-opacity:1;fill-rule:evenodd;stroke:none"
           d="m 173.557,502.35 c 0,1.657 -1.344,3 -3,3 -1.657,0 -3,-1.343 -3,-3 0,-1.656 1.343,-3 3,-3 1.656,0 3,1.344 3,3" /></g></g><g
       id="g56"><g
         id="g58"><path
           id="path60"
           style="fill:#000000;fill-opacity:1;fill-rule:evenodd;stroke:none"
           d="m 159.041,486.021 c 0,1.657 -1.343,3 -3,3 -1.656,0 -3,-1.343 -3,-3 0,-1.657 1.344,-3 3,-3 1.657,0 3,1.343 3,3" /></g></g><g
       id="g62"><g
         id="g64"><path
           id="path66"
           style="fill:#000000;fill-opacity:1;fill-rule:evenodd;stroke:none"
           d="m 173.557,475.134 c 0,1.657 -1.344,3 -3,3 -1.657,0 -3,-1.343 -3,-3 0,-1.656 1.343,-3 3,-3 1.656,0 3,1.344 3,3" /></g></g><g
       id="g68"><g
         id="g70"><path
           id="path72"
           style="fill:#000000;fill-opacity:1;fill-rule:evenodd;stroke:none"
           d="m 184.443,489.65 c 0,1.657 -1.343,3 -3,3 -1.657,0 -3,-1.343 -3,-3 0,-1.657 1.343,-3 3,-3 1.657,0 3,1.343 3,3" /></g></g><g
       id="g74"><g
         id="g76"><path
           id="path78"
           style="fill:#000000;fill-opacity:1;fill-rule:evenodd;stroke:none"
           d="m 198.958,478.763 c 0,1.657 -1.343,3 -3,3 -1.657,0 -3,-1.343 -3,-3 0,-1.657 1.343,-3 3,-3 1.657,0 3,1.343 3,3" /></g></g><g
       id="g80"><path
         id="path82"
         style="fill:none;stroke:#000000;stroke-width:2;stroke-linecap:butt;stroke-linejoin:round;stroke-miterlimit:10;stroke-dasharray:none;stroke-opacity:1"
         d="M 156.042,513.237 V 486.021" /></g><g
       id="g84"><path
         id="path86"
         style="fill:none;stroke:#000000;stroke-width:2;stroke-linecap:butt;stroke-linejoin:round;stroke-miterlimit:10;stroke-dasharray:none;stroke-opacity:1"
         d="m 156.042,486.021 14.515,-10.886" /></g><g
       id="g88"><path
         id="path90"
         style="fill:none;stroke:#000000;stroke-width:2;stroke-linecap:butt;stroke-linejoin:round;stroke-miterlimit:10;stroke-dasharray:none;stroke-opacity:1"
         d="m 170.557,475.135 25.401,3.629" /></g><g
       id="g92"><path
         id="path94"
         style="fill:none;stroke:#000000;stroke-width:2;stroke-linecap:butt;stroke-linejoin:round;stroke-miterlimit:10;stroke-dasharray:none;stroke-opacity:1"
         d="M 195.958,478.764 V 505.98" /></g><g
       id="g96"><path
         id="path98"
         style="fill:none;stroke:#000000;stroke-width:2;stroke-linecap:butt;stroke-linejoin:round;stroke-miterlimit:10;stroke-dasharray:none;stroke-opacity:1"
         d="m 195.958,505.98 -25.401,-3.629" /></g><g
       id="g100"><path
         id="path102"
         style="fill:none;stroke:#000000;stroke-width:2;stroke-linecap:butt;stroke-linejoin:round;stroke-miterlimit:10;stroke-dasharray:none;stroke-opacity:1"
         d="M 170.557,502.351 V 475.135" /></g><g
       id="g104"><path
         id="path106"
         style="fill:none;stroke:#000000;stroke-width:2;stroke-linecap:butt;stroke-linejoin:round;stroke-miterlimit:10;stroke-dasharray:none;stroke-opacity:1"
         d="m 170.557,502.351 -14.515,10.886" /></g><g
       id="g108"><path
         id="path110"
         style="fill:none;stroke:#000000;stroke-width:2;stroke-linecap:butt;stroke-linejoin:round;stroke-miterlimit:10;stroke-dasharray:none;stroke-opacity:1"
         d="m 156.042,513.237 25.401,3.629" /></g><g
       id="g112"><path
         id="path114"
         style="fill:none;stroke:#000000;stroke-width:2;stroke-linecap:butt;stroke-linejoin:round;stroke-miterlimit:10;stroke-dasharray:none;stroke-opacity:1"
         d="M 181.443,516.866 195.958,505.98" /></g><g
       id="g116"><path
         id="path118"
         style="fill:none;stroke:#000000;stroke-width:1.20000005;stroke-linecap:butt;stroke-linejoin:round;stroke-miterlimit:10;stroke-dasharray:4;stroke-dashoffset:0;stroke-opacity:1"
         d="M 181.443,516.866 V 489.65" /></g><g
       id="g120"><path
         id="path122"
         style="fill:none;stroke:#000000;stroke-width:1.20000005;stroke-linecap:butt;stroke-linejoin:round;stroke-miterlimit:10;stroke-dasharray:4;stroke-dashoffset:0;stroke-opacity:1"
         d="m 181.443,489.65 14.515,-10.886" /></g><g
       id="g124"><path
         id="path126"
         style="fill:none;stroke:#000000;stroke-width:1.20000005;stroke-linecap:butt;stroke-linejoin:round;stroke-miterlimit:10;stroke-dasharray:4;stroke-dashoffset:0;stroke-opacity:1"
         d="m 181.443,489.65 -25.401,-3.629" /></g></g></svg>