<?xml version="1.0" encoding="UTF-8"?>
<svg xmlns="http://www.w3.org/2000/svg" xmlns:xlink="http://www.w3.org/1999/xlink" width="64.4pt" height="64.4pt" viewBox="0 0 64.4 64.4" version="1.1">
<defs>
<clipPath id="clip1">
  <path d="M 0 0 L 64.398438 0 L 64.398438 64.398438 L 0 64.398438 Z M 0 0 "/>
</clipPath>
</defs>
<g id="surface1">
<g clip-path="url(#clip1)" clip-rule="nonzero">
<path style=" stroke:none;fill-rule:evenodd;fill:rgb(100%,100%,100%);fill-opacity:1;" d="M 0.199219 0.199219 L 0.199219 64.199219 L 64.199219 64.199219 L 64.199219 0.199219 Z M 0.199219 0.199219 "/>
</g>
<path style="fill-rule:evenodd;fill:rgb(100%,84.298706%,0%);fill-opacity:1;stroke-width:2;stroke-linecap:butt;stroke-linejoin:round;stroke:rgb(0%,0%,0%);stroke-opacity:1;stroke-miterlimit:10;" d="M 255.999219 598.625781 L 241.45625 593.332813 L 233.714063 579.930469 L 236.405469 564.684375 L 248.260938 554.735156 L 263.7375 554.735156 L 275.596875 564.684375 L 278.284375 579.930469 L 270.546094 593.332813 Z M 255.999219 598.625781 " transform="matrix(1,0,0,-1,-223.8,608.2)"/>
<path style=" stroke:none;fill-rule:evenodd;fill:rgb(0%,0%,0%);fill-opacity:1;" d="M 20.65625 14.867188 C 20.65625 13.210938 19.3125 11.867188 17.65625 11.867188 C 15.996094 11.867188 14.65625 13.210938 14.65625 14.867188 C 14.65625 16.523438 15.996094 17.867188 17.65625 17.867188 C 19.3125 17.867188 20.65625 16.523438 20.65625 14.867188 "/>
<path style=" stroke:none;fill-rule:evenodd;fill:rgb(0%,0%,0%);fill-opacity:1;" d="M 35.199219 9.574219 C 35.199219 7.914062 33.855469 6.574219 32.199219 6.574219 C 30.542969 6.574219 29.199219 7.914062 29.199219 9.574219 C 29.199219 11.230469 30.542969 12.574219 32.199219 12.574219 C 33.855469 12.574219 35.199219 11.230469 35.199219 9.574219 "/>
<path style=" stroke:none;fill-rule:evenodd;fill:rgb(0%,0%,0%);fill-opacity:1;" d="M 49.746094 14.867188 C 49.746094 13.210938 48.402344 11.867188 46.746094 11.867188 C 45.089844 11.867188 43.746094 13.210938 43.746094 14.867188 C 43.746094 16.523438 45.089844 17.867188 46.746094 17.867188 C 48.402344 17.867188 49.746094 16.523438 49.746094 14.867188 "/>
<path style=" stroke:none;fill-rule:evenodd;fill:rgb(0%,0%,0%);fill-opacity:1;" d="M 57.484375 28.269531 C 57.484375 26.613281 56.140625 25.269531 54.484375 25.269531 C 52.828125 25.269531 51.484375 26.613281 51.484375 28.269531 C 51.484375 29.929688 52.828125 31.269531 54.484375 31.269531 C 56.140625 31.269531 57.484375 29.929688 57.484375 28.269531 "/>
<path style=" stroke:none;fill-rule:evenodd;fill:rgb(0%,0%,0%);fill-opacity:1;" d="M 54.796875 43.515625 C 54.796875 41.855469 53.453125 40.515625 51.796875 40.515625 C 50.140625 40.515625 48.796875 41.855469 48.796875 43.515625 C 48.796875 45.171875 50.140625 46.515625 51.796875 46.515625 C 53.453125 46.515625 54.796875 45.171875 54.796875 43.515625 "/>
<path style=" stroke:none;fill-rule:evenodd;fill:rgb(0%,0%,0%);fill-opacity:1;" d="M 42.9375 53.464844 C 42.9375 51.804688 41.597656 50.464844 39.9375 50.464844 C 38.28125 50.464844 36.9375 51.804688 36.9375 53.464844 C 36.9375 55.121094 38.28125 56.464844 39.9375 56.464844 C 41.597656 56.464844 42.9375 55.121094 42.9375 53.464844 "/>
<path style=" stroke:none;fill-rule:evenodd;fill:rgb(0%,0%,0%);fill-opacity:1;" d="M 27.460938 53.464844 C 27.460938 51.804688 26.117188 50.464844 24.460938 50.464844 C 22.804688 50.464844 21.460938 51.804688 21.460938 53.464844 C 21.460938 55.121094 22.804688 56.464844 24.460938 56.464844 C 26.117188 56.464844 27.460938 55.121094 27.460938 53.464844 "/>
<path style=" stroke:none;fill-rule:evenodd;fill:rgb(0%,0%,0%);fill-opacity:1;" d="M 15.605469 43.515625 C 15.605469 41.855469 14.261719 40.515625 12.605469 40.515625 C 10.945312 40.515625 9.605469 41.855469 9.605469 43.515625 C 9.605469 45.171875 10.945312 46.515625 12.605469 46.515625 C 14.261719 46.515625 15.605469 45.171875 15.605469 43.515625 "/>
<path style=" stroke:none;fill-rule:evenodd;fill:rgb(0%,0%,0%);fill-opacity:1;" d="M 12.914062 28.269531 C 12.914062 26.613281 11.574219 25.269531 9.914062 25.269531 C 8.257812 25.269531 6.914062 26.613281 6.914062 28.269531 C 6.914062 29.929688 8.257812 31.269531 9.914062 31.269531 C 11.574219 31.269531 12.914062 29.929688 12.914062 28.269531 "/>
</g>
</svg>
