<?xml version="1.0" encoding="UTF-8"?>
<svg xmlns="http://www.w3.org/2000/svg" xmlns:xlink="http://www.w3.org/1999/xlink" width="395.6641pt" height="125.294pt" viewBox="0 0 395.6641 125.294" version="1.1">
<defs>
<clipPath id="clip1">
  <path d="M 188 0 L 395.664062 0 L 395.664062 122 L 188 122 Z M 188 0 "/>
</clipPath>
</defs>
<g id="surface1">
<g clip-path="url(#clip1)" clip-rule="nonzero">
<path style="fill:none;stroke-width:3;stroke-linecap:butt;stroke-linejoin:round;stroke:rgb(0%,0%,0%);stroke-opacity:1;stroke-miterlimit:10;" d="M 235.035838 474.717594 C 223.4499 459.432437 223.992869 438.713687 234.399119 423.612125 C 244.805369 408.514469 265.070994 399.037906 289.426463 394.018375 C 313.781931 389.00275 342.227244 388.444156 366.809275 393.506656 C 391.395213 398.569156 412.113963 409.256656 422.567088 424.217594 C 433.016306 439.174625 433.1999 458.409 422.703806 473.323062 C 412.203806 488.237125 391.031931 498.830875 367.809275 504.170719 C 344.590525 509.514469 319.3249 509.608219 294.832713 504.729312 C 270.340525 499.850406 246.621775 490.00275 235.035838 474.717594 Z M 235.035838 474.717594 " transform="matrix(1,0,0,-1,-36.8249,510.284)"/>
</g>
<path style="fill:none;stroke-width:3;stroke-linecap:round;stroke-linejoin:round;stroke:rgb(0%,0%,0%);stroke-opacity:1;stroke-miterlimit:10;" d="M 276.570994 454.014469 C 276.570994 454.014469 276.570994 454.014469 277.445994 453.444156 C 278.317088 452.869937 280.067088 451.729312 282.164744 450.584781 C 284.2624 449.44025 286.707713 448.295719 289.469431 447.330875 C 292.23115 446.366031 295.305369 445.580875 298.555369 444.866031 C 301.809275 444.151187 305.23115 443.506656 308.660838 443.041812 C 312.082713 442.580875 315.508494 442.291812 318.340525 442.076969 C 321.172556 441.862125 323.410838 441.7215 325.891306 441.686344 C 328.371775 441.647281 331.098338 441.7215 334.246775 441.826969 C 337.391306 441.936344 340.957713 442.076969 343.961619 442.362125 C 346.969431 442.651187 349.414744 443.080875 352.317088 443.651187 C 355.215525 444.2215 358.570994 444.936344 361.367869 445.616031 C 364.164744 446.295719 366.403025 446.94025 368.395213 447.619937 C 370.3874 448.295719 372.133494 449.010562 374.160838 450.084781 C 376.188181 451.155094 378.496775 452.584781 379.649119 453.299625 C 380.801463 454.014469 380.801463 454.014469 380.801463 454.014469 " transform="matrix(1,0,0,-1,-36.8249,510.284)"/>
<path style="fill:none;stroke-width:3;stroke-linecap:round;stroke-linejoin:round;stroke:rgb(0%,0%,0%);stroke-opacity:1;stroke-miterlimit:10;" d="M 285.508494 448.916812 C 285.508494 448.916812 285.508494 448.916812 286.535838 449.229312 C 287.563181 449.545719 289.617869 450.170719 291.656931 450.772281 C 293.6999 451.369937 295.723338 451.94025 297.8249 452.44025 C 299.91865 452.944156 302.086619 453.373844 304.430369 453.764469 C 306.770213 454.159 309.289744 454.514469 311.942088 454.799625 C 314.602244 455.088687 317.395213 455.299625 319.809275 455.444156 C 322.219431 455.588687 324.246775 455.659 326.379588 455.729312 C 328.5124 455.803531 330.750681 455.873844 333.547556 455.764469 C 336.340525 455.659 339.695994 455.373844 343.156931 455.014469 C 346.617869 454.659 350.184275 454.229312 353.086619 453.764469 C 355.985056 453.299625 358.223338 452.799625 360.336619 452.268375 C 362.4499 451.733219 364.438181 451.170719 366.250681 450.573062 C 368.059275 449.979312 369.695994 449.354312 370.5124 449.041812 C 371.332713 448.729312 371.332713 448.729312 371.332713 448.729312 " transform="matrix(1,0,0,-1,-36.8249,510.284)"/>
<path style="fill:none;stroke-width:3;stroke-linecap:butt;stroke-linejoin:round;stroke:rgb(0%,0%,0%);stroke-opacity:1;stroke-miterlimit:10;" d="M 47.391306 471.725406 C 35.801462 456.44025 36.348337 435.717594 46.754587 420.619937 C 57.160837 405.522281 77.426462 396.045719 101.781931 391.026187 C 126.1374 386.006656 154.582713 385.451969 179.164744 390.514469 C 203.750681 395.580875 224.469431 406.264469 234.922556 421.225406 C 245.371775 436.182437 245.555369 455.416812 235.055369 470.330875 C 224.559275 485.244937 203.383494 495.838687 180.164744 501.178531 C 156.945994 506.522281 131.680369 506.616031 107.188181 501.737125 C 82.695994 496.858219 58.977244 487.010562 47.391306 471.725406 Z M 47.391306 471.725406 " transform="matrix(1,0,0,-1,-36.8249,510.284)"/>
<path style="fill:none;stroke-width:3;stroke-linecap:round;stroke-linejoin:round;stroke:rgb(0%,0%,0%);stroke-opacity:1;stroke-miterlimit:10;" d="M 88.926462 451.022281 C 88.926462 451.022281 88.926462 451.022281 89.801462 450.451969 C 90.672556 449.87775 92.422556 448.733219 94.520212 447.592594 C 96.613962 446.448062 99.063181 445.303531 101.8249 444.338687 C 104.586619 443.373844 107.660837 442.588687 110.910837 441.873844 C 114.164744 441.159 117.586619 440.514469 121.0124 440.049625 C 124.438181 439.584781 127.863962 439.299625 130.695994 439.084781 C 133.528025 438.873844 135.7624 438.729312 138.246775 438.694156 C 140.727244 438.655094 143.453806 438.729312 146.598338 438.834781 C 149.746775 438.944156 153.309275 439.084781 156.317088 439.373844 C 159.3249 439.659 161.770213 440.088687 164.672556 440.659 C 167.570994 441.229312 170.926463 441.944156 173.723338 442.623844 C 176.520213 443.303531 178.758494 443.944156 180.750681 444.623844 C 182.742869 445.303531 184.488963 446.018375 186.516306 447.092594 C 188.54365 448.162906 190.852244 449.592594 192.004588 450.307437 C 193.156931 451.022281 193.156931 451.022281 193.156931 451.022281 " transform="matrix(1,0,0,-1,-36.8249,510.284)"/>
<path style="fill:none;stroke-width:3;stroke-linecap:round;stroke-linejoin:round;stroke:rgb(0%,0%,0%);stroke-opacity:1;stroke-miterlimit:10;" d="M 97.863962 445.924625 C 97.863962 445.924625 97.863962 445.924625 98.891306 446.237125 C 99.91865 446.553531 101.969431 447.178531 104.0124 447.776187 C 106.051462 448.37775 108.078806 448.948062 110.176462 449.448062 C 112.274119 449.948062 114.442087 450.37775 116.785837 450.772281 C 119.125681 451.166812 121.641306 451.522281 124.297556 451.807437 C 126.957712 452.0965 129.750681 452.307437 132.164744 452.451969 C 134.5749 452.5965 136.602244 452.666812 138.735056 452.737125 C 140.867869 452.807437 143.102244 452.881656 145.899119 452.772281 C 148.695994 452.666812 152.051463 452.381656 155.5124 452.022281 C 158.973338 451.666812 162.539744 451.237125 165.438181 450.772281 C 168.340525 450.307437 170.578806 449.807437 172.692088 449.272281 C 174.805369 448.741031 176.79365 448.174625 178.602244 447.580875 C 180.414744 446.987125 182.051463 446.362125 182.867869 446.049625 C 183.684275 445.737125 183.684275 445.737125 183.684275 445.737125 " transform="matrix(1,0,0,-1,-36.8249,510.284)"/>
<path style=" stroke:none;fill-rule:evenodd;fill:rgb(100%,100%,100%);fill-opacity:1;" d="M 180.207031 30.078125 L 180.207031 94.417969 L 211.738281 94.417969 L 211.738281 30.078125 Z M 180.207031 30.078125 "/>
<path style="fill:none;stroke-width:2;stroke-linecap:butt;stroke-linejoin:round;stroke:rgb(0%,0%,0%);stroke-opacity:1;stroke-miterlimit:10;" d="M 221.899119 484.159 C 230.078806 476.209781 237.711619 476.467594 244.805369 484.932437 " transform="matrix(1,0,0,-1,-36.8249,510.284)"/>
<path style="fill:none;stroke-width:2;stroke-linecap:butt;stroke-linejoin:round;stroke:rgb(0%,0%,0%);stroke-opacity:1;stroke-miterlimit:10;" d="M 227.270213 412.881656 C 232.817088 418.264469 238.656931 418.213687 244.781931 412.729312 " transform="matrix(1,0,0,-1,-36.8249,510.284)"/>
</g>
</svg>
