<?xml version="1.0" encoding="UTF-8"?>
<svg xmlns="http://www.w3.org/2000/svg" xmlns:xlink="http://www.w3.org/1999/xlink" width="64.4pt" height="64.4pt" viewBox="0 0 64.4 64.4" version="1.1">
<defs>
<clipPath id="clip1">
  <path d="M 0 0 L 64.398438 0 L 64.398438 64.398438 L 0 64.398438 Z M 0 0 "/>
</clipPath>
</defs>
<g id="surface1">
<g clip-path="url(#clip1)" clip-rule="nonzero">
<path style=" stroke:none;fill-rule:evenodd;fill:rgb(100%,100%,100%);fill-opacity:1;" d="M 0.199219 0.199219 L 0.199219 64.199219 L 64.199219 64.199219 L 64.199219 0.199219 Z M 0.199219 0.199219 "/>
</g>
<path style=" stroke:none;fill-rule:evenodd;fill:rgb(32.899475%,67.799377%,79.598999%);fill-opacity:1;" d="M 21.695312 51.941406 L 10.488281 30.886719 L 22.242188 13.402344 L 45.84375 12.28125 L 53.765625 29.851562 L 53.910156 33.027344 L 46.320312 52.117188 Z M 21.695312 51.941406 "/>
<path style="fill:none;stroke-width:2;stroke-linecap:butt;stroke-linejoin:round;stroke:rgb(0%,0%,0%);stroke-opacity:1;stroke-miterlimit:10;" d="M 326.042188 514.797656 L 349.64375 515.91875 " transform="matrix(1,0,0,-1,-303.8,528.2)"/>
<path style="fill:none;stroke-width:2;stroke-linecap:butt;stroke-linejoin:round;stroke:rgb(0%,0%,0%);stroke-opacity:1;stroke-miterlimit:10;" d="M 349.64375 515.91875 L 333.538281 513.285938 " transform="matrix(1,0,0,-1,-303.8,528.2)"/>
<path style="fill:none;stroke-width:2;stroke-linecap:butt;stroke-linejoin:round;stroke:rgb(0%,0%,0%);stroke-opacity:1;stroke-miterlimit:10;" d="M 333.538281 513.285938 L 326.042188 514.797656 " transform="matrix(1,0,0,-1,-303.8,528.2)"/>
<path style="fill:none;stroke-width:2;stroke-linecap:butt;stroke-linejoin:round;stroke:rgb(0%,0%,0%);stroke-opacity:1;stroke-miterlimit:10;" d="M 326.042188 514.797656 L 314.288281 497.313281 " transform="matrix(1,0,0,-1,-303.8,528.2)"/>
<path style="fill:none;stroke-width:2;stroke-linecap:butt;stroke-linejoin:round;stroke:rgb(0%,0%,0%);stroke-opacity:1;stroke-miterlimit:10;" d="M 314.288281 497.313281 L 333.538281 513.285938 " transform="matrix(1,0,0,-1,-303.8,528.2)"/>
<path style="fill:none;stroke-width:2;stroke-linecap:butt;stroke-linejoin:round;stroke:rgb(0%,0%,0%);stroke-opacity:1;stroke-miterlimit:10;" d="M 333.538281 513.285938 L 357.565625 498.348438 " transform="matrix(1,0,0,-1,-303.8,528.2)"/>
<path style="fill:none;stroke-width:2;stroke-linecap:butt;stroke-linejoin:round;stroke:rgb(0%,0%,0%);stroke-opacity:1;stroke-miterlimit:10;" d="M 357.565625 498.348438 L 349.64375 515.91875 " transform="matrix(1,0,0,-1,-303.8,528.2)"/>
<path style="fill:none;stroke-width:0.8;stroke-linecap:butt;stroke-linejoin:round;stroke:rgb(0%,0%,0%);stroke-opacity:1;stroke-dasharray:4;stroke-miterlimit:10;" d="M 349.64375 515.91875 L 340.464063 504.430469 " transform="matrix(1,0,0,-1,-303.8,528.2)"/>
<path style="fill:none;stroke-width:0.8;stroke-linecap:butt;stroke-linejoin:round;stroke:rgb(0%,0%,0%);stroke-opacity:1;stroke-dasharray:4;stroke-miterlimit:10;" d="M 340.464063 504.430469 L 357.710156 495.172656 " transform="matrix(1,0,0,-1,-303.8,528.2)"/>
<path style="fill:none;stroke-width:2;stroke-linecap:butt;stroke-linejoin:round;stroke:rgb(0%,0%,0%);stroke-opacity:1;stroke-miterlimit:10;" d="M 333.538281 513.285938 L 333.417188 484.270313 " transform="matrix(1,0,0,-1,-303.8,528.2)"/>
<path style="fill:none;stroke-width:2;stroke-linecap:butt;stroke-linejoin:round;stroke:rgb(0%,0%,0%);stroke-opacity:1;stroke-miterlimit:10;" d="M 333.417188 484.270313 L 314.288281 497.313281 " transform="matrix(1,0,0,-1,-303.8,528.2)"/>
<path style="fill:none;stroke-width:2;stroke-linecap:butt;stroke-linejoin:round;stroke:rgb(0%,0%,0%);stroke-opacity:1;stroke-miterlimit:10;" d="M 314.288281 497.313281 L 325.495313 476.258594 " transform="matrix(1,0,0,-1,-303.8,528.2)"/>
<path style="fill:none;stroke-width:0.8;stroke-linecap:butt;stroke-linejoin:round;stroke:rgb(0%,0%,0%);stroke-opacity:1;stroke-dasharray:4;stroke-miterlimit:10;" d="M 325.495313 476.258594 L 322.542188 494.660938 " transform="matrix(1,0,0,-1,-303.8,528.2)"/>
<path style="fill:none;stroke-width:2;stroke-linecap:butt;stroke-linejoin:round;stroke:rgb(0%,0%,0%);stroke-opacity:1;stroke-miterlimit:10;" d="M 325.495313 476.258594 L 333.417188 484.270313 " transform="matrix(1,0,0,-1,-303.8,528.2)"/>
<path style="fill:none;stroke-width:0.8;stroke-linecap:butt;stroke-linejoin:round;stroke:rgb(0%,0%,0%);stroke-opacity:1;stroke-dasharray:4;stroke-miterlimit:10;" d="M 325.495313 476.258594 L 340.55 483.578906 " transform="matrix(1,0,0,-1,-303.8,528.2)"/>
<path style="fill:none;stroke-width:2;stroke-linecap:butt;stroke-linejoin:round;stroke:rgb(0%,0%,0%);stroke-opacity:1;stroke-miterlimit:10;" d="M 325.495313 476.258594 L 350.120313 476.082813 " transform="matrix(1,0,0,-1,-303.8,528.2)"/>
<path style="fill:none;stroke-width:0.8;stroke-linecap:butt;stroke-linejoin:round;stroke:rgb(0%,0%,0%);stroke-opacity:1;stroke-dasharray:4;stroke-miterlimit:10;" d="M 350.120313 476.082813 L 340.55 483.578906 " transform="matrix(1,0,0,-1,-303.8,528.2)"/>
<path style="fill:none;stroke-width:2;stroke-linecap:butt;stroke-linejoin:round;stroke:rgb(0%,0%,0%);stroke-opacity:1;stroke-miterlimit:10;" d="M 350.120313 476.082813 L 333.417188 484.270313 " transform="matrix(1,0,0,-1,-303.8,528.2)"/>
<path style="fill:none;stroke-width:2;stroke-linecap:butt;stroke-linejoin:round;stroke:rgb(0%,0%,0%);stroke-opacity:1;stroke-miterlimit:10;" d="M 350.120313 476.082813 L 357.710156 495.172656 " transform="matrix(1,0,0,-1,-303.8,528.2)"/>
<path style="fill:none;stroke-width:0.8;stroke-linecap:butt;stroke-linejoin:round;stroke:rgb(0%,0%,0%);stroke-opacity:1;stroke-dasharray:4;stroke-miterlimit:10;" d="M 340.55 483.578906 L 357.710156 495.172656 " transform="matrix(1,0,0,-1,-303.8,528.2)"/>
<path style="fill:none;stroke-width:0.8;stroke-linecap:butt;stroke-linejoin:round;stroke:rgb(0%,0%,0%);stroke-opacity:1;stroke-dasharray:4;stroke-miterlimit:10;" d="M 340.55 483.578906 L 340.464063 504.430469 " transform="matrix(1,0,0,-1,-303.8,528.2)"/>
<path style="fill:none;stroke-width:2;stroke-linecap:butt;stroke-linejoin:round;stroke:rgb(0%,0%,0%);stroke-opacity:1;stroke-miterlimit:10;" d="M 333.417188 484.270313 L 357.565625 498.348438 " transform="matrix(1,0,0,-1,-303.8,528.2)"/>
<path style="fill:none;stroke-width:0.8;stroke-linecap:butt;stroke-linejoin:round;stroke:rgb(0%,0%,0%);stroke-opacity:1;stroke-dasharray:4;stroke-miterlimit:10;" d="M 340.464063 504.430469 L 322.542188 494.660938 " transform="matrix(1,0,0,-1,-303.8,528.2)"/>
<path style="fill:none;stroke-width:0.8;stroke-linecap:butt;stroke-linejoin:round;stroke:rgb(0%,0%,0%);stroke-opacity:1;stroke-dasharray:4;stroke-miterlimit:10;" d="M 322.542188 494.660938 L 340.55 483.578906 " transform="matrix(1,0,0,-1,-303.8,528.2)"/>
<path style="fill:none;stroke-width:0.8;stroke-linecap:butt;stroke-linejoin:round;stroke:rgb(0%,0%,0%);stroke-opacity:1;stroke-dasharray:4;stroke-miterlimit:10;" d="M 322.542188 494.660938 L 326.042188 514.797656 " transform="matrix(1,0,0,-1,-303.8,528.2)"/>
<path style="fill:none;stroke-width:0.8;stroke-linecap:butt;stroke-linejoin:round;stroke:rgb(0%,0%,0%);stroke-opacity:1;stroke-dasharray:4;stroke-miterlimit:10;" d="M 322.542188 494.660938 L 314.288281 497.313281 " transform="matrix(1,0,0,-1,-303.8,528.2)"/>
<path style="fill:none;stroke-width:0.8;stroke-linecap:butt;stroke-linejoin:round;stroke:rgb(0%,0%,0%);stroke-opacity:1;stroke-dasharray:4;stroke-miterlimit:10;" d="M 340.464063 504.430469 L 326.042188 514.797656 " transform="matrix(1,0,0,-1,-303.8,528.2)"/>
<path style="fill:none;stroke-width:2;stroke-linecap:butt;stroke-linejoin:round;stroke:rgb(0%,0%,0%);stroke-opacity:1;stroke-miterlimit:10;" d="M 357.710156 495.172656 L 357.565625 498.348438 " transform="matrix(1,0,0,-1,-303.8,528.2)"/>
<path style="fill:none;stroke-width:2;stroke-linecap:butt;stroke-linejoin:round;stroke:rgb(0%,0%,0%);stroke-opacity:1;stroke-miterlimit:10;" d="M 357.565625 498.348438 L 350.120313 476.082813 " transform="matrix(1,0,0,-1,-303.8,528.2)"/>
<path style="fill:none;stroke-width:0.8;stroke-linecap:butt;stroke-linejoin:round;stroke:rgb(0%,0%,0%);stroke-opacity:1;stroke-miterlimit:10;" d="M 349.64375 515.91875 L 357.710156 495.172656 " transform="matrix(1,0,0,-1,-303.8,528.2)"/>
<path style=" stroke:none;fill-rule:evenodd;fill:rgb(0%,0%,0%);fill-opacity:1;" d="M 24.042969 13.402344 C 24.042969 12.410156 23.234375 11.601562 22.242188 11.601562 C 21.246094 11.601562 20.441406 12.410156 20.441406 13.402344 C 20.441406 14.398438 21.246094 15.203125 22.242188 15.203125 C 23.234375 15.203125 24.042969 14.398438 24.042969 13.402344 "/>
<path style=" stroke:none;fill-rule:evenodd;fill:rgb(0%,0%,0%);fill-opacity:1;" d="M 31.535156 14.914062 C 31.535156 13.921875 30.730469 13.117188 29.738281 13.117188 C 28.742188 13.117188 27.9375 13.921875 27.9375 14.914062 C 27.9375 15.910156 28.742188 16.714844 29.738281 16.714844 C 30.730469 16.714844 31.535156 15.910156 31.535156 14.914062 "/>
<path style=" stroke:none;fill-rule:evenodd;fill:rgb(0%,0%,0%);fill-opacity:1;" d="M 47.640625 12.28125 C 47.640625 11.289062 46.835938 10.484375 45.84375 10.484375 C 44.847656 10.484375 44.042969 11.289062 44.042969 12.28125 C 44.042969 13.277344 44.847656 14.082031 45.84375 14.082031 C 46.835938 14.082031 47.640625 13.277344 47.640625 12.28125 "/>
<path style=" stroke:none;fill-rule:evenodd;fill:rgb(0%,0%,0%);fill-opacity:1;" d="M 38.464844 23.769531 C 38.464844 22.773438 37.660156 21.96875 36.664062 21.96875 C 35.671875 21.96875 34.863281 22.773438 34.863281 23.769531 C 34.863281 24.765625 35.671875 25.570312 36.664062 25.570312 C 37.660156 25.570312 38.464844 24.765625 38.464844 23.769531 "/>
<path style=" stroke:none;fill-rule:evenodd;fill:rgb(0%,0%,0%);fill-opacity:1;" d="M 12.289062 30.886719 C 12.289062 29.894531 11.484375 29.085938 10.488281 29.085938 C 9.496094 29.085938 8.6875 29.894531 8.6875 30.886719 C 8.6875 31.882812 9.496094 32.6875 10.488281 32.6875 C 11.484375 32.6875 12.289062 31.882812 12.289062 30.886719 "/>
<path style=" stroke:none;fill-rule:evenodd;fill:rgb(0%,0%,0%);fill-opacity:1;" d="M 20.542969 33.539062 C 20.542969 32.546875 19.734375 31.738281 18.742188 31.738281 C 17.746094 31.738281 16.941406 32.546875 16.941406 33.539062 C 16.941406 34.535156 17.746094 35.339844 18.742188 35.339844 C 19.734375 35.339844 20.542969 34.535156 20.542969 33.539062 "/>
<path style=" stroke:none;fill-rule:evenodd;fill:rgb(0%,0%,0%);fill-opacity:1;" d="M 55.5625 29.851562 C 55.5625 28.859375 54.757812 28.050781 53.765625 28.050781 C 52.769531 28.050781 51.964844 28.859375 51.964844 29.851562 C 51.964844 30.847656 52.769531 31.652344 53.765625 31.652344 C 54.757812 31.652344 55.5625 30.847656 55.5625 29.851562 "/>
<path style=" stroke:none;fill-rule:evenodd;fill:rgb(0%,0%,0%);fill-opacity:1;" d="M 55.710938 33.027344 C 55.710938 32.03125 54.902344 31.226562 53.910156 31.226562 C 52.914062 31.226562 52.109375 32.03125 52.109375 33.027344 C 52.109375 34.023438 52.914062 34.828125 53.910156 34.828125 C 54.902344 34.828125 55.710938 34.023438 55.710938 33.027344 "/>
<path style=" stroke:none;fill-rule:evenodd;fill:rgb(0%,0%,0%);fill-opacity:1;" d="M 31.417969 43.929688 C 31.417969 42.9375 30.609375 42.128906 29.617188 42.128906 C 28.621094 42.128906 27.816406 42.9375 27.816406 43.929688 C 27.816406 44.925781 28.621094 45.730469 29.617188 45.730469 C 30.609375 45.730469 31.417969 44.925781 31.417969 43.929688 "/>
<path style=" stroke:none;fill-rule:evenodd;fill:rgb(0%,0%,0%);fill-opacity:1;" d="M 38.550781 44.621094 C 38.550781 43.628906 37.742188 42.824219 36.75 42.824219 C 35.753906 42.824219 34.949219 43.628906 34.949219 44.621094 C 34.949219 45.617188 35.753906 46.421875 36.75 46.421875 C 37.742188 46.421875 38.550781 45.617188 38.550781 44.621094 "/>
<path style=" stroke:none;fill-rule:evenodd;fill:rgb(0%,0%,0%);fill-opacity:1;" d="M 23.496094 51.941406 C 23.496094 50.945312 22.691406 50.140625 21.695312 50.140625 C 20.703125 50.140625 19.894531 50.945312 19.894531 51.941406 C 19.894531 52.933594 20.703125 53.742188 21.695312 53.742188 C 22.691406 53.742188 23.496094 52.933594 23.496094 51.941406 "/>
<path style=" stroke:none;fill-rule:evenodd;fill:rgb(0%,0%,0%);fill-opacity:1;" d="M 48.121094 52.117188 C 48.121094 51.121094 47.3125 50.316406 46.320312 50.316406 C 45.324219 50.316406 44.519531 51.121094 44.519531 52.117188 C 44.519531 53.109375 45.324219 53.914062 46.320312 53.914062 C 47.3125 53.914062 48.121094 53.109375 48.121094 52.117188 "/>
</g>
</svg>
