<?xml version="1.0" encoding="UTF-8"?>
<svg xmlns="http://www.w3.org/2000/svg" xmlns:xlink="http://www.w3.org/1999/xlink" width="259pt" height="259pt" viewBox="0 0 259 259" version="1.1">
<g id="surface1">
<path style="fill:none;stroke-width:2;stroke-linecap:butt;stroke-linejoin:round;stroke:rgb(0%,0%,0%);stroke-opacity:1;stroke-miterlimit:10;" d="M 144 640 C 144 644.417969 140.417969 648 136 648 C 131.582031 648 128 644.417969 128 640 C 128 635.582031 131.582031 632 136 632 C 140.417969 632 144 635.582031 144 640 " transform="matrix(1,0,0,-1,-126.5,769.5)"/>
<path style="fill:none;stroke-width:2;stroke-linecap:butt;stroke-linejoin:round;stroke:rgb(0%,0%,0%);stroke-opacity:1;stroke-miterlimit:10;" d="M 160 640 C 160 648.835938 152.835938 656 144 656 C 135.164062 656 128 648.835938 128 640 C 128 631.164062 135.164062 624 144 624 C 152.835938 624 160 631.164062 160 640 " transform="matrix(1,0,0,-1,-126.5,769.5)"/>
<path style="fill:none;stroke-width:2;stroke-linecap:butt;stroke-linejoin:round;stroke:rgb(0%,0%,0%);stroke-opacity:1;stroke-miterlimit:10;" d="M 176 640 C 176 653.253906 165.253906 664 152 664 C 138.746094 664 128 653.253906 128 640 C 128 626.746094 138.746094 616 152 616 C 165.253906 616 176 626.746094 176 640 " transform="matrix(1,0,0,-1,-126.5,769.5)"/>
<path style="fill:none;stroke-width:2;stroke-linecap:butt;stroke-linejoin:round;stroke:rgb(0%,0%,0%);stroke-opacity:1;stroke-miterlimit:10;" d="M 192 640 C 192 657.671875 177.671875 672 160 672 C 142.328125 672 128 657.671875 128 640 C 128 622.328125 142.328125 608 160 608 C 177.671875 608 192 622.328125 192 640 " transform="matrix(1,0,0,-1,-126.5,769.5)"/>
<path style="fill:none;stroke-width:2;stroke-linecap:butt;stroke-linejoin:round;stroke:rgb(0%,0%,0%);stroke-opacity:1;stroke-miterlimit:10;" d="M 208 640 C 208 662.089844 190.089844 680 168 680 C 145.910156 680 128 662.089844 128 640 C 128 617.910156 145.910156 600 168 600 C 190.089844 600 208 617.910156 208 640 " transform="matrix(1,0,0,-1,-126.5,769.5)"/>
<path style="fill:none;stroke-width:2;stroke-linecap:butt;stroke-linejoin:round;stroke:rgb(0%,0%,0%);stroke-opacity:1;stroke-miterlimit:10;" d="M 224 640 C 224 666.511719 202.511719 688 176 688 C 149.488281 688 128 666.511719 128 640 C 128 613.488281 149.488281 592 176 592 C 202.511719 592 224 613.488281 224 640 " transform="matrix(1,0,0,-1,-126.5,769.5)"/>
<path style="fill:none;stroke-width:2;stroke-linecap:butt;stroke-linejoin:round;stroke:rgb(0%,0%,0%);stroke-opacity:1;stroke-miterlimit:10;" d="M 240 640 C 240 670.929688 214.929688 696 184 696 C 153.070312 696 128 670.929688 128 640 C 128 609.070312 153.070312 584 184 584 C 214.929688 584 240 609.070312 240 640 " transform="matrix(1,0,0,-1,-126.5,769.5)"/>
<path style="fill:none;stroke-width:2;stroke-linecap:butt;stroke-linejoin:round;stroke:rgb(0%,0%,0%);stroke-opacity:1;stroke-miterlimit:10;" d="M 256 640 C 256 675.347656 227.347656 704 192 704 C 156.652344 704 128 675.347656 128 640 C 128 604.652344 156.652344 576 192 576 C 227.347656 576 256 604.652344 256 640 " transform="matrix(1,0,0,-1,-126.5,769.5)"/>
<path style="fill:none;stroke-width:2;stroke-linecap:butt;stroke-linejoin:round;stroke:rgb(0%,0%,0%);stroke-opacity:1;stroke-miterlimit:10;" d="M 272 640 C 272 679.765625 239.765625 712 200 712 C 160.234375 712 128 679.765625 128 640 C 128 600.234375 160.234375 568 200 568 C 239.765625 568 272 600.234375 272 640 " transform="matrix(1,0,0,-1,-126.5,769.5)"/>
<path style="fill:none;stroke-width:2;stroke-linecap:butt;stroke-linejoin:round;stroke:rgb(0%,0%,0%);stroke-opacity:1;stroke-miterlimit:10;" d="M 288 640 C 288 684.183594 252.183594 720 208 720 C 163.816406 720 128 684.183594 128 640 C 128 595.816406 163.816406 560 208 560 C 252.183594 560 288 595.816406 288 640 " transform="matrix(1,0,0,-1,-126.5,769.5)"/>
<path style="fill:none;stroke-width:2;stroke-linecap:butt;stroke-linejoin:round;stroke:rgb(0%,0%,0%);stroke-opacity:1;stroke-miterlimit:10;" d="M 304 640 C 304 688.601562 264.601562 728 216 728 C 167.398438 728 128 688.601562 128 640 C 128 591.398438 167.398438 552 216 552 C 264.601562 552 304 591.398438 304 640 " transform="matrix(1,0,0,-1,-126.5,769.5)"/>
<path style="fill:none;stroke-width:2;stroke-linecap:butt;stroke-linejoin:round;stroke:rgb(0%,0%,0%);stroke-opacity:1;stroke-miterlimit:10;" d="M 320 640 C 320 693.019531 277.019531 736 224 736 C 170.980469 736 128 693.019531 128 640 C 128 586.980469 170.980469 544 224 544 C 277.019531 544 320 586.980469 320 640 " transform="matrix(1,0,0,-1,-126.5,769.5)"/>
<path style="fill:none;stroke-width:2;stroke-linecap:butt;stroke-linejoin:round;stroke:rgb(0%,0%,0%);stroke-opacity:1;stroke-dasharray:4;stroke-miterlimit:10;" d="M 128 640 C 128 582.5625 174.5625 536 232 536 C 289.4375 536 336 582.5625 336 640 C 336 697.4375 289.4375 744 232 744 C 174.5625 744 128 697.4375 128 640 " transform="matrix(1,0,0,-1,-126.5,769.5)"/>
<path style="fill:none;stroke-width:2;stroke-linecap:butt;stroke-linejoin:round;stroke:rgb(0%,0%,0%);stroke-opacity:1;stroke-dasharray:4;stroke-miterlimit:10;" d="M 128 640 C 128 578.144531 178.144531 528 240 528 C 301.855469 528 352 578.144531 352 640 C 352 701.855469 301.855469 752 240 752 C 178.144531 752 128 701.855469 128 640 " transform="matrix(1,0,0,-1,-126.5,769.5)"/>
<path style="fill:none;stroke-width:2;stroke-linecap:butt;stroke-linejoin:round;stroke:rgb(0%,0%,0%);stroke-opacity:1;stroke-dasharray:4;stroke-miterlimit:10;" d="M 128 640 C 128 573.726562 181.726562 520 248 520 C 314.273438 520 368 573.726562 368 640 C 368 706.273438 314.273438 760 248 760 C 181.726562 760 128 706.273438 128 640 " transform="matrix(1,0,0,-1,-126.5,769.5)"/>
<path style="fill:none;stroke-width:2;stroke-linecap:butt;stroke-linejoin:round;stroke:rgb(0%,0%,0%);stroke-opacity:1;stroke-dasharray:4;stroke-miterlimit:10;" d="M 128 640 C 128 569.308594 185.308594 512 256 512 C 326.691406 512 384 569.308594 384 640 C 384 710.691406 326.691406 768 256 768 C 185.308594 768 128 710.691406 128 640 " transform="matrix(1,0,0,-1,-126.5,769.5)"/>
</g>
</svg>
