<?xml version="1.0" encoding="UTF-8"?>
<svg xmlns="http://www.w3.org/2000/svg" xmlns:xlink="http://www.w3.org/1999/xlink" width="373pt" height="262.662pt" viewBox="0 0 373 262.662" version="1.1">
<defs>
<clipPath id="clip1">
  <path d="M 278 228 L 342 228 L 342 262.660156 L 278 262.660156 Z M 278 228 "/>
</clipPath>
<clipPath id="clip2">
  <path d="M 182 228 L 246 228 L 246 262.660156 L 182 262.660156 Z M 182 228 "/>
</clipPath>
<clipPath id="clip3">
  <path d="M 70 228 L 134 228 L 134 262.660156 L 70 262.660156 Z M 70 228 "/>
</clipPath>
<clipPath id="clip4">
  <path d="M 0 228 L 38 228 L 38 262.660156 L 0 262.660156 Z M 0 228 "/>
</clipPath>
</defs>
<g id="surface1">
<path style=" stroke:none;fill-rule:evenodd;fill:rgb(0%,0%,100%);fill-opacity:1;" d="M 324 131.332031 C 324 130.503906 323.328125 129.832031 322.5 129.832031 C 321.671875 129.832031 321 130.503906 321 131.332031 C 321 132.160156 321.671875 132.832031 322.5 132.832031 C 323.328125 132.832031 324 132.160156 324 131.332031 "/>
<path style=" stroke:none;fill-rule:evenodd;fill:rgb(0%,0%,100%);fill-opacity:1;" d="M 324.300781 131.332031 C 324.300781 130.335938 323.492188 129.53125 322.5 129.53125 C 321.507812 129.53125 320.699219 130.335938 320.699219 131.332031 C 320.699219 132.324219 321.507812 133.132812 322.5 133.132812 C 323.492188 133.132812 324.300781 132.324219 324.300781 131.332031 M 323.699219 131.332031 C 323.699219 130.667969 323.164062 130.132812 322.5 130.132812 C 321.835938 130.132812 321.300781 130.667969 321.300781 131.332031 C 321.300781 131.992188 321.835938 132.53125 322.5 132.53125 C 323.164062 132.53125 323.699219 131.992188 323.699219 131.332031 "/>
<path style=" stroke:none;fill-rule:evenodd;fill:rgb(0%,0%,0%);fill-opacity:1;" d="M 36 131.332031 C 36 130.503906 35.328125 129.832031 34.5 129.832031 C 33.671875 129.832031 33 130.503906 33 131.332031 C 33 132.160156 33.671875 132.832031 34.5 132.832031 C 35.328125 132.832031 36 132.160156 36 131.332031 "/>
<path style=" stroke:none;fill-rule:evenodd;fill:rgb(0%,0%,0%);fill-opacity:1;" d="M 36.300781 131.332031 C 36.300781 130.335938 35.492188 129.53125 34.5 129.53125 C 33.507812 129.53125 32.699219 130.335938 32.699219 131.332031 C 32.699219 132.324219 33.507812 133.132812 34.5 133.132812 C 35.492188 133.132812 36.300781 132.324219 36.300781 131.332031 M 35.699219 131.332031 C 35.699219 130.667969 35.164062 130.132812 34.5 130.132812 C 33.835938 130.132812 33.300781 130.667969 33.300781 131.332031 C 33.300781 131.992188 33.835938 132.53125 34.5 132.53125 C 35.164062 132.53125 35.699219 131.992188 35.699219 131.332031 "/>
<path style="fill:none;stroke-width:2;stroke-linecap:butt;stroke-linejoin:miter;stroke:rgb(0%,0%,100%);stroke-opacity:1;stroke-miterlimit:10;" d="M 432 159.998969 L 416 159.998969 " transform="matrix(1,0,0,-1,-61.5,323.331)"/>
<path style="fill-rule:evenodd;fill:rgb(0%,0%,100%);fill-opacity:1;stroke-width:2;stroke-linecap:butt;stroke-linejoin:miter;stroke:rgb(0%,0%,100%);stroke-opacity:1;stroke-miterlimit:10;" d="M 416 159.998969 L 423 157.670844 L 423 162.331 Z M 416 159.998969 " transform="matrix(1,0,0,-1,-61.5,323.331)"/>
<path style="fill:none;stroke-width:2;stroke-linecap:butt;stroke-linejoin:miter;stroke:rgb(0%,0%,100%);stroke-opacity:1;stroke-miterlimit:10;" d="M 400 159.998969 L 384 159.998969 " transform="matrix(1,0,0,-1,-61.5,323.331)"/>
<path style="fill-rule:evenodd;fill:rgb(0%,0%,100%);fill-opacity:1;stroke-width:2;stroke-linecap:butt;stroke-linejoin:miter;stroke:rgb(0%,0%,100%);stroke-opacity:1;stroke-miterlimit:10;" d="M 384 159.998969 L 391 157.670844 L 391 162.331 Z M 384 159.998969 " transform="matrix(1,0,0,-1,-61.5,323.331)"/>
<path style="fill:none;stroke-width:2;stroke-linecap:butt;stroke-linejoin:miter;stroke:rgb(0%,0%,100%);stroke-opacity:1;stroke-miterlimit:10;" d="M 368 159.998969 L 352 159.998969 " transform="matrix(1,0,0,-1,-61.5,323.331)"/>
<path style="fill-rule:evenodd;fill:rgb(0%,0%,100%);fill-opacity:1;stroke-width:2;stroke-linecap:butt;stroke-linejoin:miter;stroke:rgb(0%,0%,100%);stroke-opacity:1;stroke-miterlimit:10;" d="M 352 159.998969 L 359 157.670844 L 359 162.331 Z M 352 159.998969 " transform="matrix(1,0,0,-1,-61.5,323.331)"/>
<path style="fill:none;stroke-width:2;stroke-linecap:butt;stroke-linejoin:miter;stroke:rgb(0%,0%,100%);stroke-opacity:1;stroke-miterlimit:10;" d="M 336 159.998969 L 320 159.998969 " transform="matrix(1,0,0,-1,-61.5,323.331)"/>
<path style="fill-rule:evenodd;fill:rgb(0%,0%,100%);fill-opacity:1;stroke-width:2;stroke-linecap:butt;stroke-linejoin:miter;stroke:rgb(0%,0%,100%);stroke-opacity:1;stroke-miterlimit:10;" d="M 320 159.998969 L 327 157.670844 L 327 162.331 Z M 320 159.998969 " transform="matrix(1,0,0,-1,-61.5,323.331)"/>
<path style="fill:none;stroke-width:2;stroke-linecap:butt;stroke-linejoin:miter;stroke:rgb(0%,0%,100%);stroke-opacity:1;stroke-miterlimit:10;" d="M 304 159.998969 L 288 159.998969 " transform="matrix(1,0,0,-1,-61.5,323.331)"/>
<path style="fill-rule:evenodd;fill:rgb(0%,0%,100%);fill-opacity:1;stroke-width:2;stroke-linecap:butt;stroke-linejoin:miter;stroke:rgb(0%,0%,100%);stroke-opacity:1;stroke-miterlimit:10;" d="M 288 159.998969 L 295 157.670844 L 295 162.331 Z M 288 159.998969 " transform="matrix(1,0,0,-1,-61.5,323.331)"/>
<path style="fill:none;stroke-width:2;stroke-linecap:butt;stroke-linejoin:miter;stroke:rgb(0%,0%,100%);stroke-opacity:1;stroke-miterlimit:10;" d="M 272 159.998969 L 256 159.998969 " transform="matrix(1,0,0,-1,-61.5,323.331)"/>
<path style="fill-rule:evenodd;fill:rgb(0%,0%,100%);fill-opacity:1;stroke-width:2;stroke-linecap:butt;stroke-linejoin:miter;stroke:rgb(0%,0%,100%);stroke-opacity:1;stroke-miterlimit:10;" d="M 256 159.998969 L 263 157.670844 L 263 162.331 Z M 256 159.998969 " transform="matrix(1,0,0,-1,-61.5,323.331)"/>
<path style="fill:none;stroke-width:2;stroke-linecap:butt;stroke-linejoin:miter;stroke:rgb(0%,0%,100%);stroke-opacity:1;stroke-miterlimit:10;" d="M 240 159.998969 L 224 159.998969 " transform="matrix(1,0,0,-1,-61.5,323.331)"/>
<path style="fill-rule:evenodd;fill:rgb(0%,0%,100%);fill-opacity:1;stroke-width:2;stroke-linecap:butt;stroke-linejoin:miter;stroke:rgb(0%,0%,100%);stroke-opacity:1;stroke-miterlimit:10;" d="M 224 159.998969 L 231 157.670844 L 231 162.331 Z M 224 159.998969 " transform="matrix(1,0,0,-1,-61.5,323.331)"/>
<path style="fill:none;stroke-width:2;stroke-linecap:butt;stroke-linejoin:miter;stroke:rgb(0%,0%,100%);stroke-opacity:1;stroke-miterlimit:10;" d="M 208 159.998969 L 192 159.998969 " transform="matrix(1,0,0,-1,-61.5,323.331)"/>
<path style="fill-rule:evenodd;fill:rgb(0%,0%,100%);fill-opacity:1;stroke-width:2;stroke-linecap:butt;stroke-linejoin:miter;stroke:rgb(0%,0%,100%);stroke-opacity:1;stroke-miterlimit:10;" d="M 192 159.998969 L 199 157.670844 L 199 162.331 Z M 192 159.998969 " transform="matrix(1,0,0,-1,-61.5,323.331)"/>
<path style="fill:none;stroke-width:2;stroke-linecap:butt;stroke-linejoin:miter;stroke:rgb(0%,0%,100%);stroke-opacity:1;stroke-miterlimit:10;" d="M 176 159.998969 L 160 159.998969 " transform="matrix(1,0,0,-1,-61.5,323.331)"/>
<path style="fill-rule:evenodd;fill:rgb(0%,0%,100%);fill-opacity:1;stroke-width:2;stroke-linecap:butt;stroke-linejoin:miter;stroke:rgb(0%,0%,100%);stroke-opacity:1;stroke-miterlimit:10;" d="M 160 159.998969 L 167 157.670844 L 167 162.331 Z M 160 159.998969 " transform="matrix(1,0,0,-1,-61.5,323.331)"/>
<path style="fill:none;stroke-width:2;stroke-linecap:butt;stroke-linejoin:miter;stroke:rgb(0%,0%,100%);stroke-opacity:1;stroke-miterlimit:10;" d="M 144 159.998969 L 128 159.998969 " transform="matrix(1,0,0,-1,-61.5,323.331)"/>
<path style="fill-rule:evenodd;fill:rgb(0%,0%,100%);fill-opacity:1;stroke-width:2;stroke-linecap:butt;stroke-linejoin:miter;stroke:rgb(0%,0%,100%);stroke-opacity:1;stroke-miterlimit:10;" d="M 128 159.998969 L 135 157.670844 L 135 162.331 Z M 128 159.998969 " transform="matrix(1,0,0,-1,-61.5,323.331)"/>
<path style="fill:none;stroke-width:2;stroke-linecap:butt;stroke-linejoin:miter;stroke:rgb(0%,0%,100%);stroke-opacity:1;stroke-miterlimit:10;" d="M 112 159.998969 L 96 159.998969 " transform="matrix(1,0,0,-1,-61.5,323.331)"/>
<path style="fill-rule:evenodd;fill:rgb(0%,0%,100%);fill-opacity:1;stroke-width:2;stroke-linecap:butt;stroke-linejoin:miter;stroke:rgb(0%,0%,100%);stroke-opacity:1;stroke-miterlimit:10;" d="M 96 159.998969 L 103 157.670844 L 103 162.331 Z M 96 159.998969 " transform="matrix(1,0,0,-1,-61.5,323.331)"/>
<path style="fill:none;stroke-width:2;stroke-linecap:butt;stroke-linejoin:miter;stroke:rgb(0%,0%,100%);stroke-opacity:1;stroke-miterlimit:10;" d="M 80 159.998969 L 64 159.998969 " transform="matrix(1,0,0,-1,-61.5,323.331)"/>
<path style="fill-rule:evenodd;fill:rgb(0%,0%,100%);fill-opacity:1;stroke-width:2;stroke-linecap:butt;stroke-linejoin:miter;stroke:rgb(0%,0%,100%);stroke-opacity:1;stroke-miterlimit:10;" d="M 64 159.998969 L 71 157.670844 L 71 162.331 Z M 64 159.998969 " transform="matrix(1,0,0,-1,-61.5,323.331)"/>
<path style="fill:none;stroke-width:2;stroke-linecap:butt;stroke-linejoin:miter;stroke:rgb(0%,0%,100%);stroke-opacity:1;stroke-miterlimit:10;" d="M 432 127.998969 L 400 127.998969 " transform="matrix(1,0,0,-1,-61.5,323.331)"/>
<path style="fill-rule:evenodd;fill:rgb(0%,0%,100%);fill-opacity:1;stroke-width:2;stroke-linecap:butt;stroke-linejoin:miter;stroke:rgb(0%,0%,100%);stroke-opacity:1;stroke-miterlimit:10;" d="M 400 127.998969 L 407 125.670844 L 407 130.331 Z M 400 127.998969 " transform="matrix(1,0,0,-1,-61.5,323.331)"/>
<path style="fill:none;stroke-width:2;stroke-linecap:butt;stroke-linejoin:miter;stroke:rgb(0%,0%,100%);stroke-opacity:1;stroke-miterlimit:10;" d="M 384 127.998969 L 352 127.998969 " transform="matrix(1,0,0,-1,-61.5,323.331)"/>
<path style="fill-rule:evenodd;fill:rgb(0%,0%,100%);fill-opacity:1;stroke-width:2;stroke-linecap:butt;stroke-linejoin:miter;stroke:rgb(0%,0%,100%);stroke-opacity:1;stroke-miterlimit:10;" d="M 352 127.998969 L 359 125.670844 L 359 130.331 Z M 352 127.998969 " transform="matrix(1,0,0,-1,-61.5,323.331)"/>
<path style="fill:none;stroke-width:2;stroke-linecap:butt;stroke-linejoin:miter;stroke:rgb(0%,0%,100%);stroke-opacity:1;stroke-miterlimit:10;" d="M 336 127.998969 L 304 127.998969 " transform="matrix(1,0,0,-1,-61.5,323.331)"/>
<path style="fill-rule:evenodd;fill:rgb(0%,0%,100%);fill-opacity:1;stroke-width:2;stroke-linecap:butt;stroke-linejoin:miter;stroke:rgb(0%,0%,100%);stroke-opacity:1;stroke-miterlimit:10;" d="M 304 127.998969 L 311 125.670844 L 311 130.331 Z M 304 127.998969 " transform="matrix(1,0,0,-1,-61.5,323.331)"/>
<path style="fill:none;stroke-width:2;stroke-linecap:butt;stroke-linejoin:miter;stroke:rgb(0%,0%,100%);stroke-opacity:1;stroke-miterlimit:10;" d="M 288 127.998969 L 256 127.998969 " transform="matrix(1,0,0,-1,-61.5,323.331)"/>
<path style="fill-rule:evenodd;fill:rgb(0%,0%,100%);fill-opacity:1;stroke-width:2;stroke-linecap:butt;stroke-linejoin:miter;stroke:rgb(0%,0%,100%);stroke-opacity:1;stroke-miterlimit:10;" d="M 256 127.998969 L 263 125.670844 L 263 130.331 Z M 256 127.998969 " transform="matrix(1,0,0,-1,-61.5,323.331)"/>
<path style="fill:none;stroke-width:2;stroke-linecap:butt;stroke-linejoin:miter;stroke:rgb(0%,0%,100%);stroke-opacity:1;stroke-miterlimit:10;" d="M 240 127.998969 L 208 127.998969 " transform="matrix(1,0,0,-1,-61.5,323.331)"/>
<path style="fill-rule:evenodd;fill:rgb(0%,0%,100%);fill-opacity:1;stroke-width:2;stroke-linecap:butt;stroke-linejoin:miter;stroke:rgb(0%,0%,100%);stroke-opacity:1;stroke-miterlimit:10;" d="M 208 127.998969 L 215 125.670844 L 215 130.331 Z M 208 127.998969 " transform="matrix(1,0,0,-1,-61.5,323.331)"/>
<path style="fill:none;stroke-width:2;stroke-linecap:butt;stroke-linejoin:miter;stroke:rgb(0%,0%,100%);stroke-opacity:1;stroke-miterlimit:10;" d="M 192 127.998969 L 160 127.998969 " transform="matrix(1,0,0,-1,-61.5,323.331)"/>
<path style="fill-rule:evenodd;fill:rgb(0%,0%,100%);fill-opacity:1;stroke-width:2;stroke-linecap:butt;stroke-linejoin:miter;stroke:rgb(0%,0%,100%);stroke-opacity:1;stroke-miterlimit:10;" d="M 160 127.998969 L 167 125.670844 L 167 130.331 Z M 160 127.998969 " transform="matrix(1,0,0,-1,-61.5,323.331)"/>
<path style="fill:none;stroke-width:2;stroke-linecap:butt;stroke-linejoin:miter;stroke:rgb(0%,0%,100%);stroke-opacity:1;stroke-miterlimit:10;" d="M 144 127.998969 L 112 127.998969 " transform="matrix(1,0,0,-1,-61.5,323.331)"/>
<path style="fill-rule:evenodd;fill:rgb(0%,0%,100%);fill-opacity:1;stroke-width:2;stroke-linecap:butt;stroke-linejoin:miter;stroke:rgb(0%,0%,100%);stroke-opacity:1;stroke-miterlimit:10;" d="M 112 127.998969 L 119 125.670844 L 119 130.331 Z M 112 127.998969 " transform="matrix(1,0,0,-1,-61.5,323.331)"/>
<path style="fill:none;stroke-width:2;stroke-linecap:butt;stroke-linejoin:miter;stroke:rgb(0%,0%,100%);stroke-opacity:1;stroke-miterlimit:10;" d="M 96 127.998969 L 64 127.998969 " transform="matrix(1,0,0,-1,-61.5,323.331)"/>
<path style="fill-rule:evenodd;fill:rgb(0%,0%,100%);fill-opacity:1;stroke-width:2;stroke-linecap:butt;stroke-linejoin:miter;stroke:rgb(0%,0%,100%);stroke-opacity:1;stroke-miterlimit:10;" d="M 64 127.998969 L 71 125.670844 L 71 130.331 Z M 64 127.998969 " transform="matrix(1,0,0,-1,-61.5,323.331)"/>
<path style="fill:none;stroke-width:2;stroke-linecap:butt;stroke-linejoin:miter;stroke:rgb(0%,0%,100%);stroke-opacity:1;stroke-miterlimit:10;" d="M 432 95.998969 L 384 95.998969 " transform="matrix(1,0,0,-1,-61.5,323.331)"/>
<path style="fill-rule:evenodd;fill:rgb(0%,0%,100%);fill-opacity:1;stroke-width:2;stroke-linecap:butt;stroke-linejoin:miter;stroke:rgb(0%,0%,100%);stroke-opacity:1;stroke-miterlimit:10;" d="M 384 95.998969 L 391 93.670844 L 391 98.331 Z M 384 95.998969 " transform="matrix(1,0,0,-1,-61.5,323.331)"/>
<path style="fill:none;stroke-width:2;stroke-linecap:butt;stroke-linejoin:miter;stroke:rgb(0%,0%,100%);stroke-opacity:1;stroke-miterlimit:10;" d="M 368 95.998969 L 320 95.998969 " transform="matrix(1,0,0,-1,-61.5,323.331)"/>
<path style="fill-rule:evenodd;fill:rgb(0%,0%,100%);fill-opacity:1;stroke-width:2;stroke-linecap:butt;stroke-linejoin:miter;stroke:rgb(0%,0%,100%);stroke-opacity:1;stroke-miterlimit:10;" d="M 320 95.998969 L 327 93.670844 L 327 98.331 Z M 320 95.998969 " transform="matrix(1,0,0,-1,-61.5,323.331)"/>
<path style="fill:none;stroke-width:2;stroke-linecap:butt;stroke-linejoin:miter;stroke:rgb(0%,0%,100%);stroke-opacity:1;stroke-miterlimit:10;" d="M 304 95.998969 L 256 95.998969 " transform="matrix(1,0,0,-1,-61.5,323.331)"/>
<path style="fill-rule:evenodd;fill:rgb(0%,0%,100%);fill-opacity:1;stroke-width:2;stroke-linecap:butt;stroke-linejoin:miter;stroke:rgb(0%,0%,100%);stroke-opacity:1;stroke-miterlimit:10;" d="M 256 95.998969 L 263 93.670844 L 263 98.331 Z M 256 95.998969 " transform="matrix(1,0,0,-1,-61.5,323.331)"/>
<path style="fill:none;stroke-width:2;stroke-linecap:butt;stroke-linejoin:miter;stroke:rgb(0%,0%,100%);stroke-opacity:1;stroke-miterlimit:10;" d="M 240 95.998969 L 192 95.998969 " transform="matrix(1,0,0,-1,-61.5,323.331)"/>
<path style="fill-rule:evenodd;fill:rgb(0%,0%,100%);fill-opacity:1;stroke-width:2;stroke-linecap:butt;stroke-linejoin:miter;stroke:rgb(0%,0%,100%);stroke-opacity:1;stroke-miterlimit:10;" d="M 192 95.998969 L 199 93.670844 L 199 98.331 Z M 192 95.998969 " transform="matrix(1,0,0,-1,-61.5,323.331)"/>
<path style="fill:none;stroke-width:2;stroke-linecap:butt;stroke-linejoin:miter;stroke:rgb(0%,0%,100%);stroke-opacity:1;stroke-miterlimit:10;" d="M 176 95.998969 L 128 95.998969 " transform="matrix(1,0,0,-1,-61.5,323.331)"/>
<path style="fill-rule:evenodd;fill:rgb(0%,0%,100%);fill-opacity:1;stroke-width:2;stroke-linecap:butt;stroke-linejoin:miter;stroke:rgb(0%,0%,100%);stroke-opacity:1;stroke-miterlimit:10;" d="M 128 95.998969 L 135 93.670844 L 135 98.331 Z M 128 95.998969 " transform="matrix(1,0,0,-1,-61.5,323.331)"/>
<path style="fill:none;stroke-width:2;stroke-linecap:butt;stroke-linejoin:miter;stroke:rgb(0%,0%,100%);stroke-opacity:1;stroke-miterlimit:10;" d="M 112 95.998969 L 64 95.998969 " transform="matrix(1,0,0,-1,-61.5,323.331)"/>
<path style="fill-rule:evenodd;fill:rgb(0%,0%,100%);fill-opacity:1;stroke-width:2;stroke-linecap:butt;stroke-linejoin:miter;stroke:rgb(0%,0%,100%);stroke-opacity:1;stroke-miterlimit:10;" d="M 64 95.998969 L 71 93.670844 L 71 98.331 Z M 64 95.998969 " transform="matrix(1,0,0,-1,-61.5,323.331)"/>
<path style="fill:none;stroke-width:2;stroke-linecap:butt;stroke-linejoin:miter;stroke:rgb(0%,0%,100%);stroke-opacity:1;stroke-miterlimit:10;" d="M 432 63.998969 L 368 63.998969 " transform="matrix(1,0,0,-1,-61.5,323.331)"/>
<path style=" stroke:none;fill-rule:evenodd;fill:rgb(0%,0%,100%);fill-opacity:1;" d="M 306.5 259.332031 L 313.5 261.660156 L 313.5 257 Z M 306.5 259.332031 "/>
<g clip-path="url(#clip1)" clip-rule="nonzero">
<path style="fill:none;stroke-width:2;stroke-linecap:butt;stroke-linejoin:miter;stroke:rgb(0%,0%,100%);stroke-opacity:1;stroke-miterlimit:10;" d="M 368 63.998969 L 375 61.670844 L 375 66.331 Z M 368 63.998969 " transform="matrix(1,0,0,-1,-61.5,323.331)"/>
</g>
<path style="fill:none;stroke-width:2;stroke-linecap:butt;stroke-linejoin:miter;stroke:rgb(0%,0%,100%);stroke-opacity:1;stroke-miterlimit:10;" d="M 336 63.998969 L 272 63.998969 " transform="matrix(1,0,0,-1,-61.5,323.331)"/>
<path style=" stroke:none;fill-rule:evenodd;fill:rgb(0%,0%,100%);fill-opacity:1;" d="M 210.5 259.332031 L 217.5 261.660156 L 217.5 257 Z M 210.5 259.332031 "/>
<g clip-path="url(#clip2)" clip-rule="nonzero">
<path style="fill:none;stroke-width:2;stroke-linecap:butt;stroke-linejoin:miter;stroke:rgb(0%,0%,100%);stroke-opacity:1;stroke-miterlimit:10;" d="M 272 63.998969 L 279 61.670844 L 279 66.331 Z M 272 63.998969 " transform="matrix(1,0,0,-1,-61.5,323.331)"/>
</g>
<path style="fill:none;stroke-width:2;stroke-linecap:butt;stroke-linejoin:miter;stroke:rgb(0%,0%,100%);stroke-opacity:1;stroke-miterlimit:10;" d="M 224 63.998969 L 160 63.998969 " transform="matrix(1,0,0,-1,-61.5,323.331)"/>
<path style=" stroke:none;fill-rule:evenodd;fill:rgb(0%,0%,100%);fill-opacity:1;" d="M 98.5 259.332031 L 105.5 261.660156 L 105.5 257 Z M 98.5 259.332031 "/>
<g clip-path="url(#clip3)" clip-rule="nonzero">
<path style="fill:none;stroke-width:2;stroke-linecap:butt;stroke-linejoin:miter;stroke:rgb(0%,0%,100%);stroke-opacity:1;stroke-miterlimit:10;" d="M 160 63.998969 L 167 61.670844 L 167 66.331 Z M 160 63.998969 " transform="matrix(1,0,0,-1,-61.5,323.331)"/>
</g>
<path style="fill:none;stroke-width:2;stroke-linecap:butt;stroke-linejoin:miter;stroke:rgb(0%,0%,100%);stroke-opacity:1;stroke-miterlimit:10;" d="M 128 63.998969 L 64 63.998969 " transform="matrix(1,0,0,-1,-61.5,323.331)"/>
<path style=" stroke:none;fill-rule:evenodd;fill:rgb(0%,0%,100%);fill-opacity:1;" d="M 2.5 259.332031 L 9.5 261.660156 L 9.5 257 Z M 2.5 259.332031 "/>
<g clip-path="url(#clip4)" clip-rule="nonzero">
<path style="fill:none;stroke-width:2;stroke-linecap:butt;stroke-linejoin:miter;stroke:rgb(0%,0%,100%);stroke-opacity:1;stroke-miterlimit:10;" d="M 64 63.998969 L 71 61.670844 L 71 66.331 Z M 64 63.998969 " transform="matrix(1,0,0,-1,-61.5,323.331)"/>
</g>
<path style="fill:none;stroke-width:2;stroke-linecap:butt;stroke-linejoin:miter;stroke:rgb(0%,0%,100%);stroke-opacity:1;stroke-miterlimit:10;" d="M 64 223.998969 L 80 223.998969 " transform="matrix(1,0,0,-1,-61.5,323.331)"/>
<path style="fill-rule:evenodd;fill:rgb(0%,0%,100%);fill-opacity:1;stroke-width:2;stroke-linecap:butt;stroke-linejoin:miter;stroke:rgb(0%,0%,100%);stroke-opacity:1;stroke-miterlimit:10;" d="M 80 223.998969 L 73 226.331 L 73 221.670844 Z M 80 223.998969 " transform="matrix(1,0,0,-1,-61.5,323.331)"/>
<path style="fill:none;stroke-width:2;stroke-linecap:butt;stroke-linejoin:miter;stroke:rgb(0%,0%,100%);stroke-opacity:1;stroke-miterlimit:10;" d="M 96 223.998969 L 112 223.998969 " transform="matrix(1,0,0,-1,-61.5,323.331)"/>
<path style="fill-rule:evenodd;fill:rgb(0%,0%,100%);fill-opacity:1;stroke-width:2;stroke-linecap:butt;stroke-linejoin:miter;stroke:rgb(0%,0%,100%);stroke-opacity:1;stroke-miterlimit:10;" d="M 112 223.998969 L 105 226.331 L 105 221.670844 Z M 112 223.998969 " transform="matrix(1,0,0,-1,-61.5,323.331)"/>
<path style="fill:none;stroke-width:2;stroke-linecap:butt;stroke-linejoin:miter;stroke:rgb(0%,0%,100%);stroke-opacity:1;stroke-miterlimit:10;" d="M 128 223.998969 L 144 223.998969 " transform="matrix(1,0,0,-1,-61.5,323.331)"/>
<path style="fill-rule:evenodd;fill:rgb(0%,0%,100%);fill-opacity:1;stroke-width:2;stroke-linecap:butt;stroke-linejoin:miter;stroke:rgb(0%,0%,100%);stroke-opacity:1;stroke-miterlimit:10;" d="M 144 223.998969 L 137 226.331 L 137 221.670844 Z M 144 223.998969 " transform="matrix(1,0,0,-1,-61.5,323.331)"/>
<path style="fill:none;stroke-width:2;stroke-linecap:butt;stroke-linejoin:miter;stroke:rgb(0%,0%,100%);stroke-opacity:1;stroke-miterlimit:10;" d="M 160 223.998969 L 176 223.998969 " transform="matrix(1,0,0,-1,-61.5,323.331)"/>
<path style="fill-rule:evenodd;fill:rgb(0%,0%,100%);fill-opacity:1;stroke-width:2;stroke-linecap:butt;stroke-linejoin:miter;stroke:rgb(0%,0%,100%);stroke-opacity:1;stroke-miterlimit:10;" d="M 176 223.998969 L 169 226.331 L 169 221.670844 Z M 176 223.998969 " transform="matrix(1,0,0,-1,-61.5,323.331)"/>
<path style="fill:none;stroke-width:2;stroke-linecap:butt;stroke-linejoin:miter;stroke:rgb(0%,0%,100%);stroke-opacity:1;stroke-miterlimit:10;" d="M 192 223.998969 L 208 223.998969 " transform="matrix(1,0,0,-1,-61.5,323.331)"/>
<path style="fill-rule:evenodd;fill:rgb(0%,0%,100%);fill-opacity:1;stroke-width:2;stroke-linecap:butt;stroke-linejoin:miter;stroke:rgb(0%,0%,100%);stroke-opacity:1;stroke-miterlimit:10;" d="M 208 223.998969 L 201 226.331 L 201 221.670844 Z M 208 223.998969 " transform="matrix(1,0,0,-1,-61.5,323.331)"/>
<path style="fill:none;stroke-width:2;stroke-linecap:butt;stroke-linejoin:miter;stroke:rgb(0%,0%,100%);stroke-opacity:1;stroke-miterlimit:10;" d="M 224 223.998969 L 240 223.998969 " transform="matrix(1,0,0,-1,-61.5,323.331)"/>
<path style="fill-rule:evenodd;fill:rgb(0%,0%,100%);fill-opacity:1;stroke-width:2;stroke-linecap:butt;stroke-linejoin:miter;stroke:rgb(0%,0%,100%);stroke-opacity:1;stroke-miterlimit:10;" d="M 240 223.998969 L 233 226.331 L 233 221.670844 Z M 240 223.998969 " transform="matrix(1,0,0,-1,-61.5,323.331)"/>
<path style="fill:none;stroke-width:2;stroke-linecap:butt;stroke-linejoin:miter;stroke:rgb(0%,0%,100%);stroke-opacity:1;stroke-miterlimit:10;" d="M 256 223.998969 L 272 223.998969 " transform="matrix(1,0,0,-1,-61.5,323.331)"/>
<path style="fill-rule:evenodd;fill:rgb(0%,0%,100%);fill-opacity:1;stroke-width:2;stroke-linecap:butt;stroke-linejoin:miter;stroke:rgb(0%,0%,100%);stroke-opacity:1;stroke-miterlimit:10;" d="M 272 223.998969 L 265 226.331 L 265 221.670844 Z M 272 223.998969 " transform="matrix(1,0,0,-1,-61.5,323.331)"/>
<path style="fill:none;stroke-width:2;stroke-linecap:butt;stroke-linejoin:miter;stroke:rgb(0%,0%,100%);stroke-opacity:1;stroke-miterlimit:10;" d="M 288 223.998969 L 304 223.998969 " transform="matrix(1,0,0,-1,-61.5,323.331)"/>
<path style="fill-rule:evenodd;fill:rgb(0%,0%,100%);fill-opacity:1;stroke-width:2;stroke-linecap:butt;stroke-linejoin:miter;stroke:rgb(0%,0%,100%);stroke-opacity:1;stroke-miterlimit:10;" d="M 304 223.998969 L 297 226.331 L 297 221.670844 Z M 304 223.998969 " transform="matrix(1,0,0,-1,-61.5,323.331)"/>
<path style="fill:none;stroke-width:2;stroke-linecap:butt;stroke-linejoin:miter;stroke:rgb(0%,0%,100%);stroke-opacity:1;stroke-miterlimit:10;" d="M 320 223.998969 L 336 223.998969 " transform="matrix(1,0,0,-1,-61.5,323.331)"/>
<path style="fill-rule:evenodd;fill:rgb(0%,0%,100%);fill-opacity:1;stroke-width:2;stroke-linecap:butt;stroke-linejoin:miter;stroke:rgb(0%,0%,100%);stroke-opacity:1;stroke-miterlimit:10;" d="M 336 223.998969 L 329 226.331 L 329 221.670844 Z M 336 223.998969 " transform="matrix(1,0,0,-1,-61.5,323.331)"/>
<path style="fill:none;stroke-width:2;stroke-linecap:butt;stroke-linejoin:miter;stroke:rgb(0%,0%,100%);stroke-opacity:1;stroke-miterlimit:10;" d="M 352 223.998969 L 368 223.998969 " transform="matrix(1,0,0,-1,-61.5,323.331)"/>
<path style="fill-rule:evenodd;fill:rgb(0%,0%,100%);fill-opacity:1;stroke-width:2;stroke-linecap:butt;stroke-linejoin:miter;stroke:rgb(0%,0%,100%);stroke-opacity:1;stroke-miterlimit:10;" d="M 368 223.998969 L 361 226.331 L 361 221.670844 Z M 368 223.998969 " transform="matrix(1,0,0,-1,-61.5,323.331)"/>
<path style="fill:none;stroke-width:2;stroke-linecap:butt;stroke-linejoin:miter;stroke:rgb(0%,0%,100%);stroke-opacity:1;stroke-miterlimit:10;" d="M 384 223.998969 L 400 223.998969 " transform="matrix(1,0,0,-1,-61.5,323.331)"/>
<path style="fill-rule:evenodd;fill:rgb(0%,0%,100%);fill-opacity:1;stroke-width:2;stroke-linecap:butt;stroke-linejoin:miter;stroke:rgb(0%,0%,100%);stroke-opacity:1;stroke-miterlimit:10;" d="M 400 223.998969 L 393 226.331 L 393 221.670844 Z M 400 223.998969 " transform="matrix(1,0,0,-1,-61.5,323.331)"/>
<path style="fill:none;stroke-width:2;stroke-linecap:butt;stroke-linejoin:miter;stroke:rgb(0%,0%,100%);stroke-opacity:1;stroke-miterlimit:10;" d="M 416 223.998969 L 432 223.998969 " transform="matrix(1,0,0,-1,-61.5,323.331)"/>
<path style="fill-rule:evenodd;fill:rgb(0%,0%,100%);fill-opacity:1;stroke-width:2;stroke-linecap:butt;stroke-linejoin:miter;stroke:rgb(0%,0%,100%);stroke-opacity:1;stroke-miterlimit:10;" d="M 432 223.998969 L 425 226.331 L 425 221.670844 Z M 432 223.998969 " transform="matrix(1,0,0,-1,-61.5,323.331)"/>
<path style="fill:none;stroke-width:2;stroke-linecap:butt;stroke-linejoin:miter;stroke:rgb(0%,0%,100%);stroke-opacity:1;stroke-miterlimit:10;" d="M 64 255.998969 L 96 255.998969 " transform="matrix(1,0,0,-1,-61.5,323.331)"/>
<path style="fill-rule:evenodd;fill:rgb(0%,0%,100%);fill-opacity:1;stroke-width:2;stroke-linecap:butt;stroke-linejoin:miter;stroke:rgb(0%,0%,100%);stroke-opacity:1;stroke-miterlimit:10;" d="M 96 255.998969 L 89 258.331 L 89 253.670844 Z M 96 255.998969 " transform="matrix(1,0,0,-1,-61.5,323.331)"/>
<path style="fill:none;stroke-width:2;stroke-linecap:butt;stroke-linejoin:miter;stroke:rgb(0%,0%,100%);stroke-opacity:1;stroke-miterlimit:10;" d="M 112 255.998969 L 144 255.998969 " transform="matrix(1,0,0,-1,-61.5,323.331)"/>
<path style="fill-rule:evenodd;fill:rgb(0%,0%,100%);fill-opacity:1;stroke-width:2;stroke-linecap:butt;stroke-linejoin:miter;stroke:rgb(0%,0%,100%);stroke-opacity:1;stroke-miterlimit:10;" d="M 144 255.998969 L 137 258.331 L 137 253.670844 Z M 144 255.998969 " transform="matrix(1,0,0,-1,-61.5,323.331)"/>
<path style="fill:none;stroke-width:2;stroke-linecap:butt;stroke-linejoin:miter;stroke:rgb(0%,0%,100%);stroke-opacity:1;stroke-miterlimit:10;" d="M 160 255.998969 L 192 255.998969 " transform="matrix(1,0,0,-1,-61.5,323.331)"/>
<path style="fill-rule:evenodd;fill:rgb(0%,0%,100%);fill-opacity:1;stroke-width:2;stroke-linecap:butt;stroke-linejoin:miter;stroke:rgb(0%,0%,100%);stroke-opacity:1;stroke-miterlimit:10;" d="M 192 255.998969 L 185 258.331 L 185 253.670844 Z M 192 255.998969 " transform="matrix(1,0,0,-1,-61.5,323.331)"/>
<path style="fill:none;stroke-width:2;stroke-linecap:butt;stroke-linejoin:miter;stroke:rgb(0%,0%,100%);stroke-opacity:1;stroke-miterlimit:10;" d="M 208 255.998969 L 240 255.998969 " transform="matrix(1,0,0,-1,-61.5,323.331)"/>
<path style="fill-rule:evenodd;fill:rgb(0%,0%,100%);fill-opacity:1;stroke-width:2;stroke-linecap:butt;stroke-linejoin:miter;stroke:rgb(0%,0%,100%);stroke-opacity:1;stroke-miterlimit:10;" d="M 240 255.998969 L 233 258.331 L 233 253.670844 Z M 240 255.998969 " transform="matrix(1,0,0,-1,-61.5,323.331)"/>
<path style="fill:none;stroke-width:2;stroke-linecap:butt;stroke-linejoin:miter;stroke:rgb(0%,0%,100%);stroke-opacity:1;stroke-miterlimit:10;" d="M 256 255.998969 L 288 255.998969 " transform="matrix(1,0,0,-1,-61.5,323.331)"/>
<path style="fill-rule:evenodd;fill:rgb(0%,0%,100%);fill-opacity:1;stroke-width:2;stroke-linecap:butt;stroke-linejoin:miter;stroke:rgb(0%,0%,100%);stroke-opacity:1;stroke-miterlimit:10;" d="M 288 255.998969 L 281 258.331 L 281 253.670844 Z M 288 255.998969 " transform="matrix(1,0,0,-1,-61.5,323.331)"/>
<path style="fill:none;stroke-width:2;stroke-linecap:butt;stroke-linejoin:miter;stroke:rgb(0%,0%,100%);stroke-opacity:1;stroke-miterlimit:10;" d="M 304 255.998969 L 336 255.998969 " transform="matrix(1,0,0,-1,-61.5,323.331)"/>
<path style="fill-rule:evenodd;fill:rgb(0%,0%,100%);fill-opacity:1;stroke-width:2;stroke-linecap:butt;stroke-linejoin:miter;stroke:rgb(0%,0%,100%);stroke-opacity:1;stroke-miterlimit:10;" d="M 336 255.998969 L 329 258.331 L 329 253.670844 Z M 336 255.998969 " transform="matrix(1,0,0,-1,-61.5,323.331)"/>
<path style="fill:none;stroke-width:2;stroke-linecap:butt;stroke-linejoin:miter;stroke:rgb(0%,0%,100%);stroke-opacity:1;stroke-miterlimit:10;" d="M 352 255.998969 L 384 255.998969 " transform="matrix(1,0,0,-1,-61.5,323.331)"/>
<path style="fill-rule:evenodd;fill:rgb(0%,0%,100%);fill-opacity:1;stroke-width:2;stroke-linecap:butt;stroke-linejoin:miter;stroke:rgb(0%,0%,100%);stroke-opacity:1;stroke-miterlimit:10;" d="M 384 255.998969 L 377 258.331 L 377 253.670844 Z M 384 255.998969 " transform="matrix(1,0,0,-1,-61.5,323.331)"/>
<path style="fill:none;stroke-width:2;stroke-linecap:butt;stroke-linejoin:miter;stroke:rgb(0%,0%,100%);stroke-opacity:1;stroke-miterlimit:10;" d="M 400 255.998969 L 432 255.998969 " transform="matrix(1,0,0,-1,-61.5,323.331)"/>
<path style="fill-rule:evenodd;fill:rgb(0%,0%,100%);fill-opacity:1;stroke-width:2;stroke-linecap:butt;stroke-linejoin:miter;stroke:rgb(0%,0%,100%);stroke-opacity:1;stroke-miterlimit:10;" d="M 432 255.998969 L 425 258.331 L 425 253.670844 Z M 432 255.998969 " transform="matrix(1,0,0,-1,-61.5,323.331)"/>
<path style="fill:none;stroke-width:2;stroke-linecap:butt;stroke-linejoin:miter;stroke:rgb(0%,0%,100%);stroke-opacity:1;stroke-miterlimit:10;" d="M 64 287.998969 L 112 287.998969 " transform="matrix(1,0,0,-1,-61.5,323.331)"/>
<path style="fill-rule:evenodd;fill:rgb(0%,0%,100%);fill-opacity:1;stroke-width:2;stroke-linecap:butt;stroke-linejoin:miter;stroke:rgb(0%,0%,100%);stroke-opacity:1;stroke-miterlimit:10;" d="M 112 287.998969 L 105 290.331 L 105 285.670844 Z M 112 287.998969 " transform="matrix(1,0,0,-1,-61.5,323.331)"/>
<path style="fill:none;stroke-width:2;stroke-linecap:butt;stroke-linejoin:miter;stroke:rgb(0%,0%,100%);stroke-opacity:1;stroke-miterlimit:10;" d="M 128 287.998969 L 176 287.998969 " transform="matrix(1,0,0,-1,-61.5,323.331)"/>
<path style="fill-rule:evenodd;fill:rgb(0%,0%,100%);fill-opacity:1;stroke-width:2;stroke-linecap:butt;stroke-linejoin:miter;stroke:rgb(0%,0%,100%);stroke-opacity:1;stroke-miterlimit:10;" d="M 176 287.998969 L 169 290.331 L 169 285.670844 Z M 176 287.998969 " transform="matrix(1,0,0,-1,-61.5,323.331)"/>
<path style="fill:none;stroke-width:2;stroke-linecap:butt;stroke-linejoin:miter;stroke:rgb(0%,0%,100%);stroke-opacity:1;stroke-miterlimit:10;" d="M 192 287.998969 L 240 287.998969 " transform="matrix(1,0,0,-1,-61.5,323.331)"/>
<path style="fill-rule:evenodd;fill:rgb(0%,0%,100%);fill-opacity:1;stroke-width:2;stroke-linecap:butt;stroke-linejoin:miter;stroke:rgb(0%,0%,100%);stroke-opacity:1;stroke-miterlimit:10;" d="M 240 287.998969 L 233 290.331 L 233 285.670844 Z M 240 287.998969 " transform="matrix(1,0,0,-1,-61.5,323.331)"/>
<path style="fill:none;stroke-width:2;stroke-linecap:butt;stroke-linejoin:miter;stroke:rgb(0%,0%,100%);stroke-opacity:1;stroke-miterlimit:10;" d="M 256 287.998969 L 304 287.998969 " transform="matrix(1,0,0,-1,-61.5,323.331)"/>
<path style="fill-rule:evenodd;fill:rgb(0%,0%,100%);fill-opacity:1;stroke-width:2;stroke-linecap:butt;stroke-linejoin:miter;stroke:rgb(0%,0%,100%);stroke-opacity:1;stroke-miterlimit:10;" d="M 304 287.998969 L 297 290.331 L 297 285.670844 Z M 304 287.998969 " transform="matrix(1,0,0,-1,-61.5,323.331)"/>
<path style="fill:none;stroke-width:2;stroke-linecap:butt;stroke-linejoin:miter;stroke:rgb(0%,0%,100%);stroke-opacity:1;stroke-miterlimit:10;" d="M 320 287.998969 L 368 287.998969 " transform="matrix(1,0,0,-1,-61.5,323.331)"/>
<path style="fill-rule:evenodd;fill:rgb(0%,0%,100%);fill-opacity:1;stroke-width:2;stroke-linecap:butt;stroke-linejoin:miter;stroke:rgb(0%,0%,100%);stroke-opacity:1;stroke-miterlimit:10;" d="M 368 287.998969 L 361 290.331 L 361 285.670844 Z M 368 287.998969 " transform="matrix(1,0,0,-1,-61.5,323.331)"/>
<path style="fill:none;stroke-width:2;stroke-linecap:butt;stroke-linejoin:miter;stroke:rgb(0%,0%,100%);stroke-opacity:1;stroke-miterlimit:10;" d="M 384 287.998969 L 432 287.998969 " transform="matrix(1,0,0,-1,-61.5,323.331)"/>
<path style="fill-rule:evenodd;fill:rgb(0%,0%,100%);fill-opacity:1;stroke-width:2;stroke-linecap:butt;stroke-linejoin:miter;stroke:rgb(0%,0%,100%);stroke-opacity:1;stroke-miterlimit:10;" d="M 432 287.998969 L 425 290.331 L 425 285.670844 Z M 432 287.998969 " transform="matrix(1,0,0,-1,-61.5,323.331)"/>
<path style="fill:none;stroke-width:2;stroke-linecap:butt;stroke-linejoin:miter;stroke:rgb(0%,0%,100%);stroke-opacity:1;stroke-miterlimit:10;" d="M 64 319.998969 L 128 319.998969 " transform="matrix(1,0,0,-1,-61.5,323.331)"/>
<path style="fill-rule:evenodd;fill:rgb(0%,0%,100%);fill-opacity:1;stroke-width:2;stroke-linecap:butt;stroke-linejoin:miter;stroke:rgb(0%,0%,100%);stroke-opacity:1;stroke-miterlimit:10;" d="M 128 319.998969 L 121 322.331 L 121 317.670844 Z M 128 319.998969 " transform="matrix(1,0,0,-1,-61.5,323.331)"/>
<path style="fill:none;stroke-width:2;stroke-linecap:butt;stroke-linejoin:miter;stroke:rgb(0%,0%,100%);stroke-opacity:1;stroke-miterlimit:10;" d="M 160 319.998969 L 224 319.998969 " transform="matrix(1,0,0,-1,-61.5,323.331)"/>
<path style="fill-rule:evenodd;fill:rgb(0%,0%,100%);fill-opacity:1;stroke-width:2;stroke-linecap:butt;stroke-linejoin:miter;stroke:rgb(0%,0%,100%);stroke-opacity:1;stroke-miterlimit:10;" d="M 224 319.998969 L 217 322.331 L 217 317.670844 Z M 224 319.998969 " transform="matrix(1,0,0,-1,-61.5,323.331)"/>
<path style="fill:none;stroke-width:2;stroke-linecap:butt;stroke-linejoin:miter;stroke:rgb(0%,0%,100%);stroke-opacity:1;stroke-miterlimit:10;" d="M 272 319.998969 L 336 319.998969 " transform="matrix(1,0,0,-1,-61.5,323.331)"/>
<path style="fill-rule:evenodd;fill:rgb(0%,0%,100%);fill-opacity:1;stroke-width:2;stroke-linecap:butt;stroke-linejoin:miter;stroke:rgb(0%,0%,100%);stroke-opacity:1;stroke-miterlimit:10;" d="M 336 319.998969 L 329 322.331 L 329 317.670844 Z M 336 319.998969 " transform="matrix(1,0,0,-1,-61.5,323.331)"/>
<path style="fill:none;stroke-width:2;stroke-linecap:butt;stroke-linejoin:miter;stroke:rgb(0%,0%,100%);stroke-opacity:1;stroke-miterlimit:10;" d="M 368 319.998969 L 432 319.998969 " transform="matrix(1,0,0,-1,-61.5,323.331)"/>
<path style="fill-rule:evenodd;fill:rgb(0%,0%,100%);fill-opacity:1;stroke-width:2;stroke-linecap:butt;stroke-linejoin:miter;stroke:rgb(0%,0%,100%);stroke-opacity:1;stroke-miterlimit:10;" d="M 432 319.998969 L 425 322.331 L 425 317.670844 Z M 432 319.998969 " transform="matrix(1,0,0,-1,-61.5,323.331)"/>
<path style="fill:none;stroke-width:3;stroke-linecap:butt;stroke-linejoin:miter;stroke:rgb(0%,0%,0%);stroke-opacity:1;stroke-miterlimit:10;" d="M 380.460938 287.936469 C 384.765625 280.491156 396.675781 272.881781 406.765625 277.182562 C 416.855469 281.483344 425.128906 297.694281 420.824219 305.139594 C 416.523438 312.584906 399.652344 311.260687 389.5625 306.959906 C 379.46875 302.659125 376.160156 295.381781 380.460938 287.936469 Z M 380.460938 287.936469 " transform="matrix(1,0,0,-1,-61.5,323.331)"/>
<path style="fill:none;stroke-width:3;stroke-linecap:butt;stroke-linejoin:miter;stroke:rgb(0%,0%,0%);stroke-opacity:1;stroke-miterlimit:10;" d="M 380.648438 287.620062 C 380.648438 287.620062 380.648438 287.620062 380.945312 287.209906 C 381.238281 286.795844 381.828125 285.971625 382.65625 285.030219 C 383.480469 284.088812 384.535156 283.022406 385.652344 282.069281 C 386.769531 281.11225 387.941406 280.2685 389.472656 279.413031 C 391.007812 278.557562 392.902344 277.698187 393.847656 277.2685 C 394.792969 276.834906 394.792969 276.834906 394.792969 276.834906 " transform="matrix(1,0,0,-1,-61.5,323.331)"/>
<path style="fill-rule:evenodd;fill:rgb(0%,0%,0%);fill-opacity:1;stroke-width:3;stroke-linecap:butt;stroke-linejoin:miter;stroke:rgb(0%,0%,0%);stroke-opacity:1;stroke-miterlimit:10;" d="M 394.792969 276.834906 L 389.386719 281.858344 L 387.457031 277.61225 Z M 394.792969 276.834906 " transform="matrix(1,0,0,-1,-61.5,323.331)"/>
<path style="fill:none;stroke-width:3;stroke-linecap:round;stroke-linejoin:miter;stroke:rgb(0%,0%,0%);stroke-opacity:1;stroke-miterlimit:10;" d="M 96 191.998969 C 96 191.998969 96 191.998969 99.832031 197.998969 C 103.667969 203.998969 111.335938 215.995062 119.667969 225.995062 C 128.003906 235.995062 137.003906 243.995062 147.835938 251.327094 C 158.667969 258.663031 171.335938 265.327094 187.167969 269.827094 C 203.003906 274.327094 222 276.663031 240.5 277.995062 C 259 279.327094 277 279.663031 293.5 278.327094 C 310 276.995062 325 273.995062 338.164062 266.663031 C 351.332031 259.327094 362.664062 247.663031 371.15625 237.2685 C 379.648438 226.873969 385.296875 217.752875 388.121094 213.190375 C 390.945312 208.631781 390.945312 208.631781 390.945312 208.631781 " transform="matrix(1,0,0,-1,-61.5,323.331)"/>
<path style="fill-rule:evenodd;fill:rgb(0%,0%,0%);fill-opacity:1;stroke-width:3;stroke-linecap:round;stroke-linejoin:miter;stroke:rgb(0%,0%,0%);stroke-opacity:1;stroke-miterlimit:10;" d="M 390.945312 208.631781 L 389.242188 215.811469 L 385.277344 213.354437 Z M 390.945312 208.631781 " transform="matrix(1,0,0,-1,-61.5,323.331)"/>
<path style="fill:none;stroke-width:3;stroke-linecap:round;stroke-linejoin:miter;stroke:rgb(0%,0%,0%);stroke-opacity:1;stroke-miterlimit:10;" d="M 96 191.998969 C 96 191.998969 96 191.998969 102.335938 196.498969 C 108.667969 200.998969 121.335938 209.995062 136.335938 217.163031 C 151.335938 224.327094 168.667969 229.663031 185.667969 233.327094 C 202.667969 236.995062 219.335938 238.995062 237.167969 239.663031 C 255 240.327094 274 239.663031 293 236.995062 C 312 234.327094 331 229.663031 344.5 224.663031 C 358 219.663031 366 214.327094 371.695312 210.526312 C 377.390625 206.729437 380.785156 204.459906 382.484375 203.323187 C 384.179688 202.190375 384.179688 202.190375 384.179688 202.190375 " transform="matrix(1,0,0,-1,-61.5,323.331)"/>
<path style="fill-rule:evenodd;fill:rgb(0%,0%,0%);fill-opacity:1;stroke-width:3;stroke-linecap:round;stroke-linejoin:miter;stroke:rgb(0%,0%,0%);stroke-opacity:1;stroke-miterlimit:10;" d="M 384.179688 202.190375 L 379.65625 208.0185 L 377.0625 204.1435 Z M 384.179688 202.190375 " transform="matrix(1,0,0,-1,-61.5,323.331)"/>
<path style="fill:none;stroke-width:3;stroke-linecap:round;stroke-linejoin:miter;stroke:rgb(0%,0%,0%);stroke-opacity:1;stroke-miterlimit:10;" d="M 96 191.998969 C 96 191.998969 96 191.998969 106.667969 193.334906 C 117.335938 194.666937 138.667969 197.331 158.835938 198.831 C 179.003906 200.327094 198 200.663031 222 200.995062 C 246 201.327094 275 201.663031 300.832031 200.995062 C 326.664062 200.327094 349.332031 198.663031 362.453125 197.530219 C 375.578125 196.397406 379.15625 195.79975 380.945312 195.498969 C 382.734375 195.198187 382.734375 195.198187 382.734375 195.198187 " transform="matrix(1,0,0,-1,-61.5,323.331)"/>
<path style="fill-rule:evenodd;fill:rgb(0%,0%,0%);fill-opacity:1;stroke-width:3;stroke-linecap:round;stroke-linejoin:miter;stroke:rgb(0%,0%,0%);stroke-opacity:1;stroke-miterlimit:10;" d="M 382.734375 195.198187 L 376.214844 198.655219 L 375.445312 194.057562 Z M 382.734375 195.198187 " transform="matrix(1,0,0,-1,-61.5,323.331)"/>
<path style="fill:none;stroke-width:3;stroke-linecap:round;stroke-linejoin:miter;stroke:rgb(0%,0%,0%);stroke-opacity:1;stroke-miterlimit:10;" d="M 96 191.998969 C 96 191.998969 96 191.998969 105.5 188.498969 C 115 184.998969 134 177.995062 159.667969 173.663031 C 185.335938 169.327094 217.667969 167.663031 243.335938 168.163031 C 269 168.663031 288 171.327094 310.296875 175.155219 C 332.59375 178.983344 358.183594 183.971625 370.980469 186.463812 C 383.777344 188.959906 383.777344 188.959906 383.777344 188.959906 " transform="matrix(1,0,0,-1,-61.5,323.331)"/>
<path style="fill-rule:evenodd;fill:rgb(0%,0%,0%);fill-opacity:1;stroke-width:3;stroke-linecap:round;stroke-linejoin:miter;stroke:rgb(0%,0%,0%);stroke-opacity:1;stroke-miterlimit:10;" d="M 383.777344 188.959906 L 376.460938 189.905219 L 377.351562 185.331 Z M 383.777344 188.959906 " transform="matrix(1,0,0,-1,-61.5,323.331)"/>
<path style="fill:none;stroke-width:3;stroke-linecap:round;stroke-linejoin:miter;stroke:rgb(0%,0%,0%);stroke-opacity:1;stroke-miterlimit:10;" d="M 96 191.998969 C 96 191.998969 96 191.998969 106 182.166937 C 116 172.331 136 152.666937 157.835938 140.663031 C 179.667969 128.663031 203.335938 124.331 226 123.163031 C 248.667969 121.995062 270.335938 123.995062 290.667969 128.995062 C 311 133.995062 330 141.995062 345.859375 151.303656 C 361.71875 160.61225 374.433594 171.229437 380.792969 176.538031 C 387.152344 181.846625 387.152344 181.846625 387.152344 181.846625 " transform="matrix(1,0,0,-1,-61.5,323.331)"/>
<path style="fill-rule:evenodd;fill:rgb(0%,0%,0%);fill-opacity:1;stroke-width:3;stroke-linecap:round;stroke-linejoin:miter;stroke:rgb(0%,0%,0%);stroke-opacity:1;stroke-miterlimit:10;" d="M 387.152344 181.846625 L 380.285156 179.151312 L 383.273438 175.573187 Z M 387.152344 181.846625 " transform="matrix(1,0,0,-1,-61.5,323.331)"/>
<path style=" stroke:none;fill-rule:evenodd;fill:rgb(0%,0%,100%);fill-opacity:1;" d="M 4 131.332031 C 4 130.503906 3.328125 129.832031 2.5 129.832031 C 1.671875 129.832031 1 130.503906 1 131.332031 C 1 132.160156 1.671875 132.832031 2.5 132.832031 C 3.328125 132.832031 4 132.160156 4 131.332031 "/>
<path style=" stroke:none;fill-rule:evenodd;fill:rgb(0%,0%,100%);fill-opacity:1;" d="M 4.300781 131.332031 C 4.300781 130.335938 3.492188 129.53125 2.5 129.53125 C 1.507812 129.53125 0.699219 130.335938 0.699219 131.332031 C 0.699219 132.324219 1.507812 133.132812 2.5 133.132812 C 3.492188 133.132812 4.300781 132.324219 4.300781 131.332031 M 3.699219 131.332031 C 3.699219 130.667969 3.164062 130.132812 2.5 130.132812 C 1.835938 130.132812 1.300781 130.667969 1.300781 131.332031 C 1.300781 131.992188 1.835938 132.53125 2.5 132.53125 C 3.164062 132.53125 3.699219 131.992188 3.699219 131.332031 "/>
<path style=" stroke:none;fill-rule:evenodd;fill:rgb(0%,0%,100%);fill-opacity:1;" d="M 20 131.332031 C 20 130.503906 19.328125 129.832031 18.5 129.832031 C 17.671875 129.832031 17 130.503906 17 131.332031 C 17 132.160156 17.671875 132.832031 18.5 132.832031 C 19.328125 132.832031 20 132.160156 20 131.332031 "/>
<path style=" stroke:none;fill-rule:evenodd;fill:rgb(0%,0%,100%);fill-opacity:1;" d="M 20.300781 131.332031 C 20.300781 130.335938 19.492188 129.53125 18.5 129.53125 C 17.507812 129.53125 16.699219 130.335938 16.699219 131.332031 C 16.699219 132.324219 17.507812 133.132812 18.5 133.132812 C 19.492188 133.132812 20.300781 132.324219 20.300781 131.332031 M 19.699219 131.332031 C 19.699219 130.667969 19.164062 130.132812 18.5 130.132812 C 17.835938 130.132812 17.300781 130.667969 17.300781 131.332031 C 17.300781 131.992188 17.835938 132.53125 18.5 132.53125 C 19.164062 132.53125 19.699219 131.992188 19.699219 131.332031 "/>
<path style=" stroke:none;fill-rule:evenodd;fill:rgb(0%,0%,100%);fill-opacity:1;" d="M 52 131.332031 C 52 130.503906 51.328125 129.832031 50.5 129.832031 C 49.671875 129.832031 49 130.503906 49 131.332031 C 49 132.160156 49.671875 132.832031 50.5 132.832031 C 51.328125 132.832031 52 132.160156 52 131.332031 "/>
<path style=" stroke:none;fill-rule:evenodd;fill:rgb(0%,0%,100%);fill-opacity:1;" d="M 52.300781 131.332031 C 52.300781 130.335938 51.492188 129.53125 50.5 129.53125 C 49.507812 129.53125 48.699219 130.335938 48.699219 131.332031 C 48.699219 132.324219 49.507812 133.132812 50.5 133.132812 C 51.492188 133.132812 52.300781 132.324219 52.300781 131.332031 M 51.699219 131.332031 C 51.699219 130.667969 51.164062 130.132812 50.5 130.132812 C 49.835938 130.132812 49.300781 130.667969 49.300781 131.332031 C 49.300781 131.992188 49.835938 132.53125 50.5 132.53125 C 51.164062 132.53125 51.699219 131.992188 51.699219 131.332031 "/>
<path style=" stroke:none;fill-rule:evenodd;fill:rgb(0%,0%,100%);fill-opacity:1;" d="M 68 131.332031 C 68 130.503906 67.328125 129.832031 66.5 129.832031 C 65.671875 129.832031 65 130.503906 65 131.332031 C 65 132.160156 65.671875 132.832031 66.5 132.832031 C 67.328125 132.832031 68 132.160156 68 131.332031 "/>
<path style=" stroke:none;fill-rule:evenodd;fill:rgb(0%,0%,100%);fill-opacity:1;" d="M 68.300781 131.332031 C 68.300781 130.335938 67.492188 129.53125 66.5 129.53125 C 65.507812 129.53125 64.699219 130.335938 64.699219 131.332031 C 64.699219 132.324219 65.507812 133.132812 66.5 133.132812 C 67.492188 133.132812 68.300781 132.324219 68.300781 131.332031 M 67.699219 131.332031 C 67.699219 130.667969 67.164062 130.132812 66.5 130.132812 C 65.835938 130.132812 65.300781 130.667969 65.300781 131.332031 C 65.300781 131.992188 65.835938 132.53125 66.5 132.53125 C 67.164062 132.53125 67.699219 131.992188 67.699219 131.332031 "/>
<path style=" stroke:none;fill-rule:evenodd;fill:rgb(0%,0%,100%);fill-opacity:1;" d="M 84 131.332031 C 84 130.503906 83.328125 129.832031 82.5 129.832031 C 81.671875 129.832031 81 130.503906 81 131.332031 C 81 132.160156 81.671875 132.832031 82.5 132.832031 C 83.328125 132.832031 84 132.160156 84 131.332031 "/>
<path style=" stroke:none;fill-rule:evenodd;fill:rgb(0%,0%,100%);fill-opacity:1;" d="M 84.300781 131.332031 C 84.300781 130.335938 83.492188 129.53125 82.5 129.53125 C 81.507812 129.53125 80.699219 130.335938 80.699219 131.332031 C 80.699219 132.324219 81.507812 133.132812 82.5 133.132812 C 83.492188 133.132812 84.300781 132.324219 84.300781 131.332031 M 83.699219 131.332031 C 83.699219 130.667969 83.164062 130.132812 82.5 130.132812 C 81.835938 130.132812 81.300781 130.667969 81.300781 131.332031 C 81.300781 131.992188 81.835938 132.53125 82.5 132.53125 C 83.164062 132.53125 83.699219 131.992188 83.699219 131.332031 "/>
<path style=" stroke:none;fill-rule:evenodd;fill:rgb(0%,0%,100%);fill-opacity:1;" d="M 100 131.332031 C 100 130.503906 99.328125 129.832031 98.5 129.832031 C 97.671875 129.832031 97 130.503906 97 131.332031 C 97 132.160156 97.671875 132.832031 98.5 132.832031 C 99.328125 132.832031 100 132.160156 100 131.332031 "/>
<path style=" stroke:none;fill-rule:evenodd;fill:rgb(0%,0%,100%);fill-opacity:1;" d="M 100.300781 131.332031 C 100.300781 130.335938 99.492188 129.53125 98.5 129.53125 C 97.507812 129.53125 96.699219 130.335938 96.699219 131.332031 C 96.699219 132.324219 97.507812 133.132812 98.5 133.132812 C 99.492188 133.132812 100.300781 132.324219 100.300781 131.332031 M 99.699219 131.332031 C 99.699219 130.667969 99.164062 130.132812 98.5 130.132812 C 97.835938 130.132812 97.300781 130.667969 97.300781 131.332031 C 97.300781 131.992188 97.835938 132.53125 98.5 132.53125 C 99.164062 132.53125 99.699219 131.992188 99.699219 131.332031 "/>
<path style=" stroke:none;fill-rule:evenodd;fill:rgb(0%,0%,100%);fill-opacity:1;" d="M 116 131.332031 C 116 130.503906 115.328125 129.832031 114.5 129.832031 C 113.671875 129.832031 113 130.503906 113 131.332031 C 113 132.160156 113.671875 132.832031 114.5 132.832031 C 115.328125 132.832031 116 132.160156 116 131.332031 "/>
<path style=" stroke:none;fill-rule:evenodd;fill:rgb(0%,0%,100%);fill-opacity:1;" d="M 116.300781 131.332031 C 116.300781 130.335938 115.492188 129.53125 114.5 129.53125 C 113.507812 129.53125 112.699219 130.335938 112.699219 131.332031 C 112.699219 132.324219 113.507812 133.132812 114.5 133.132812 C 115.492188 133.132812 116.300781 132.324219 116.300781 131.332031 M 115.699219 131.332031 C 115.699219 130.667969 115.164062 130.132812 114.5 130.132812 C 113.835938 130.132812 113.300781 130.667969 113.300781 131.332031 C 113.300781 131.992188 113.835938 132.53125 114.5 132.53125 C 115.164062 132.53125 115.699219 131.992188 115.699219 131.332031 "/>
<path style=" stroke:none;fill-rule:evenodd;fill:rgb(0%,0%,100%);fill-opacity:1;" d="M 132 131.332031 C 132 130.503906 131.328125 129.832031 130.5 129.832031 C 129.671875 129.832031 129 130.503906 129 131.332031 C 129 132.160156 129.671875 132.832031 130.5 132.832031 C 131.328125 132.832031 132 132.160156 132 131.332031 "/>
<path style=" stroke:none;fill-rule:evenodd;fill:rgb(0%,0%,100%);fill-opacity:1;" d="M 132.300781 131.332031 C 132.300781 130.335938 131.492188 129.53125 130.5 129.53125 C 129.507812 129.53125 128.699219 130.335938 128.699219 131.332031 C 128.699219 132.324219 129.507812 133.132812 130.5 133.132812 C 131.492188 133.132812 132.300781 132.324219 132.300781 131.332031 M 131.699219 131.332031 C 131.699219 130.667969 131.164062 130.132812 130.5 130.132812 C 129.835938 130.132812 129.300781 130.667969 129.300781 131.332031 C 129.300781 131.992188 129.835938 132.53125 130.5 132.53125 C 131.164062 132.53125 131.699219 131.992188 131.699219 131.332031 "/>
<path style=" stroke:none;fill-rule:evenodd;fill:rgb(0%,0%,100%);fill-opacity:1;" d="M 148 131.332031 C 148 130.503906 147.328125 129.832031 146.5 129.832031 C 145.671875 129.832031 145 130.503906 145 131.332031 C 145 132.160156 145.671875 132.832031 146.5 132.832031 C 147.328125 132.832031 148 132.160156 148 131.332031 "/>
<path style=" stroke:none;fill-rule:evenodd;fill:rgb(0%,0%,100%);fill-opacity:1;" d="M 148.300781 131.332031 C 148.300781 130.335938 147.492188 129.53125 146.5 129.53125 C 145.507812 129.53125 144.699219 130.335938 144.699219 131.332031 C 144.699219 132.324219 145.507812 133.132812 146.5 133.132812 C 147.492188 133.132812 148.300781 132.324219 148.300781 131.332031 M 147.699219 131.332031 C 147.699219 130.667969 147.164062 130.132812 146.5 130.132812 C 145.835938 130.132812 145.300781 130.667969 145.300781 131.332031 C 145.300781 131.992188 145.835938 132.53125 146.5 132.53125 C 147.164062 132.53125 147.699219 131.992188 147.699219 131.332031 "/>
<path style=" stroke:none;fill-rule:evenodd;fill:rgb(0%,0%,100%);fill-opacity:1;" d="M 164 131.332031 C 164 130.503906 163.328125 129.832031 162.5 129.832031 C 161.671875 129.832031 161 130.503906 161 131.332031 C 161 132.160156 161.671875 132.832031 162.5 132.832031 C 163.328125 132.832031 164 132.160156 164 131.332031 "/>
<path style=" stroke:none;fill-rule:evenodd;fill:rgb(0%,0%,100%);fill-opacity:1;" d="M 164.300781 131.332031 C 164.300781 130.335938 163.492188 129.53125 162.5 129.53125 C 161.507812 129.53125 160.699219 130.335938 160.699219 131.332031 C 160.699219 132.324219 161.507812 133.132812 162.5 133.132812 C 163.492188 133.132812 164.300781 132.324219 164.300781 131.332031 M 163.699219 131.332031 C 163.699219 130.667969 163.164062 130.132812 162.5 130.132812 C 161.835938 130.132812 161.300781 130.667969 161.300781 131.332031 C 161.300781 131.992188 161.835938 132.53125 162.5 132.53125 C 163.164062 132.53125 163.699219 131.992188 163.699219 131.332031 "/>
<path style=" stroke:none;fill-rule:evenodd;fill:rgb(0%,0%,100%);fill-opacity:1;" d="M 180 131.332031 C 180 130.503906 179.328125 129.832031 178.5 129.832031 C 177.671875 129.832031 177 130.503906 177 131.332031 C 177 132.160156 177.671875 132.832031 178.5 132.832031 C 179.328125 132.832031 180 132.160156 180 131.332031 "/>
<path style=" stroke:none;fill-rule:evenodd;fill:rgb(0%,0%,100%);fill-opacity:1;" d="M 180.300781 131.332031 C 180.300781 130.335938 179.492188 129.53125 178.5 129.53125 C 177.507812 129.53125 176.699219 130.335938 176.699219 131.332031 C 176.699219 132.324219 177.507812 133.132812 178.5 133.132812 C 179.492188 133.132812 180.300781 132.324219 180.300781 131.332031 M 179.699219 131.332031 C 179.699219 130.667969 179.164062 130.132812 178.5 130.132812 C 177.835938 130.132812 177.300781 130.667969 177.300781 131.332031 C 177.300781 131.992188 177.835938 132.53125 178.5 132.53125 C 179.164062 132.53125 179.699219 131.992188 179.699219 131.332031 "/>
<path style=" stroke:none;fill-rule:evenodd;fill:rgb(0%,0%,100%);fill-opacity:1;" d="M 196 131.332031 C 196 130.503906 195.328125 129.832031 194.5 129.832031 C 193.671875 129.832031 193 130.503906 193 131.332031 C 193 132.160156 193.671875 132.832031 194.5 132.832031 C 195.328125 132.832031 196 132.160156 196 131.332031 "/>
<path style=" stroke:none;fill-rule:evenodd;fill:rgb(0%,0%,100%);fill-opacity:1;" d="M 196.300781 131.332031 C 196.300781 130.335938 195.492188 129.53125 194.5 129.53125 C 193.507812 129.53125 192.699219 130.335938 192.699219 131.332031 C 192.699219 132.324219 193.507812 133.132812 194.5 133.132812 C 195.492188 133.132812 196.300781 132.324219 196.300781 131.332031 M 195.699219 131.332031 C 195.699219 130.667969 195.164062 130.132812 194.5 130.132812 C 193.835938 130.132812 193.300781 130.667969 193.300781 131.332031 C 193.300781 131.992188 193.835938 132.53125 194.5 132.53125 C 195.164062 132.53125 195.699219 131.992188 195.699219 131.332031 "/>
<path style=" stroke:none;fill-rule:evenodd;fill:rgb(0%,0%,100%);fill-opacity:1;" d="M 212 131.332031 C 212 130.503906 211.328125 129.832031 210.5 129.832031 C 209.671875 129.832031 209 130.503906 209 131.332031 C 209 132.160156 209.671875 132.832031 210.5 132.832031 C 211.328125 132.832031 212 132.160156 212 131.332031 "/>
<path style=" stroke:none;fill-rule:evenodd;fill:rgb(0%,0%,100%);fill-opacity:1;" d="M 212.300781 131.332031 C 212.300781 130.335938 211.492188 129.53125 210.5 129.53125 C 209.507812 129.53125 208.699219 130.335938 208.699219 131.332031 C 208.699219 132.324219 209.507812 133.132812 210.5 133.132812 C 211.492188 133.132812 212.300781 132.324219 212.300781 131.332031 M 211.699219 131.332031 C 211.699219 130.667969 211.164062 130.132812 210.5 130.132812 C 209.835938 130.132812 209.300781 130.667969 209.300781 131.332031 C 209.300781 131.992188 209.835938 132.53125 210.5 132.53125 C 211.164062 132.53125 211.699219 131.992188 211.699219 131.332031 "/>
<path style=" stroke:none;fill-rule:evenodd;fill:rgb(0%,0%,100%);fill-opacity:1;" d="M 228 131.332031 C 228 130.503906 227.328125 129.832031 226.5 129.832031 C 225.671875 129.832031 225 130.503906 225 131.332031 C 225 132.160156 225.671875 132.832031 226.5 132.832031 C 227.328125 132.832031 228 132.160156 228 131.332031 "/>
<path style=" stroke:none;fill-rule:evenodd;fill:rgb(0%,0%,100%);fill-opacity:1;" d="M 228.300781 131.332031 C 228.300781 130.335938 227.492188 129.53125 226.5 129.53125 C 225.507812 129.53125 224.699219 130.335938 224.699219 131.332031 C 224.699219 132.324219 225.507812 133.132812 226.5 133.132812 C 227.492188 133.132812 228.300781 132.324219 228.300781 131.332031 M 227.699219 131.332031 C 227.699219 130.667969 227.164062 130.132812 226.5 130.132812 C 225.835938 130.132812 225.300781 130.667969 225.300781 131.332031 C 225.300781 131.992188 225.835938 132.53125 226.5 132.53125 C 227.164062 132.53125 227.699219 131.992188 227.699219 131.332031 "/>
<path style=" stroke:none;fill-rule:evenodd;fill:rgb(0%,0%,100%);fill-opacity:1;" d="M 244 131.332031 C 244 130.503906 243.328125 129.832031 242.5 129.832031 C 241.671875 129.832031 241 130.503906 241 131.332031 C 241 132.160156 241.671875 132.832031 242.5 132.832031 C 243.328125 132.832031 244 132.160156 244 131.332031 "/>
<path style=" stroke:none;fill-rule:evenodd;fill:rgb(0%,0%,100%);fill-opacity:1;" d="M 244.300781 131.332031 C 244.300781 130.335938 243.492188 129.53125 242.5 129.53125 C 241.507812 129.53125 240.699219 130.335938 240.699219 131.332031 C 240.699219 132.324219 241.507812 133.132812 242.5 133.132812 C 243.492188 133.132812 244.300781 132.324219 244.300781 131.332031 M 243.699219 131.332031 C 243.699219 130.667969 243.164062 130.132812 242.5 130.132812 C 241.835938 130.132812 241.300781 130.667969 241.300781 131.332031 C 241.300781 131.992188 241.835938 132.53125 242.5 132.53125 C 243.164062 132.53125 243.699219 131.992188 243.699219 131.332031 "/>
<path style=" stroke:none;fill-rule:evenodd;fill:rgb(0%,0%,100%);fill-opacity:1;" d="M 260 131.332031 C 260 130.503906 259.328125 129.832031 258.5 129.832031 C 257.671875 129.832031 257 130.503906 257 131.332031 C 257 132.160156 257.671875 132.832031 258.5 132.832031 C 259.328125 132.832031 260 132.160156 260 131.332031 "/>
<path style=" stroke:none;fill-rule:evenodd;fill:rgb(0%,0%,100%);fill-opacity:1;" d="M 260.300781 131.332031 C 260.300781 130.335938 259.492188 129.53125 258.5 129.53125 C 257.507812 129.53125 256.699219 130.335938 256.699219 131.332031 C 256.699219 132.324219 257.507812 133.132812 258.5 133.132812 C 259.492188 133.132812 260.300781 132.324219 260.300781 131.332031 M 259.699219 131.332031 C 259.699219 130.667969 259.164062 130.132812 258.5 130.132812 C 257.835938 130.132812 257.300781 130.667969 257.300781 131.332031 C 257.300781 131.992188 257.835938 132.53125 258.5 132.53125 C 259.164062 132.53125 259.699219 131.992188 259.699219 131.332031 "/>
<path style=" stroke:none;fill-rule:evenodd;fill:rgb(0%,0%,100%);fill-opacity:1;" d="M 276 131.332031 C 276 130.503906 275.328125 129.832031 274.5 129.832031 C 273.671875 129.832031 273 130.503906 273 131.332031 C 273 132.160156 273.671875 132.832031 274.5 132.832031 C 275.328125 132.832031 276 132.160156 276 131.332031 "/>
<path style=" stroke:none;fill-rule:evenodd;fill:rgb(0%,0%,100%);fill-opacity:1;" d="M 276.300781 131.332031 C 276.300781 130.335938 275.492188 129.53125 274.5 129.53125 C 273.507812 129.53125 272.699219 130.335938 272.699219 131.332031 C 272.699219 132.324219 273.507812 133.132812 274.5 133.132812 C 275.492188 133.132812 276.300781 132.324219 276.300781 131.332031 M 275.699219 131.332031 C 275.699219 130.667969 275.164062 130.132812 274.5 130.132812 C 273.835938 130.132812 273.300781 130.667969 273.300781 131.332031 C 273.300781 131.992188 273.835938 132.53125 274.5 132.53125 C 275.164062 132.53125 275.699219 131.992188 275.699219 131.332031 "/>
<path style=" stroke:none;fill-rule:evenodd;fill:rgb(0%,0%,100%);fill-opacity:1;" d="M 292 131.332031 C 292 130.503906 291.328125 129.832031 290.5 129.832031 C 289.671875 129.832031 289 130.503906 289 131.332031 C 289 132.160156 289.671875 132.832031 290.5 132.832031 C 291.328125 132.832031 292 132.160156 292 131.332031 "/>
<path style=" stroke:none;fill-rule:evenodd;fill:rgb(0%,0%,100%);fill-opacity:1;" d="M 292.300781 131.332031 C 292.300781 130.335938 291.492188 129.53125 290.5 129.53125 C 289.507812 129.53125 288.699219 130.335938 288.699219 131.332031 C 288.699219 132.324219 289.507812 133.132812 290.5 133.132812 C 291.492188 133.132812 292.300781 132.324219 292.300781 131.332031 M 291.699219 131.332031 C 291.699219 130.667969 291.164062 130.132812 290.5 130.132812 C 289.835938 130.132812 289.300781 130.667969 289.300781 131.332031 C 289.300781 131.992188 289.835938 132.53125 290.5 132.53125 C 291.164062 132.53125 291.699219 131.992188 291.699219 131.332031 "/>
<path style=" stroke:none;fill-rule:evenodd;fill:rgb(0%,0%,100%);fill-opacity:1;" d="M 308 131.332031 C 308 130.503906 307.328125 129.832031 306.5 129.832031 C 305.671875 129.832031 305 130.503906 305 131.332031 C 305 132.160156 305.671875 132.832031 306.5 132.832031 C 307.328125 132.832031 308 132.160156 308 131.332031 "/>
<path style=" stroke:none;fill-rule:evenodd;fill:rgb(0%,0%,100%);fill-opacity:1;" d="M 308.300781 131.332031 C 308.300781 130.335938 307.492188 129.53125 306.5 129.53125 C 305.507812 129.53125 304.699219 130.335938 304.699219 131.332031 C 304.699219 132.324219 305.507812 133.132812 306.5 133.132812 C 307.492188 133.132812 308.300781 132.324219 308.300781 131.332031 M 307.699219 131.332031 C 307.699219 130.667969 307.164062 130.132812 306.5 130.132812 C 305.835938 130.132812 305.300781 130.667969 305.300781 131.332031 C 305.300781 131.992188 305.835938 132.53125 306.5 132.53125 C 307.164062 132.53125 307.699219 131.992188 307.699219 131.332031 "/>
<path style=" stroke:none;fill-rule:evenodd;fill:rgb(0%,0%,0%);fill-opacity:1;" d="M 340 131.332031 C 340 130.503906 339.328125 129.832031 338.5 129.832031 C 337.671875 129.832031 337 130.503906 337 131.332031 C 337 132.160156 337.671875 132.832031 338.5 132.832031 C 339.328125 132.832031 340 132.160156 340 131.332031 "/>
<path style=" stroke:none;fill-rule:evenodd;fill:rgb(0%,0%,0%);fill-opacity:1;" d="M 340.300781 131.332031 C 340.300781 130.335938 339.492188 129.53125 338.5 129.53125 C 337.507812 129.53125 336.699219 130.335938 336.699219 131.332031 C 336.699219 132.324219 337.507812 133.132812 338.5 133.132812 C 339.492188 133.132812 340.300781 132.324219 340.300781 131.332031 M 339.699219 131.332031 C 339.699219 130.667969 339.164062 130.132812 338.5 130.132812 C 337.835938 130.132812 337.300781 130.667969 337.300781 131.332031 C 337.300781 131.992188 337.835938 132.53125 338.5 132.53125 C 339.164062 132.53125 339.699219 131.992188 339.699219 131.332031 "/>
<path style=" stroke:none;fill-rule:evenodd;fill:rgb(0%,0%,100%);fill-opacity:1;" d="M 356 131.332031 C 356 130.503906 355.328125 129.832031 354.5 129.832031 C 353.671875 129.832031 353 130.503906 353 131.332031 C 353 132.160156 353.671875 132.832031 354.5 132.832031 C 355.328125 132.832031 356 132.160156 356 131.332031 "/>
<path style=" stroke:none;fill-rule:evenodd;fill:rgb(0%,0%,100%);fill-opacity:1;" d="M 356.300781 131.332031 C 356.300781 130.335938 355.492188 129.53125 354.5 129.53125 C 353.507812 129.53125 352.699219 130.335938 352.699219 131.332031 C 352.699219 132.324219 353.507812 133.132812 354.5 133.132812 C 355.492188 133.132812 356.300781 132.324219 356.300781 131.332031 M 355.699219 131.332031 C 355.699219 130.667969 355.164062 130.132812 354.5 130.132812 C 353.835938 130.132812 353.300781 130.667969 353.300781 131.332031 C 353.300781 131.992188 353.835938 132.53125 354.5 132.53125 C 355.164062 132.53125 355.699219 131.992188 355.699219 131.332031 "/>
<path style=" stroke:none;fill-rule:evenodd;fill:rgb(0%,0%,100%);fill-opacity:1;" d="M 372 131.332031 C 372 130.503906 371.328125 129.832031 370.5 129.832031 C 369.671875 129.832031 369 130.503906 369 131.332031 C 369 132.160156 369.671875 132.832031 370.5 132.832031 C 371.328125 132.832031 372 132.160156 372 131.332031 "/>
<path style=" stroke:none;fill-rule:evenodd;fill:rgb(0%,0%,100%);fill-opacity:1;" d="M 372.300781 131.332031 C 372.300781 130.335938 371.492188 129.53125 370.5 129.53125 C 369.507812 129.53125 368.699219 130.335938 368.699219 131.332031 C 368.699219 132.324219 369.507812 133.132812 370.5 133.132812 C 371.492188 133.132812 372.300781 132.324219 372.300781 131.332031 M 371.699219 131.332031 C 371.699219 130.667969 371.164062 130.132812 370.5 130.132812 C 369.835938 130.132812 369.300781 130.667969 369.300781 131.332031 C 369.300781 131.992188 369.835938 132.53125 370.5 132.53125 C 371.164062 132.53125 371.699219 131.992188 371.699219 131.332031 "/>
</g>
</svg>
