<?xml version="1.0" encoding="UTF-8"?>
<svg xmlns="http://www.w3.org/2000/svg" xmlns:xlink="http://www.w3.org/1999/xlink" width="42.795pt" height="67.846pt" viewBox="0 0 42.795 67.846" version="1.1">
<g id="surface1">
<path style=" stroke:none;fill-rule:evenodd;fill:rgb(48.599243%,61.199951%,64.698792%);fill-opacity:1;" d="M 26.722656 1.734375 C 25.367188 1.53125 23.523438 1.371094 21.554688 1.460938 C 19.585938 1.546875 17.492188 1.882812 16.1875 2.308594 C 14.886719 2.734375 14.378906 3.253906 13.832031 4.085938 C 13.285156 4.917969 12.703125 6.0625 12.066406 7.453125 C 11.429688 8.84375 10.742188 10.480469 9.976562 12.265625 C 9.214844 14.050781 8.375 15.984375 7.589844 17.820312 C 6.800781 19.65625 6.066406 21.394531 5.488281 22.804688 C 4.910156 24.214844 4.488281 25.292969 3.972656 26.710938 C 3.453125 28.128906 2.84375 29.886719 2.394531 31.832031 C 1.945312 33.773438 1.65625 35.902344 1.542969 38.289062 C 1.429688 40.679688 1.488281 43.328125 1.773438 45.644531 C 2.054688 47.953125 2.566406 49.929688 3.285156 51.78125 C 4.003906 53.636719 4.933594 55.367188 6.148438 56.992188 C 7.359375 58.617188 8.863281 60.132812 10.722656 61.476562 C 12.585938 62.820312 14.808594 63.992188 17.011719 64.804688 C 19.21875 65.617188 21.40625 66.074219 23.585938 66.238281 C 25.765625 66.402344 27.941406 66.273438 29.851562 65.859375 C 31.765625 65.445312 33.414062 64.742188 34.886719 63.820312 C 36.355469 62.898438 37.648438 61.757812 38.601562 60.585938 C 39.554688 59.414062 40.164062 58.210938 40.589844 56.894531 C 41.015625 55.582031 41.257812 54.15625 41.324219 52.425781 C 41.390625 50.695312 41.289062 48.660156 40.996094 46.480469 C 40.707031 44.300781 40.230469 41.976562 39.617188 39.714844 C 39.007812 37.457031 38.257812 35.257812 37.398438 32.886719 C 36.535156 30.519531 35.5625 27.976562 34.679688 25.695312 C 33.800781 23.414062 33.015625 21.398438 32.355469 19.675781 C 31.695312 17.949219 31.164062 16.515625 30.898438 15.800781 C 30.632812 15.085938 30.632812 15.085938 30.632812 15.085938 C 30.632812 15.085938 30.632812 15.085938 30.746094 14.628906 C 30.859375 14.167969 31.089844 13.253906 31.269531 11.980469 C 31.449219 10.707031 31.585938 9.078125 31.492188 7.582031 C 31.402344 6.085938 31.089844 4.71875 30.832031 3.910156 C 30.574219 3.101562 30.375 2.851562 30.214844 2.695312 C 30.054688 2.539062 29.933594 2.476562 29.4375 2.324219 C 28.945312 2.171875 28.078125 1.933594 26.722656 1.734375 Z M 26.722656 1.734375 "/>
<path style=" stroke:none;fill-rule:evenodd;fill:rgb(100%,100%,100%);fill-opacity:1;" d="M 26.722656 26.355469 C 26.722656 26.355469 26.722656 26.355469 26.457031 27.042969 C 26.1875 27.730469 25.652344 29.105469 25.101562 30.382812 C 24.550781 31.65625 23.984375 32.839844 23.46875 33.835938 C 22.953125 34.835938 22.484375 35.65625 21.972656 36.566406 C 21.460938 37.472656 20.90625 38.472656 20.429688 39.402344 C 19.949219 40.335938 19.554688 41.199219 19.273438 42.203125 C 18.992188 43.210938 18.832031 44.351562 18.902344 45.460938 C 18.972656 46.566406 19.28125 47.640625 19.832031 48.664062 C 20.386719 49.691406 21.1875 50.664062 21.917969 51.355469 C 22.652344 52.046875 23.3125 52.457031 23.957031 52.792969 C 24.601562 53.125 25.222656 53.382812 25.886719 53.589844 C 26.550781 53.792969 27.253906 53.945312 28.136719 53.957031 C 29.023438 53.964844 30.09375 53.835938 30.96875 53.519531 C 31.84375 53.207031 32.523438 52.714844 33.003906 52.175781 C 33.480469 51.632812 33.757812 51.046875 33.929688 50.332031 C 34.101562 49.613281 34.167969 48.769531 34.148438 47.867188 C 34.128906 46.960938 34.023438 46 33.835938 44.988281 C 33.652344 43.976562 33.390625 42.914062 33.105469 41.90625 C 32.820312 40.902344 32.511719 39.953125 32.1875 39.019531 C 31.863281 38.085938 31.519531 37.171875 31.140625 36.210938 C 30.757812 35.253906 30.335938 34.253906 29.886719 33.222656 C 29.441406 32.191406 28.972656 31.128906 28.441406 29.980469 C 27.90625 28.828125 27.316406 27.59375 27.019531 26.976562 C 26.722656 26.355469 26.722656 26.355469 26.722656 26.355469 Z M 26.722656 26.355469 "/>
<path style="fill:none;stroke-width:1.5;stroke-linecap:butt;stroke-linejoin:round;stroke:rgb(0%,0%,0%);stroke-opacity:1;stroke-miterlimit:10;" d="M 301.351906 412.319219 C 301.351906 412.319219 301.351906 412.319219 301.324563 412.510625 C 301.293313 412.702031 301.234719 413.084844 301.125344 413.389531 C 301.012063 413.698125 300.851906 413.9325 300.531594 414.139531 C 300.207375 414.346563 299.723 414.522344 298.914406 414.737188 C 298.105813 414.952031 296.969094 415.205938 295.539406 415.362188 C 294.113625 415.518438 292.390969 415.577031 290.699563 415.495 C 289.00425 415.412969 287.340188 415.186406 286.301125 414.787969 C 285.262063 414.389531 284.844094 413.819219 284.527688 413.393438 C 284.211281 412.967656 283.996438 412.686406 283.672219 412.08875 C 283.348 411.491094 282.918313 410.577031 282.484719 409.58875 C 282.055031 408.600469 281.621438 407.537969 281.19175 406.502813 C 280.758156 405.46375 280.328469 404.448125 279.894875 403.444219 C 279.465188 402.440313 279.031594 401.444219 278.469094 400.159063 C 277.902688 398.873906 277.207375 397.295781 276.640969 395.959844 C 276.078469 394.62 275.644875 393.52625 275.238625 392.487188 C 274.832375 391.448125 274.449563 390.471563 274.140969 389.662969 C 273.828469 388.854375 273.590188 388.217656 273.355813 387.553594 C 273.121438 386.885625 272.887063 386.190313 272.695656 385.52625 C 272.50425 384.862188 272.355813 384.229375 272.207375 383.268438 C 272.058938 382.303594 271.906594 381.010625 271.801125 379.764531 C 271.69175 378.518438 271.625344 377.323125 271.598 376.440313 C 271.570656 375.5575 271.582375 374.991094 271.621438 374.221563 C 271.6605 373.448125 271.723 372.479375 271.812844 371.561406 C 271.898781 370.643438 272.00425 369.780156 272.187844 368.893438 C 272.371438 368.010625 272.62925 367.104375 272.922219 366.229375 C 273.215188 365.354375 273.5355 364.514531 273.945656 363.616094 C 274.359719 362.721563 274.855813 361.772344 275.363625 360.9325 C 275.867531 360.08875 276.387063 359.354375 277.055031 358.565313 C 277.726906 357.780156 278.543313 356.936406 279.312844 356.248906 C 280.078469 355.5575 280.789406 355.018438 281.492531 354.541875 C 282.19175 354.065313 282.883156 353.655156 283.6605 353.237188 C 284.437844 352.815313 285.301125 352.385625 286.078469 352.061406 C 286.855813 351.737188 287.543313 351.518438 288.289406 351.303594 C 289.0355 351.08875 289.832375 350.873906 290.609719 350.698125 C 291.387063 350.52625 292.144875 350.397344 293.039406 350.299688 C 293.933938 350.202031 294.969094 350.139531 296.062844 350.147344 C 297.152688 350.159063 298.293313 350.248906 299.277688 350.385625 C 300.258156 350.52625 301.078469 350.721563 301.789406 350.948125 C 302.50425 351.174688 303.109719 351.4325 303.851906 351.823125 C 304.598 352.209844 305.480813 352.729375 306.195656 353.21375 C 306.906594 353.698125 307.445656 354.15125 307.87925 354.553594 C 308.308938 354.952031 308.633156 355.295781 308.933938 355.662969 C 309.238625 356.030156 309.519875 356.420781 309.840188 356.979375 C 310.164406 357.541875 310.531594 358.27625 310.824563 358.967656 C 311.117531 359.655156 311.332375 360.303594 311.480813 360.995 C 311.633156 361.686406 311.719094 362.420781 311.7855 363.186406 C 311.848 363.952031 311.894875 364.752813 311.894875 365.592656 C 311.894875 366.436406 311.848 367.319219 311.762063 368.225469 C 311.676125 369.131719 311.547219 370.061406 311.383156 371.12 C 311.223 372.178594 311.023781 373.37 310.777688 374.487188 C 310.531594 375.608281 310.230813 376.655156 309.922219 377.698125 C 309.617531 378.745 309.301125 379.791875 308.926125 380.854375 C 308.555031 381.916875 308.121438 382.998906 307.515969 384.565313 C 306.9105 386.135625 306.12925 388.194219 305.465188 389.928594 C 304.801125 391.662969 304.25425 393.073125 303.746438 394.366094 C 303.234719 395.655156 302.765969 396.823125 302.336281 398.02625 C 301.906594 399.225469 301.519875 400.455938 301.324563 401.069219 C 301.12925 401.686406 301.12925 401.686406 301.12925 401.686406 " transform="matrix(1,0,0,-1,-270.348,416.745)"/>
<path style="fill:none;stroke-width:1.5;stroke-linecap:butt;stroke-linejoin:round;stroke:rgb(0%,0%,0%);stroke-opacity:1;stroke-miterlimit:10;" d="M 284.312844 413.21375 C 284.312844 413.21375 284.312844 413.21375 284.453469 413.061406 C 284.594094 412.912969 284.875344 412.608281 285.230813 412.330938 C 285.586281 412.049688 286.015969 411.791875 286.480813 411.604375 C 286.945656 411.424688 287.44175 411.315313 288.00425 411.217656 C 288.56675 411.12 289.19175 411.034063 289.926125 410.979375 C 290.6605 410.924688 291.500344 410.905156 292.340188 410.905156 C 293.183938 410.905156 294.023781 410.924688 294.738625 410.967656 C 295.449563 411.014531 296.031594 411.077031 296.746438 411.174688 C 297.457375 411.272344 298.297219 411.40125 298.918313 411.549688 C 299.5355 411.698125 299.930031 411.866094 300.211281 412.010625 C 300.492531 412.15125 300.6605 412.268438 300.824563 412.397344 C 300.992531 412.530156 301.152688 412.678594 301.203469 412.83875 C 301.25425 413.002813 301.199563 413.178594 301.207375 413.135625 C 301.215188 413.092656 301.289406 412.823125 301.367531 412.584844 C 301.445656 412.342656 301.523781 412.131719 301.582375 411.916875 C 301.644875 411.702031 301.687844 411.487188 301.7855 411.08875 C 301.883156 410.690313 302.031594 410.104375 302.06675 409.295781 C 302.098 408.487188 302.012063 407.452031 301.926125 406.577031 C 301.840188 405.702031 301.750344 404.991094 301.664406 404.409063 C 301.578469 403.823125 301.492531 403.373906 301.394875 402.96375 C 301.297219 402.553594 301.19175 402.186406 301.125344 401.893438 C 301.062844 401.600469 301.039406 401.385625 301.031594 401.27625 C 301.019875 401.170781 301.019875 401.170781 300.812844 401.061406 C 300.609719 400.955938 300.199563 400.737188 299.808938 400.416875 C 299.422219 400.092656 299.055031 399.659063 298.676125 399.108281 C 298.297219 398.5575 297.9105 397.889531 297.62925 397.315313 C 297.348 396.745 297.176125 396.272344 297.00425 395.784063 C 296.832375 395.299688 296.6605 394.803594 296.562844 394.295781 C 296.465188 393.787969 296.44175 393.268438 296.465188 392.8075 C 296.484719 392.342656 296.551125 391.9325 296.6605 391.534063 C 296.765969 391.131719 296.918313 390.745 297.008156 390.541875 C 297.098 390.33875 297.125344 390.319219 296.996438 389.998906 C 296.871438 389.674688 296.590188 389.049688 296.387063 388.553594 C 296.180031 388.0575 296.051125 387.690313 295.887063 387.280156 C 295.726906 386.87 295.531594 386.416875 295.340188 385.979375 C 295.152688 385.545781 294.965188 385.131719 294.801125 384.768438 C 294.637063 384.409063 294.500344 384.108281 294.258156 383.639531 C 294.019875 383.174688 293.668313 382.545781 293.262063 381.827031 C 292.851906 381.108281 292.37925 380.299688 291.906594 379.459844 C 291.433938 378.623906 290.957375 377.760625 290.570656 377.037969 C 290.180031 376.315313 289.87925 375.733281 289.62925 375.053594 C 289.383156 374.373906 289.187844 373.596563 289.090188 372.873906 C 288.992531 372.147344 288.992531 371.479375 289.0355 370.916875 C 289.078469 370.358281 289.164406 369.905156 289.336281 369.385625 C 289.512063 368.866094 289.769875 368.284063 290.137063 367.670781 C 290.50425 367.053594 290.980813 366.405156 291.512063 365.854375 C 292.047219 365.303594 292.644875 364.842656 293.19175 364.495 C 293.734719 364.147344 294.234719 363.909063 294.750344 363.686406 C 295.269875 363.459844 295.808938 363.241094 296.293313 363.069219 C 296.781594 362.897344 297.211281 362.768438 297.633156 362.702031 C 298.051125 362.639531 298.461281 362.639531 298.980813 362.647344 C 299.500344 362.659063 300.125344 362.6825 300.644875 362.77625 C 301.1605 362.873906 301.570656 363.049688 301.992531 363.284063 C 302.414406 363.522344 302.844094 363.823125 303.211281 364.170781 C 303.578469 364.514531 303.87925 364.905156 304.074563 365.280156 C 304.269875 365.659063 304.355813 366.02625 304.430031 366.62 C 304.508156 367.21375 304.570656 368.034063 304.582375 368.733281 C 304.594094 369.436406 304.551125 370.018438 304.430031 370.77625 C 304.312844 371.530156 304.117531 372.459844 303.890969 373.366094 C 303.664406 374.272344 303.406594 375.155156 303.062844 376.225469 C 302.715188 377.295781 302.2855 378.545781 301.851906 379.666875 C 301.418313 380.791875 300.988625 381.784063 300.609719 382.666875 C 300.234719 383.553594 299.9105 384.330938 299.574563 385.084844 C 299.238625 385.842656 298.894875 386.573125 298.558938 387.3075 C 298.226906 388.041875 297.902688 388.77625 297.664406 389.272344 C 297.426125 389.768438 297.277688 390.02625 297.199563 390.155156 C 297.125344 390.287969 297.125344 390.287969 297.125344 390.287969 " transform="matrix(1,0,0,-1,-270.348,416.745)"/>
<path style="fill:none;stroke-width:1.5;stroke-linecap:butt;stroke-linejoin:round;stroke:rgb(0%,0%,0%);stroke-opacity:1;stroke-dasharray:4;stroke-miterlimit:10;" d="M 296.640969 391.639531 C 296.640969 391.639531 296.640969 391.639531 296.328469 392.518438 C 296.019875 393.397344 295.398781 395.15125 294.81675 396.752813 C 294.230813 398.358281 293.683938 399.811406 293.008156 401.428594 C 292.336281 403.045781 291.5355 404.823125 290.664406 406.241094 C 289.793313 407.655156 288.848 408.709844 288.086281 409.545781 C 287.324563 410.381719 286.742531 410.998906 286.305031 411.397344 C 285.867531 411.799688 285.578469 411.979375 285.433938 412.069219 C 285.289406 412.159063 285.289406 412.159063 285.289406 412.159063 " transform="matrix(1,0,0,-1,-270.348,416.745)"/>
<path style="fill:none;stroke-width:1.5;stroke-linecap:butt;stroke-linejoin:round;stroke:rgb(0%,0%,0%);stroke-opacity:1;stroke-dasharray:4;stroke-miterlimit:10;" d="M 301.164406 401.21375 C 301.164406 401.21375 301.164406 401.21375 300.984719 401.643438 C 300.808938 402.077031 300.453469 402.940313 300.12925 403.916875 C 299.801125 404.889531 299.512063 405.967656 299.301125 406.975469 C 299.090188 407.979375 298.965188 408.905156 298.984719 409.639531 C 299.000344 410.37 299.168313 410.905156 299.465188 411.303594 C 299.765969 411.702031 300.195656 411.967656 300.414406 412.100469 C 300.62925 412.229375 300.62925 412.229375 300.62925 412.229375 " transform="matrix(1,0,0,-1,-270.348,416.745)"/>
<path style="fill:none;stroke-width:1.5;stroke-linecap:butt;stroke-linejoin:round;stroke:rgb(0%,0%,0%);stroke-opacity:1;stroke-dasharray:4;stroke-miterlimit:10;" d="M 297.015969 390.205938 C 297.015969 390.205938 297.015969 390.205938 297.277688 390.873906 C 297.5355 391.541875 298.055031 392.877813 298.570656 394.252813 C 299.082375 395.627813 299.590188 397.037969 300.06675 398.534063 C 300.543313 400.034063 300.988625 401.616094 301.211281 402.409063 C 301.433938 403.202031 301.433938 403.202031 301.433938 403.202031 " transform="matrix(1,0,0,-1,-270.348,416.745)"/>
</g>
</svg>
