<?xml version="1.0" encoding="UTF-8"?>
<svg xmlns="http://www.w3.org/2000/svg" xmlns:xlink="http://www.w3.org/1999/xlink" width="283.002pt" height="129.54pt" viewBox="0 0 283.002 129.54" version="1.1">
<defs>
<clipPath id="clip1">
  <path d="M 0 60 L 97 60 L 97 129.539062 L 0 129.539062 Z M 0 60 "/>
</clipPath>
</defs>
<g id="surface1">
<path style="fill:none;stroke-width:2;stroke-linecap:butt;stroke-linejoin:round;stroke:rgb(0%,0%,0%);stroke-opacity:1;stroke-miterlimit:10;" d="M 135.103469 204.671125 C 135.103469 204.671125 135.103469 204.671125 137.150344 207.327375 C 139.201125 209.983625 143.294875 215.292219 147.923781 219.995344 C 152.552688 224.698469 157.708938 228.796125 163.400344 231.604719 C 169.087844 234.409406 175.3105 235.928937 180.46675 233.725812 C 185.626906 231.526594 189.724563 225.608625 189.267531 221.210187 C 188.8105 216.81175 183.806594 213.928937 181.302688 210.284406 C 178.798781 206.643781 178.798781 202.245344 181.833938 200.046125 C 184.869094 197.846906 190.9355 197.846906 196.626906 200.120344 C 202.314406 202.397687 207.626906 206.948469 210.27925 209.225812 C 212.9355 211.49925 212.9355 211.49925 212.9355 211.49925 " transform="matrix(1,0,0,-1,-131.498,236.218)"/>
<path style="fill-rule:evenodd;fill:rgb(0%,0%,0%);fill-opacity:1;stroke-width:2;stroke-linecap:butt;stroke-linejoin:round;stroke:rgb(0%,0%,0%);stroke-opacity:1;stroke-miterlimit:10;" d="M 212.9355 211.49925 L 206.103469 208.714094 L 209.138625 205.175031 Z M 212.9355 211.49925 " transform="matrix(1,0,0,-1,-131.498,236.218)"/>
<path style=" stroke:none;fill-rule:evenodd;fill:rgb(86.999512%,86.999512%,86.999512%);fill-opacity:1;" d="M 7.625 69.246094 C 1.027344 75.542969 -1.554688 84.039062 5.957031 97.089844 C 13.46875 110.136719 31.066406 127.738281 52.078125 128.039062 C 73.09375 128.34375 97.519531 111.351562 95.320312 96.253906 C 93.121094 81.15625 64.292969 67.960938 44.570312 63.40625 C 24.847656 58.855469 14.226562 62.953125 7.625 69.246094 Z M 7.625 69.246094 "/>
<g clip-path="url(#clip1)" clip-rule="nonzero">
<path style="fill:none;stroke-width:2;stroke-linecap:butt;stroke-linejoin:round;stroke:rgb(0%,0%,0%);stroke-opacity:1;stroke-miterlimit:10;" d="M 139.123 166.971906 C 132.525344 160.675031 129.943313 152.178937 137.455031 139.128156 C 144.96675 126.081281 162.564406 108.479719 183.576125 108.178937 C 204.59175 107.87425 229.017531 124.866437 226.818313 139.964094 C 224.619094 155.06175 195.790969 168.257062 176.068313 172.81175 C 156.345656 177.362531 145.724563 173.264875 139.123 166.971906 Z M 139.123 166.971906 " transform="matrix(1,0,0,-1,-131.498,236.218)"/>
</g>
<path style="fill:none;stroke-width:0.8;stroke-linecap:butt;stroke-linejoin:round;stroke:rgb(0%,0%,0%);stroke-opacity:1;stroke-miterlimit:10;" d="M 157.705031 174.643781 C 157.705031 174.643781 157.705031 174.643781 155.900344 172.632062 C 154.095656 170.620344 150.490188 166.596906 147.970656 163.284406 C 145.451125 159.971906 144.013625 157.370344 142.134719 154.053937 C 140.255813 150.741437 137.927688 146.714094 136.763625 144.702375 C 135.599563 142.690656 135.599563 142.690656 135.599563 142.690656 " transform="matrix(1,0,0,-1,-131.498,236.218)"/>
<path style="fill:none;stroke-width:0.8;stroke-linecap:butt;stroke-linejoin:round;stroke:rgb(0%,0%,0%);stroke-opacity:1;stroke-miterlimit:10;" d="M 167.978469 174.272687 C 167.978469 174.272687 167.978469 174.272687 166.107375 171.846906 C 164.240188 169.417219 160.501906 164.56175 157.224563 159.901594 C 153.947219 155.245344 151.134719 150.7805 148.611281 146.303937 C 146.087844 141.827375 143.857375 137.335187 142.740188 135.093 C 141.626906 132.846906 141.626906 132.846906 141.626906 132.846906 " transform="matrix(1,0,0,-1,-131.498,236.218)"/>
<path style="fill:none;stroke-width:0.8;stroke-linecap:butt;stroke-linejoin:round;stroke:rgb(0%,0%,0%);stroke-opacity:1;stroke-miterlimit:10;" d="M 179.537063 171.944562 C 179.537063 171.944562 179.537063 171.944562 176.986281 168.979719 C 174.4355 166.014875 169.333938 160.081281 165.267531 154.460187 C 161.197219 148.839094 158.165969 143.5305 155.673781 138.534406 C 153.1855 133.538312 151.236281 128.858625 150.263625 126.514875 C 149.290969 124.175031 149.290969 124.175031 149.290969 124.175031 " transform="matrix(1,0,0,-1,-131.498,236.218)"/>
<path style="fill:none;stroke-width:0.8;stroke-linecap:butt;stroke-linejoin:round;stroke:rgb(0%,0%,0%);stroke-opacity:1;stroke-miterlimit:10;" d="M 190.759719 168.354719 C 190.759719 168.354719 190.759719 168.354719 188.083938 165.378156 C 185.408156 162.4055 180.056594 156.456281 175.9355 151.053937 C 171.818313 145.651594 168.9355 140.796125 166.306594 135.112531 C 163.677688 129.428937 161.302688 122.917219 160.115188 119.659406 C 158.927688 116.4055 158.927688 116.4055 158.927688 116.4055 " transform="matrix(1,0,0,-1,-131.498,236.218)"/>
<path style="fill:none;stroke-width:0.8;stroke-linecap:butt;stroke-linejoin:round;stroke:rgb(0%,0%,0%);stroke-opacity:1;stroke-miterlimit:10;" d="M 200.099563 164.452375 C 200.099563 164.452375 200.099563 164.452375 197.458938 161.370344 C 194.818313 158.288312 189.540969 152.120344 185.384719 146.382062 C 181.228469 140.647687 178.193313 135.335187 175.798781 129.475812 C 173.40425 123.616437 171.646438 117.206281 170.771438 113.99925 C 169.892531 110.796125 169.892531 110.796125 169.892531 110.796125 " transform="matrix(1,0,0,-1,-131.498,236.218)"/>
<path style="fill:none;stroke-width:0.8;stroke-linecap:butt;stroke-linejoin:round;stroke:rgb(0%,0%,0%);stroke-opacity:1;stroke-miterlimit:10;" d="M 209.201125 159.643781 C 209.201125 159.643781 209.201125 159.643781 206.333938 156.069562 C 203.46675 152.49925 197.732375 145.358625 193.728469 139.589094 C 189.724563 133.819562 187.447219 129.417219 185.533156 124.440656 C 183.619094 119.460187 182.064406 113.901594 181.287063 111.12425 C 180.513625 108.346906 180.513625 108.346906 180.513625 108.346906 " transform="matrix(1,0,0,-1,-131.498,236.218)"/>
<path style="fill:none;stroke-width:0.8;stroke-linecap:butt;stroke-linejoin:round;stroke:rgb(0%,0%,0%);stroke-opacity:1;stroke-miterlimit:10;" d="M 216.908156 154.307844 C 216.908156 154.307844 216.908156 154.307844 214.576125 151.096906 C 212.244094 147.882062 207.583938 141.456281 203.962844 136.120344 C 200.345656 130.784406 197.763625 126.534406 195.8105 122.159406 C 193.857375 117.784406 192.52925 113.2805 191.865188 111.0305 C 191.201125 108.776594 191.201125 108.776594 191.201125 108.776594 " transform="matrix(1,0,0,-1,-131.498,236.218)"/>
<path style="fill:none;stroke-width:0.8;stroke-linecap:butt;stroke-linejoin:round;stroke:rgb(0%,0%,0%);stroke-opacity:1;stroke-miterlimit:10;" d="M 224.294875 146.385969 C 224.294875 146.385969 224.294875 146.385969 222.552688 144.268781 C 220.8105 142.147687 217.326125 137.9055 214.525344 134.116437 C 211.720656 130.327375 209.599563 126.991437 208.048781 123.5305 C 206.498 120.069562 205.521438 116.483625 205.037063 114.690656 C 204.548781 112.897687 204.548781 112.897687 204.548781 112.897687 " transform="matrix(1,0,0,-1,-131.498,236.218)"/>
<path style="fill:none;stroke-width:0.8;stroke-linecap:butt;stroke-linejoin:round;stroke:rgb(0%,0%,0%);stroke-opacity:1;stroke-miterlimit:10;" d="M 145.853469 171.663312 C 145.853469 171.663312 145.853469 171.663312 148.888625 171.190656 C 151.923781 170.718 157.990188 169.772687 164.447219 168.069562 C 170.90425 166.370344 177.748 163.917219 184.337844 161.221906 C 190.927688 158.522687 197.259719 155.581281 203.107375 152.132062 C 208.958938 148.682844 214.326125 144.721906 218.177688 141.839094 C 222.02925 138.956281 224.365188 137.1555 225.533156 136.253156 C 226.701125 135.350812 226.701125 135.350812 226.701125 135.350812 " transform="matrix(1,0,0,-1,-131.498,236.218)"/>
<path style="fill:none;stroke-width:0.8;stroke-linecap:butt;stroke-linejoin:round;stroke:rgb(0%,0%,0%);stroke-opacity:1;stroke-miterlimit:10;" d="M 139.345656 167.178937 C 139.345656 167.178937 139.345656 167.178937 144.177688 165.737531 C 149.009719 164.296125 158.677688 161.417219 166.767531 158.510969 C 174.857375 155.604719 181.376906 152.667219 187.564406 149.300031 C 193.751906 145.928937 199.615188 142.128156 205.486281 138.401594 C 211.361281 134.671125 217.251906 131.018781 220.193313 129.190656 C 223.138625 127.362531 223.138625 127.362531 223.138625 127.362531 " transform="matrix(1,0,0,-1,-131.498,236.218)"/>
<path style="fill:none;stroke-width:0.8;stroke-linecap:butt;stroke-linejoin:round;stroke:rgb(0%,0%,0%);stroke-opacity:1;stroke-miterlimit:10;" d="M 133.927688 159.43675 C 133.927688 159.43675 133.927688 159.43675 137.240188 158.460187 C 140.556594 157.483625 147.181594 155.526594 153.533156 153.210187 C 159.884719 150.893781 165.958938 148.214094 172.21675 145.288312 C 178.474563 142.362531 184.915969 139.190656 191.193313 136.065656 C 197.470656 132.940656 203.583938 129.870344 207.951125 127.4055 C 212.322219 124.940656 214.951125 123.085187 216.267531 122.159406 C 217.580031 121.233625 217.580031 121.233625 217.580031 121.233625 " transform="matrix(1,0,0,-1,-131.498,236.218)"/>
<path style="fill:none;stroke-width:0.8;stroke-linecap:butt;stroke-linejoin:round;stroke:rgb(0%,0%,0%);stroke-opacity:1;stroke-miterlimit:10;" d="M 133.244094 149.768781 C 133.244094 149.768781 133.244094 149.768781 135.771438 148.995344 C 138.298781 148.221906 143.349563 146.671125 148.9355 144.389875 C 154.521438 142.104719 160.634719 139.081281 167.056594 136.190656 C 173.474563 133.303937 180.197219 130.546125 186.724563 127.495344 C 193.251906 124.440656 199.583938 121.096906 203.3105 119.018781 C 207.037063 116.940656 208.162063 116.132062 208.728469 115.729719 C 209.290969 115.327375 209.290969 115.327375 209.290969 115.327375 " transform="matrix(1,0,0,-1,-131.498,236.218)"/>
<path style="fill:none;stroke-width:0.8;stroke-linecap:butt;stroke-linejoin:round;stroke:rgb(0%,0%,0%);stroke-opacity:1;stroke-miterlimit:10;" d="M 139.544875 135.776594 C 139.544875 135.776594 139.544875 135.776594 143.333938 134.053937 C 147.119094 132.331281 154.693313 128.889875 161.931594 125.745344 C 169.169875 122.600812 176.072219 119.757062 181.705031 117.1555 C 187.34175 114.557844 191.708938 112.198469 193.892531 111.022687 C 196.076125 109.843 196.076125 109.843 196.076125 109.843 " transform="matrix(1,0,0,-1,-131.498,236.218)"/>
<path style="fill:none;stroke-width:2;stroke-linecap:butt;stroke-linejoin:round;stroke:rgb(0%,0%,0%);stroke-opacity:1;stroke-miterlimit:10;" d="M 248.001906 175.99925 L 296.001906 175.99925 " transform="matrix(1,0,0,-1,-131.498,236.218)"/>
<path style="fill-rule:evenodd;fill:rgb(0%,0%,0%);fill-opacity:1;stroke-width:2;stroke-linecap:butt;stroke-linejoin:round;stroke:rgb(0%,0%,0%);stroke-opacity:1;stroke-miterlimit:10;" d="M 296.001906 175.99925 L 289.001906 178.331281 L 289.001906 173.667219 Z M 296.001906 175.99925 " transform="matrix(1,0,0,-1,-131.498,236.218)"/>
<path style="fill:none;stroke-width:2;stroke-linecap:butt;stroke-linejoin:round;stroke:rgb(0%,0%,0%);stroke-opacity:1;stroke-miterlimit:10;" d="M 320.001906 207.99925 L 328.001906 211.99925 " transform="matrix(1,0,0,-1,-131.498,236.218)"/>
<path style="fill-rule:evenodd;fill:rgb(0%,0%,0%);fill-opacity:1;stroke-width:2;stroke-linecap:butt;stroke-linejoin:round;stroke:rgb(0%,0%,0%);stroke-opacity:1;stroke-miterlimit:10;" d="M 328.001906 211.99925 L 324.869094 211.553937 L 325.763625 209.764875 Z M 328.001906 211.99925 " transform="matrix(1,0,0,-1,-131.498,236.218)"/>
<path style="fill:none;stroke-width:2;stroke-linecap:butt;stroke-linejoin:round;stroke:rgb(0%,0%,0%);stroke-opacity:1;stroke-miterlimit:10;" d="M 352.001906 143.99925 L 360.001906 139.99925 " transform="matrix(1,0,0,-1,-131.498,236.218)"/>
<path style="fill-rule:evenodd;fill:rgb(0%,0%,0%);fill-opacity:1;stroke-width:2;stroke-linecap:butt;stroke-linejoin:round;stroke:rgb(0%,0%,0%);stroke-opacity:1;stroke-miterlimit:10;" d="M 360.001906 139.99925 L 357.763625 142.233625 L 356.869094 140.448469 Z M 360.001906 139.99925 " transform="matrix(1,0,0,-1,-131.498,236.218)"/>
<path style="fill:none;stroke-width:2;stroke-linecap:butt;stroke-linejoin:round;stroke:rgb(0%,0%,0%);stroke-opacity:1;stroke-miterlimit:10;" d="M 384.001906 175.99925 L 388.001906 183.99925 " transform="matrix(1,0,0,-1,-131.498,236.218)"/>
<path style="fill-rule:evenodd;fill:rgb(0%,0%,0%);fill-opacity:1;stroke-width:2;stroke-linecap:butt;stroke-linejoin:round;stroke:rgb(0%,0%,0%);stroke-opacity:1;stroke-miterlimit:10;" d="M 388.001906 183.99925 L 385.763625 181.764875 L 387.552688 180.870344 Z M 388.001906 183.99925 " transform="matrix(1,0,0,-1,-131.498,236.218)"/>
<path style="fill:none;stroke-width:2;stroke-linecap:butt;stroke-linejoin:round;stroke:rgb(0%,0%,0%);stroke-opacity:1;stroke-miterlimit:10;" d="M 360.001906 175.99925 L 356.001906 183.99925 " transform="matrix(1,0,0,-1,-131.498,236.218)"/>
<path style="fill-rule:evenodd;fill:rgb(0%,0%,0%);fill-opacity:1;stroke-width:2;stroke-linecap:butt;stroke-linejoin:round;stroke:rgb(0%,0%,0%);stroke-opacity:1;stroke-miterlimit:10;" d="M 356.001906 183.99925 L 356.447219 180.870344 L 358.236281 181.764875 Z M 356.001906 183.99925 " transform="matrix(1,0,0,-1,-131.498,236.218)"/>
<path style="fill:none;stroke-width:2;stroke-linecap:butt;stroke-linejoin:round;stroke:rgb(0%,0%,0%);stroke-opacity:1;stroke-miterlimit:10;" d="M 376.001906 207.99925 L 368.001906 211.99925 " transform="matrix(1,0,0,-1,-131.498,236.218)"/>
<path style="fill-rule:evenodd;fill:rgb(0%,0%,0%);fill-opacity:1;stroke-width:2;stroke-linecap:butt;stroke-linejoin:round;stroke:rgb(0%,0%,0%);stroke-opacity:1;stroke-miterlimit:10;" d="M 368.001906 211.99925 L 370.236281 209.764875 L 371.130813 211.553937 Z M 368.001906 211.99925 " transform="matrix(1,0,0,-1,-131.498,236.218)"/>
<path style="fill:none;stroke-width:2;stroke-linecap:butt;stroke-linejoin:round;stroke:rgb(0%,0%,0%);stroke-opacity:1;stroke-miterlimit:10;" d="M 392.001906 143.99925 L 400.001906 147.99925 " transform="matrix(1,0,0,-1,-131.498,236.218)"/>
<path style="fill-rule:evenodd;fill:rgb(0%,0%,0%);fill-opacity:1;stroke-width:2;stroke-linecap:butt;stroke-linejoin:round;stroke:rgb(0%,0%,0%);stroke-opacity:1;stroke-miterlimit:10;" d="M 400.001906 147.99925 L 396.869094 147.553937 L 397.763625 145.764875 Z M 400.001906 147.99925 " transform="matrix(1,0,0,-1,-131.498,236.218)"/>
<path style="fill-rule:evenodd;fill:rgb(86.999512%,86.999512%,86.999512%);fill-opacity:1;stroke-width:0.8;stroke-linecap:butt;stroke-linejoin:round;stroke:rgb(0%,0%,0%);stroke-opacity:1;stroke-miterlimit:10;" d="M 328.001906 171.99925 L 336.001906 175.99925 L 340.001906 171.99925 L 332.001906 167.99925 Z M 328.001906 171.99925 " transform="matrix(1,0,0,-1,-131.498,236.218)"/>
<path style="fill-rule:evenodd;fill:rgb(86.999512%,86.999512%,86.999512%);fill-opacity:1;stroke-width:0.8;stroke-linecap:butt;stroke-linejoin:round;stroke:rgb(0%,0%,0%);stroke-opacity:1;stroke-miterlimit:10;" d="M 348.001906 219.99925 L 344.001906 223.99925 L 348.001906 231.99925 L 352.001906 227.99925 Z M 348.001906 219.99925 " transform="matrix(1,0,0,-1,-131.498,236.218)"/>
<path style="fill-rule:evenodd;fill:rgb(86.999512%,86.999512%,86.999512%);fill-opacity:1;stroke-width:0.8;stroke-linecap:butt;stroke-linejoin:round;stroke:rgb(0%,0%,0%);stroke-opacity:1;stroke-miterlimit:10;" d="M 400.001906 191.99925 L 400.001906 199.99925 L 408.001906 199.99925 L 408.001906 191.99925 Z M 400.001906 191.99925 " transform="matrix(1,0,0,-1,-131.498,236.218)"/>
<path style="fill-rule:evenodd;fill:rgb(86.999512%,86.999512%,86.999512%);fill-opacity:1;stroke-width:0.8;stroke-linecap:butt;stroke-linejoin:round;stroke:rgb(0%,0%,0%);stroke-opacity:1;stroke-miterlimit:10;" d="M 380.001906 151.99925 L 372.001906 159.99925 L 376.001906 163.99925 L 384.001906 155.99925 Z M 380.001906 151.99925 " transform="matrix(1,0,0,-1,-131.498,236.218)"/>
<path style="fill-rule:evenodd;fill:rgb(86.999512%,86.999512%,86.999512%);fill-opacity:1;stroke-width:0.8;stroke-linecap:butt;stroke-linejoin:round;stroke:rgb(0%,0%,0%);stroke-opacity:1;stroke-miterlimit:10;" d="M 360.001906 123.99925 L 364.001906 127.99925 L 372.001906 127.99925 L 368.001906 123.99925 Z M 360.001906 123.99925 " transform="matrix(1,0,0,-1,-131.498,236.218)"/>
<path style=" stroke:none;fill-rule:evenodd;fill:rgb(0%,0%,0%);fill-opacity:1;" d="M 190.003906 76.21875 C 190.003906 75.390625 189.328125 74.71875 188.503906 74.71875 C 187.675781 74.71875 187.003906 75.390625 187.003906 76.21875 C 187.003906 77.046875 187.675781 77.71875 188.503906 77.71875 C 189.328125 77.71875 190.003906 77.046875 190.003906 76.21875 "/>
<path style=" stroke:none;fill-rule:evenodd;fill:rgb(0%,0%,0%);fill-opacity:1;" d="M 190.300781 76.21875 C 190.300781 75.222656 189.496094 74.417969 188.503906 74.417969 C 187.507812 74.417969 186.703125 75.222656 186.703125 76.21875 C 186.703125 77.210938 187.507812 78.019531 188.503906 78.019531 C 189.496094 78.019531 190.300781 77.210938 190.300781 76.21875 M 189.703125 76.21875 C 189.703125 75.554688 189.164062 75.019531 188.503906 75.019531 C 187.839844 75.019531 187.300781 75.554688 187.300781 76.21875 C 187.300781 76.882812 187.839844 77.417969 188.503906 77.417969 C 189.164062 77.417969 189.703125 76.882812 189.703125 76.21875 "/>
<path style=" stroke:none;fill-rule:evenodd;fill:rgb(0%,0%,0%);fill-opacity:1;" d="M 202.003906 100.21875 C 202.003906 99.390625 201.328125 98.71875 200.503906 98.71875 C 199.675781 98.71875 199.003906 99.390625 199.003906 100.21875 C 199.003906 101.046875 199.675781 101.71875 200.503906 101.71875 C 201.328125 101.71875 202.003906 101.046875 202.003906 100.21875 "/>
<path style=" stroke:none;fill-rule:evenodd;fill:rgb(0%,0%,0%);fill-opacity:1;" d="M 202.300781 100.21875 C 202.300781 99.222656 201.496094 98.417969 200.503906 98.417969 C 199.507812 98.417969 198.703125 99.222656 198.703125 100.21875 C 198.703125 101.210938 199.507812 102.019531 200.503906 102.019531 C 201.496094 102.019531 202.300781 101.210938 202.300781 100.21875 M 201.703125 100.21875 C 201.703125 99.554688 201.164062 99.019531 200.503906 99.019531 C 199.839844 99.019531 199.300781 99.554688 199.300781 100.21875 C 199.300781 100.882812 199.839844 101.417969 200.503906 101.417969 C 201.164062 101.417969 201.703125 100.882812 201.703125 100.21875 "/>
<path style=" stroke:none;fill-rule:evenodd;fill:rgb(0%,0%,0%);fill-opacity:1;" d="M 262.003906 108.21875 C 262.003906 107.390625 261.328125 106.71875 260.503906 106.71875 C 259.675781 106.71875 259.003906 107.390625 259.003906 108.21875 C 259.003906 109.046875 259.675781 109.71875 260.503906 109.71875 C 261.328125 109.71875 262.003906 109.046875 262.003906 108.21875 "/>
<path style=" stroke:none;fill-rule:evenodd;fill:rgb(0%,0%,0%);fill-opacity:1;" d="M 262.300781 108.21875 C 262.300781 107.222656 261.496094 106.417969 260.503906 106.417969 C 259.507812 106.417969 258.703125 107.222656 258.703125 108.21875 C 258.703125 109.210938 259.507812 110.019531 260.503906 110.019531 C 261.496094 110.019531 262.300781 109.210938 262.300781 108.21875 M 261.703125 108.21875 C 261.703125 107.554688 261.164062 107.019531 260.503906 107.019531 C 259.839844 107.019531 259.300781 107.554688 259.300781 108.21875 C 259.300781 108.882812 259.839844 109.417969 260.503906 109.417969 C 261.164062 109.417969 261.703125 108.882812 261.703125 108.21875 "/>
<path style=" stroke:none;fill-rule:evenodd;fill:rgb(0%,0%,0%);fill-opacity:1;" d="M 282.003906 68.21875 C 282.003906 67.390625 281.328125 66.71875 280.503906 66.71875 C 279.675781 66.71875 279.003906 67.390625 279.003906 68.21875 C 279.003906 69.046875 279.675781 69.71875 280.503906 69.71875 C 281.328125 69.71875 282.003906 69.046875 282.003906 68.21875 "/>
<path style=" stroke:none;fill-rule:evenodd;fill:rgb(0%,0%,0%);fill-opacity:1;" d="M 282.300781 68.21875 C 282.300781 67.222656 281.496094 66.417969 280.503906 66.417969 C 279.507812 66.417969 278.703125 67.222656 278.703125 68.21875 C 278.703125 69.210938 279.507812 70.019531 280.503906 70.019531 C 281.496094 70.019531 282.300781 69.210938 282.300781 68.21875 M 281.703125 68.21875 C 281.703125 67.554688 281.164062 67.019531 280.503906 67.019531 C 279.839844 67.019531 279.300781 67.554688 279.300781 68.21875 C 279.300781 68.882812 279.839844 69.417969 280.503906 69.417969 C 281.164062 69.417969 281.703125 68.882812 281.703125 68.21875 "/>
<path style=" stroke:none;fill-rule:evenodd;fill:rgb(0%,0%,0%);fill-opacity:1;" d="M 270.003906 28.21875 C 270.003906 27.390625 269.328125 26.71875 268.503906 26.71875 C 267.675781 26.71875 267.003906 27.390625 267.003906 28.21875 C 267.003906 29.046875 267.675781 29.71875 268.503906 29.71875 C 269.328125 29.71875 270.003906 29.046875 270.003906 28.21875 "/>
<path style=" stroke:none;fill-rule:evenodd;fill:rgb(0%,0%,0%);fill-opacity:1;" d="M 270.300781 28.21875 C 270.300781 27.222656 269.496094 26.417969 268.503906 26.417969 C 267.507812 26.417969 266.703125 27.222656 266.703125 28.21875 C 266.703125 29.210938 267.507812 30.019531 268.503906 30.019531 C 269.496094 30.019531 270.300781 29.210938 270.300781 28.21875 M 269.703125 28.21875 C 269.703125 27.554688 269.164062 27.019531 268.503906 27.019531 C 267.839844 27.019531 267.300781 27.554688 267.300781 28.21875 C 267.300781 28.882812 267.839844 29.417969 268.503906 29.417969 C 269.164062 29.417969 269.703125 28.882812 269.703125 28.21875 "/>
<path style=" stroke:none;fill-rule:evenodd;fill:rgb(0%,0%,0%);fill-opacity:1;" d="M 222.003906 36.21875 C 222.003906 35.390625 221.328125 34.71875 220.503906 34.71875 C 219.675781 34.71875 219.003906 35.390625 219.003906 36.21875 C 219.003906 37.046875 219.675781 37.71875 220.503906 37.71875 C 221.328125 37.71875 222.003906 37.046875 222.003906 36.21875 "/>
<path style=" stroke:none;fill-rule:evenodd;fill:rgb(0%,0%,0%);fill-opacity:1;" d="M 222.300781 36.21875 C 222.300781 35.222656 221.496094 34.417969 220.503906 34.417969 C 219.507812 34.417969 218.703125 35.222656 218.703125 36.21875 C 218.703125 37.210938 219.507812 38.019531 220.503906 38.019531 C 221.496094 38.019531 222.300781 37.210938 222.300781 36.21875 M 221.703125 36.21875 C 221.703125 35.554688 221.164062 35.019531 220.503906 35.019531 C 219.839844 35.019531 219.300781 35.554688 219.300781 36.21875 C 219.300781 36.882812 219.839844 37.417969 220.503906 37.417969 C 221.164062 37.417969 221.703125 36.882812 221.703125 36.21875 "/>
</g>
</svg>
