<?xml version="1.0" encoding="UTF-8" standalone="no"?>
<svg
   xmlns:dc="http://purl.org/dc/elements/1.1/"
   xmlns:cc="http://creativecommons.org/ns#"
   xmlns:rdf="http://www.w3.org/1999/02/22-rdf-syntax-ns#"
   xmlns:svg="http://www.w3.org/2000/svg"
   xmlns="http://www.w3.org/2000/svg"
   xmlns:sodipodi="http://sodipodi.sourceforge.net/DTD/sodipodi-0.dtd"
   xmlns:inkscape="http://www.inkscape.org/namespaces/inkscape"
   width="64.4pt"
   height="64.4pt"
   viewBox="0 0 64.4 64.4"
   version="1.1"
   id="svg2"
   inkscape:version="0.91 r13725"
   sodipodi:docname="definition.svg">
  <metadata
     id="metadata18">
    <rdf:RDF>
      <cc:Work
         rdf:about="">
        <dc:format>image/svg+xml</dc:format>
        <dc:type
           rdf:resource="http://purl.org/dc/dcmitype/StillImage" />
        <dc:title></dc:title>
      </cc:Work>
    </rdf:RDF>
  </metadata>
  <sodipodi:namedview
     pagecolor="#ffffff"
     bordercolor="#666666"
     borderopacity="1"
     objecttolerance="10"
     gridtolerance="10"
     guidetolerance="10"
     inkscape:pageopacity="0"
     inkscape:pageshadow="2"
     inkscape:window-width="640"
     inkscape:window-height="480"
     id="namedview16"
     showgrid="false"
     inkscape:zoom="2.9316769"
     inkscape:cx="40.250001"
     inkscape:cy="40.250001"
     inkscape:window-x="0"
     inkscape:window-y="0"
     inkscape:window-maximized="0"
     inkscape:current-layer="svg2" />
  <defs
     id="defs4">
    <clipPath
       id="clip1">
      <path
         d="M 0 0 L 64.398438 0 L 64.398438 64.398438 L 0 64.398438 Z M 0 0 "
         id="path7" />
    </clipPath>
  </defs>
  <g
     id="surface1"
     style="opacity:0.5">
    <g
       clip-path="url(#clip1)"
       clip-rule="nonzero"
       id="g10"
       style="">
      <path
         style="stroke:none;fill-rule:evenodd;fill:rgb(100%, 100%, 100%);fill-opacity:1"
         d="M 0.199219 0.199219 L 0.199219 64.199219 L 64.199219 64.199219 L 64.199219 0.199219 Z M 0.199219 0.199219 "
         id="path12" />
    </g>
    <path
       style="fill-rule:evenodd;fill:rgb(87%, 0%, 32%);fill-opacity:1;stroke-width:3;stroke-linecap:butt;stroke-linejoin:round;stroke:rgb(87%, 0%, 32%);stroke-opacity:1;stroke-miterlimit:10"
       d="M 205.948438 650.340625 C 205.948438 650.340625 205.948438 650.340625 207.753125 653.348438 C 209.561719 656.35625 213.171094 662.371875 216.178906 669.594531 C 219.186719 676.813281 221.592969 685.235156 222.796094 689.446094 C 223.999219 693.660938 223.999219 693.660938 223.999219 693.660938 C 223.999219 693.660938 223.999219 693.660938 225.202344 689.446094 C 226.405469 685.235156 228.811719 676.813281 231.823438 669.594531 C 234.83125 662.371875 238.440625 656.35625 240.245313 653.348438 C 242.05 650.340625 242.05 650.340625 242.05 650.340625 C 242.05 650.340625 242.05 650.340625 236.034375 650.340625 C 230.01875 650.340625 217.983594 650.340625 211.967969 650.340625 C 205.948438 650.340625 205.948438 650.340625 205.948438 650.340625 Z M 205.948438 650.340625 "
       transform="matrix(1,0,0,-1,-191.8,704.2)"
       id="path14" />
  </g>
</svg>
