<?xml version="1.0" encoding="UTF-8"?>
<svg xmlns="http://www.w3.org/2000/svg" xmlns:xlink="http://www.w3.org/1999/xlink" width="112.4282pt" height="112.434pt" viewBox="0 0 112.4282 112.434" version="1.1">
<g id="surface1">
<path style=" stroke:none;fill-rule:evenodd;fill:rgb(70.199585%,1.599121%,41.19873%);fill-opacity:1;" d="M 70.476562 108.003906 C 70.476562 108.003906 70.476562 108.003906 70.015625 106.546875 C 69.554688 105.09375 68.632812 102.179688 67.707031 99.441406 C 66.777344 96.703125 65.847656 94.136719 64.835938 91.53125 C 63.828125 88.925781 62.738281 86.277344 61.457031 83.375 C 60.171875 80.472656 58.691406 77.3125 57.542969 74.9375 C 56.390625 72.558594 55.570312 70.964844 54.742188 69.414062 C 53.914062 67.863281 53.078125 66.351562 52.664062 65.597656 C 52.246094 64.84375 52.246094 64.84375 52.246094 64.84375 C 52.246094 64.84375 52.246094 64.84375 53.125 64.03125 C 54 63.21875 55.757812 61.59375 57.835938 59.828125 C 59.917969 58.0625 62.320312 56.15625 64.832031 54.335938 C 67.339844 52.515625 69.957031 50.78125 72.730469 49.121094 C 75.507812 47.457031 78.441406 45.863281 81.449219 44.40625 C 84.457031 42.953125 87.535156 41.636719 90.859375 40.410156 C 94.183594 39.183594 97.753906 38.046875 100.300781 37.292969 C 102.847656 36.535156 104.367188 36.160156 105.128906 35.976562 C 105.886719 35.785156 105.886719 35.785156 105.886719 35.785156 C 105.886719 35.785156 105.886719 35.785156 106.25 36.847656 C 106.605469 37.90625 107.324219 40.027344 107.925781 42.296875 C 108.523438 44.566406 109.003906 46.988281 109.308594 49.027344 C 109.617188 51.070312 109.753906 52.730469 109.800781 54.539062 C 109.847656 56.351562 109.804688 58.308594 109.601562 60.53125 C 109.398438 62.757812 109.03125 65.253906 108.546875 67.566406 C 108.058594 69.882812 107.449219 72.015625 106.792969 73.9375 C 106.132812 75.859375 105.425781 77.566406 104.777344 78.988281 C 104.128906 80.410156 103.539062 81.546875 102.875 82.714844 C 102.207031 83.882812 101.460938 85.085938 100.648438 86.285156 C 99.832031 87.488281 98.945312 88.683594 97.972656 89.886719 C 96.996094 91.089844 95.925781 92.296875 94.632812 93.605469 C 93.339844 94.910156 91.820312 96.316406 90.359375 97.539062 C 88.902344 98.761719 87.507812 99.796875 85.925781 100.835938 C 84.347656 101.875 82.582031 102.914062 79.976562 104.109375 C 77.371094 105.304688 73.921875 106.652344 72.199219 107.328125 C 70.476562 108.003906 70.476562 108.003906 70.476562 108.003906 Z M 70.476562 108.003906 "/>
<path style=" stroke:none;fill-rule:evenodd;fill:rgb(12.199402%,47.799683%,100%);fill-opacity:1;" d="M 17.132812 19.371094 C 17.132812 19.371094 17.132812 19.371094 18.300781 20.5625 C 19.46875 21.753906 21.808594 24.140625 24.125 26.632812 C 26.445312 29.128906 28.746094 31.730469 31.074219 34.515625 C 33.402344 37.296875 35.757812 40.261719 38.03125 43.296875 C 40.308594 46.332031 42.503906 49.441406 44.859375 53.042969 C 47.214844 56.644531 49.730469 60.742188 50.988281 62.792969 C 52.246094 64.84375 52.246094 64.84375 52.246094 64.84375 C 52.246094 64.84375 52.246094 64.84375 50.988281 66.21875 C 49.726562 67.597656 47.207031 70.351562 44.992188 72.992188 C 42.78125 75.632812 40.875 78.15625 39.277344 80.425781 C 37.675781 82.695312 36.386719 84.710938 34.945312 87.207031 C 33.507812 89.699219 31.917969 92.671875 30.679688 95.171875 C 29.441406 97.671875 28.550781 99.695312 28.105469 100.710938 C 27.660156 101.722656 27.660156 101.722656 27.660156 101.722656 C 27.660156 101.722656 27.660156 101.722656 26.65625 100.992188 C 25.65625 100.261719 23.648438 98.796875 21.425781 96.8125 C 19.199219 94.828125 16.75 92.324219 14.683594 89.816406 C 12.617188 87.304688 10.929688 84.789062 9.417969 82.007812 C 7.90625 79.222656 6.566406 76.171875 5.515625 72.964844 C 4.460938 69.757812 3.695312 66.394531 3.261719 62.960938 C 2.828125 59.53125 2.722656 56.03125 2.925781 52.699219 C 3.125 49.367188 3.628906 46.199219 4.207031 43.59375 C 4.785156 40.984375 5.4375 38.933594 6.367188 36.648438 C 7.296875 34.367188 8.503906 31.851562 9.730469 29.65625 C 10.957031 27.460938 12.199219 25.585938 13.4375 23.925781 C 14.671875 22.265625 15.902344 20.816406 16.515625 20.09375 C 17.132812 19.371094 17.132812 19.371094 17.132812 19.371094 Z M 17.132812 19.371094 "/>
<path style=" stroke:none;fill-rule:evenodd;fill:rgb(19.198608%,70.199585%,1.599121%);fill-opacity:1;" d="M 27.660156 101.722656 C 27.660156 101.722656 27.660156 101.722656 28.105469 100.710938 C 28.550781 99.695312 29.441406 97.671875 30.679688 95.171875 C 31.917969 92.671875 33.507812 89.699219 34.945312 87.207031 C 36.386719 84.710938 37.675781 82.695312 39.277344 80.425781 C 40.875 78.15625 42.78125 75.632812 44.992188 72.992188 C 47.207031 70.351562 49.726562 67.597656 50.988281 66.21875 C 52.246094 64.84375 52.246094 64.84375 52.246094 64.84375 C 52.246094 64.84375 52.246094 64.84375 53.074219 66.394531 C 53.902344 67.945312 55.558594 71.050781 57.125 74.179688 C 58.691406 77.3125 60.171875 80.472656 61.457031 83.375 C 62.738281 86.277344 63.828125 88.925781 64.835938 91.53125 C 65.847656 94.136719 66.777344 96.703125 67.707031 99.441406 C 68.632812 102.179688 69.554688 105.09375 70.015625 106.546875 C 70.476562 108.003906 70.476562 108.003906 70.476562 108.003906 C 70.476562 108.003906 70.476562 108.003906 69.292969 108.242188 C 68.113281 108.480469 65.75 108.960938 62.65625 109.253906 C 59.566406 109.542969 55.75 109.648438 52.582031 109.511719 C 49.414062 109.371094 46.894531 108.992188 45.089844 108.660156 C 43.285156 108.328125 42.195312 108.050781 40.417969 107.445312 C 38.640625 106.839844 36.171875 105.914062 34.523438 105.246094 C 32.875 104.582031 32.050781 104.175781 31.042969 103.632812 C 30.035156 103.085938 28.847656 102.40625 28.253906 102.0625 C 27.660156 101.722656 27.660156 101.722656 27.660156 101.722656 Z M 27.660156 101.722656 "/>
<path style=" stroke:none;fill-rule:evenodd;fill:rgb(100%,57.998657%,13.699341%);fill-opacity:1;" d="M 55.402344 2.5 C 55.402344 2.5 55.402344 2.5 56.816406 2.59375 C 58.234375 2.6875 61.066406 2.875 63.90625 3.292969 C 66.742188 3.714844 69.585938 4.363281 72.671875 5.40625 C 75.757812 6.453125 79.082031 7.890625 81.757812 9.265625 C 84.4375 10.644531 86.460938 11.960938 88.433594 13.457031 C 90.40625 14.953125 92.328125 16.632812 94.101562 18.402344 C 95.871094 20.171875 97.488281 22.035156 98.78125 23.679688 C 100.078125 25.320312 101.046875 26.742188 101.867188 28.058594 C 102.691406 29.371094 103.367188 30.582031 104.015625 31.851562 C 104.660156 33.121094 105.273438 34.453125 105.582031 35.121094 C 105.886719 35.785156 105.886719 35.785156 105.886719 35.785156 C 105.886719 35.785156 105.886719 35.785156 104.277344 36.011719 C 102.664062 36.234375 99.441406 36.683594 96.097656 36.714844 C 92.757812 36.746094 89.292969 36.359375 86.609375 35.859375 C 83.925781 35.355469 82.019531 34.734375 79.980469 33.859375 C 77.941406 32.984375 75.769531 31.855469 73.914062 30.714844 C 72.058594 29.574219 70.519531 28.425781 69.015625 27.109375 C 67.511719 25.796875 66.050781 24.316406 64.734375 22.773438 C 63.414062 21.230469 62.246094 19.621094 61.269531 18.101562 C 60.296875 16.578125 59.519531 15.148438 58.878906 13.804688 C 58.234375 12.460938 57.722656 11.207031 57.28125 9.933594 C 56.839844 8.660156 56.464844 7.367188 56.164062 6.125 C 55.859375 4.882812 55.632812 3.691406 55.515625 3.097656 C 55.402344 2.5 55.402344 2.5 55.402344 2.5 Z M 55.402344 2.5 "/>
<path style=" stroke:none;fill-rule:evenodd;fill:rgb(9.399414%,9.399414%,14.099121%);fill-opacity:1;" d="M 17.132812 19.371094 C 17.132812 19.371094 17.132812 19.371094 18.300781 20.5625 C 19.46875 21.753906 21.808594 24.140625 24.125 26.632812 C 26.445312 29.128906 28.746094 31.730469 31.074219 34.515625 C 33.402344 37.296875 35.757812 40.261719 38.03125 43.296875 C 40.308594 46.332031 42.503906 49.441406 44.859375 53.042969 C 47.214844 56.644531 49.730469 60.742188 50.988281 62.792969 C 52.246094 64.84375 52.246094 64.84375 52.246094 64.84375 C 52.246094 64.84375 52.246094 64.84375 53.125 64.03125 C 54 63.21875 55.757812 61.59375 57.835938 59.828125 C 59.917969 58.0625 62.320312 56.15625 64.625 54.492188 C 66.925781 52.824219 69.121094 51.398438 71.515625 49.953125 C 73.914062 48.507812 76.507812 47.046875 79.058594 45.726562 C 81.613281 44.410156 84.128906 43.238281 86.046875 42.359375 C 87.964844 41.484375 89.289062 40.902344 91.191406 40.21875 C 93.09375 39.535156 95.578125 38.753906 98.125 38 C 100.671875 37.246094 103.28125 36.515625 104.585938 36.152344 C 105.886719 35.785156 105.886719 35.785156 105.886719 35.785156 C 105.886719 35.785156 105.886719 35.785156 104.277344 36.011719 C 102.664062 36.234375 99.441406 36.683594 96.097656 36.714844 C 92.757812 36.746094 89.292969 36.359375 86.609375 35.859375 C 83.925781 35.355469 82.019531 34.734375 79.980469 33.859375 C 77.941406 32.984375 75.769531 31.855469 73.914062 30.714844 C 72.058594 29.574219 70.519531 28.425781 69.015625 27.109375 C 67.511719 25.796875 66.050781 24.316406 64.734375 22.773438 C 63.414062 21.230469 62.246094 19.621094 61.269531 18.101562 C 60.296875 16.578125 59.519531 15.148438 58.878906 13.804688 C 58.234375 12.460938 57.722656 11.207031 57.28125 9.933594 C 56.839844 8.660156 56.464844 7.367188 56.164062 6.125 C 55.859375 4.882812 55.632812 3.691406 55.515625 3.097656 C 55.402344 2.5 55.402344 2.5 55.402344 2.5 C 55.402344 2.5 55.402344 2.5 54.453125 2.566406 C 53.5 2.628906 51.601562 2.761719 49.753906 2.980469 C 47.902344 3.203125 46.109375 3.515625 44.34375 3.914062 C 42.578125 4.316406 40.84375 4.804688 39.660156 5.164062 C 38.480469 5.519531 37.847656 5.742188 36.664062 6.238281 C 35.480469 6.734375 33.742188 7.496094 32.269531 8.214844 C 30.800781 8.929688 29.597656 9.597656 28.449219 10.289062 C 27.300781 10.980469 26.207031 11.699219 25.03125 12.546875 C 23.859375 13.390625 22.601562 14.367188 21.273438 15.523438 C 19.941406 16.683594 18.535156 18.027344 17.835938 18.699219 C 17.132812 19.371094 17.132812 19.371094 17.132812 19.371094 Z M 17.132812 19.371094 "/>
<path style="fill:none;stroke-width:4;stroke-linecap:butt;stroke-linejoin:round;stroke:rgb(100%,100%,100%);stroke-opacity:1;stroke-miterlimit:10;" d="M 152.060487 764.97125 C 152.060487 794.635313 128.009706 818.686094 98.345644 818.686094 C 68.677675 818.686094 44.6308 794.635313 44.6308 764.97125 C 44.6308 735.303281 68.677675 711.256406 98.345644 711.256406 C 128.009706 711.256406 152.060487 735.303281 152.060487 764.97125 " transform="matrix(1,0,0,-1,-42.1308,821.19)"/>
<path style="fill:none;stroke-width:4;stroke-linecap:butt;stroke-linejoin:round;stroke:rgb(100%,100%,100%);stroke-opacity:1;stroke-miterlimit:10;" d="M 59.263613 801.818906 C 84.41205 777.389219 102.794862 746.850156 112.607362 713.186094 " transform="matrix(1,0,0,-1,-42.1308,821.19)"/>
<path style="fill:none;stroke-width:4;stroke-linecap:butt;stroke-linejoin:round;stroke:rgb(100%,100%,100%);stroke-opacity:1;stroke-miterlimit:10;" d="M 69.790956 719.467344 C 83.16205 752.623594 111.915956 777.135313 146.767519 785.100156 " transform="matrix(1,0,0,-1,-42.1308,821.19)"/>
<path style="fill:none;stroke-width:4;stroke-linecap:butt;stroke-linejoin:round;stroke:rgb(100%,100%,100%);stroke-opacity:1;stroke-miterlimit:10;" d="M 97.533144 818.69 C 100.771425 796.545469 121.361269 781.229063 143.5058 784.482969 C 145.025331 784.705625 146.533144 785.014219 148.017519 785.412656 " transform="matrix(1,0,0,-1,-42.1308,821.19)"/>
</g>
</svg>
