<?xml version="1.0" encoding="UTF-8"?>
<svg xmlns="http://www.w3.org/2000/svg" xmlns:xlink="http://www.w3.org/1999/xlink" width="97.4pt" height="97.4pt" viewBox="0 0 97.4 97.4" version="1.1">
<g id="surface1">
<path style=" stroke:none;fill-rule:evenodd;fill:rgb(0%,54.499817%,54.499817%);fill-opacity:1;" d="M 0.699219 16.699219 C 0.699219 22.03125 0.699219 27.367188 0.699219 32.699219 C 0.699219 38.03125 0.699219 43.367188 0.699219 48.699219 C 0.699219 54.03125 0.699219 59.367188 0.699219 64.699219 C 0.699219 70.03125 0.699219 75.367188 0.699219 80.699219 C 0.699219 86.03125 0.699219 91.367188 3.367188 94.03125 C 6.03125 96.699219 11.367188 96.699219 16.699219 96.699219 C 22.03125 96.699219 27.367188 96.699219 32.699219 96.699219 C 38.03125 96.699219 43.367188 96.699219 48.699219 96.699219 C 54.03125 96.699219 59.367188 96.699219 64.699219 96.699219 C 70.03125 96.699219 75.367188 96.699219 80.699219 96.699219 C 86.03125 96.699219 91.367188 96.699219 94.03125 94.03125 C 96.699219 91.367188 96.699219 86.03125 96.699219 80.699219 C 96.699219 75.367188 96.699219 70.03125 96.699219 64.699219 C 96.699219 59.367188 96.699219 54.03125 96.699219 48.699219 C 96.699219 43.367188 96.699219 38.03125 96.699219 32.699219 C 96.699219 27.367188 96.699219 22.03125 96.699219 16.699219 C 96.699219 11.367188 96.699219 6.03125 94.03125 3.367188 C 91.367188 0.699219 86.03125 0.699219 80.699219 0.699219 C 75.367188 0.699219 70.03125 0.699219 64.699219 0.699219 C 59.367188 0.699219 54.03125 0.699219 48.699219 0.699219 C 43.367188 0.699219 38.03125 0.699219 32.699219 0.699219 C 27.367188 0.699219 22.03125 0.699219 16.699219 0.699219 C 11.367188 0.699219 6.03125 0.699219 3.367188 3.367188 C 0.699219 6.03125 0.699219 11.367188 0.699219 16.699219 Z M 0.699219 16.699219 "/>
<path style="fill:none;stroke-width:4;stroke-linecap:butt;stroke-linejoin:round;stroke:rgb(100%,100%,100%);stroke-opacity:1;stroke-miterlimit:10;" d="M 435.999219 668.000781 C 435.999219 676.836719 428.835156 684.000781 419.999219 684.000781 C 411.163281 684.000781 403.999219 676.836719 403.999219 668.000781 C 403.999219 659.164844 411.163281 652.000781 419.999219 652.000781 C 428.835156 652.000781 435.999219 659.164844 435.999219 668.000781 " transform="matrix(1,0,0,-1,-383.3,704.7)"/>
<path style="fill:none;stroke-width:7;stroke-linecap:butt;stroke-linejoin:round;stroke:rgb(100%,100%,100%);stroke-opacity:1;stroke-miterlimit:10;" d="M 431.999219 656.000781 L 455.999219 632.000781 " transform="matrix(1,0,0,-1,-383.3,704.7)"/>
<path style="fill:none;stroke-width:2;stroke-linecap:round;stroke-linejoin:round;stroke:rgb(100%,100%,100%);stroke-opacity:1;stroke-miterlimit:10;" d="M 419.999219 680.000781 C 424.546094 680.000781 428.698438 677.430469 430.733594 673.367969 " transform="matrix(1,0,0,-1,-383.3,704.7)"/>
</g>
</svg>
