<?xml version="1.0" encoding="UTF-8"?>
<svg xmlns="http://www.w3.org/2000/svg" xmlns:xlink="http://www.w3.org/1999/xlink" width="64.4pt" height="64.4pt" viewBox="0 0 64.4 64.4" version="1.1">
<defs>
<clipPath id="clip1">
  <path d="M 0 0 L 64.398438 0 L 64.398438 64.398438 L 0 64.398438 Z M 0 0 "/>
</clipPath>
</defs>
<g id="surface1">
<g clip-path="url(#clip1)" clip-rule="nonzero">
<path style=" stroke:none;fill-rule:evenodd;fill:rgb(100%,100%,100%);fill-opacity:1;" d="M 0.199219 0.199219 L 0.199219 64.199219 L 64.199219 64.199219 L 64.199219 0.199219 Z M 0.199219 0.199219 "/>
</g>
<path style="fill-rule:evenodd;fill:rgb(87.098694%,0.39978%,32.899475%);fill-opacity:1;stroke-width:3;stroke-linecap:butt;stroke-linejoin:round;stroke:rgb(87.098694%,0.39978%,32.899475%);stroke-opacity:1;stroke-miterlimit:10;" d="M 205.948438 650.340625 C 205.948438 650.340625 205.948438 650.340625 207.753125 653.348438 C 209.561719 656.35625 213.171094 662.371875 216.178906 669.594531 C 219.186719 676.813281 221.592969 685.235156 222.796094 689.446094 C 223.999219 693.660938 223.999219 693.660938 223.999219 693.660938 C 223.999219 693.660938 223.999219 693.660938 225.202344 689.446094 C 226.405469 685.235156 228.811719 676.813281 231.823438 669.594531 C 234.83125 662.371875 238.440625 656.35625 240.245313 653.348438 C 242.05 650.340625 242.05 650.340625 242.05 650.340625 C 242.05 650.340625 242.05 650.340625 236.034375 650.340625 C 230.01875 650.340625 217.983594 650.340625 211.967969 650.340625 C 205.948438 650.340625 205.948438 650.340625 205.948438 650.340625 Z M 205.948438 650.340625 " transform="matrix(1,0,0,-1,-191.8,704.2)"/>
</g>
</svg>
