<?xml version="1.0" encoding="UTF-8" standalone="no"?>
<!-- Created with Inkscape (http://www.inkscape.org/) -->

<svg
   xmlns:dc="http://purl.org/dc/elements/1.1/"
   xmlns:cc="http://creativecommons.org/ns#"
   xmlns:rdf="http://www.w3.org/1999/02/22-rdf-syntax-ns#"
   xmlns:svg="http://www.w3.org/2000/svg"
   xmlns="http://www.w3.org/2000/svg"
   xmlns:sodipodi="http://sodipodi.sourceforge.net/DTD/sodipodi-0.dtd"
   xmlns:inkscape="http://www.inkscape.org/namespaces/inkscape"
   width="21.512924mm"
   height="21.611256mm"
   viewBox="0 0 76.226897 76.575315"
   id="svg2"
   version="1.1"
   inkscape:version="0.91 r13725"
   sodipodi:docname="facebook.svg">
  <defs
     id="defs4" />
  <sodipodi:namedview
     id="base"
     pagecolor="#ffffff"
     bordercolor="#666666"
     borderopacity="1.0"
     inkscape:pageopacity="0.0"
     inkscape:pageshadow="2"
     inkscape:zoom="1.979899"
     inkscape:cx="140.76098"
     inkscape:cy="99.419104"
     inkscape:document-units="px"
     inkscape:current-layer="layer1"
     showgrid="false"
     inkscape:window-width="1280"
     inkscape:window-height="737"
     inkscape:window-x="-8"
     inkscape:window-y="-8"
     inkscape:window-maximized="1"
     fit-margin-top="0"
     fit-margin-left="0"
     fit-margin-right="0"
     fit-margin-bottom="0" />
  <metadata
     id="metadata7">
    <rdf:RDF>
      <cc:Work
         rdf:about="">
        <dc:format>image/svg+xml</dc:format>
        <dc:type
           rdf:resource="http://purl.org/dc/dcmitype/StillImage" />
        <dc:title></dc:title>
      </cc:Work>
    </rdf:RDF>
  </metadata>
  <g
     inkscape:label="Capa 1"
     inkscape:groupmode="layer"
     id="layer1"
     transform="translate(-611.31883,-877.96372)">
    <path
       style="fill:#0000ff"
       d="m 641.19404,953.49961 c -11.25869,-2.72336 -21.08635,-10.55081 -26.23232,-20.89331 -3.04704,-6.12401 -3.6417,-8.84906 -3.64289,-16.6937 -0.002,-15.62523 7.6327,-27.87851 21.54851,-34.58251 5.81482,-2.80131 8.7484,-3.40131 16.4517,-3.36484 11.90045,0.0563 19.18313,3.15873 27.52918,11.72731 11.43363,11.73847 13.89197,28.31608 6.45643,43.53844 -3.43328,7.02879 -12.16418,15.54281 -18.04811,17.59981 l -3.4375,1.20174 0,-11.18498 0,-11.18497 4.375,0 c 2.87879,0 4.375,-0.5878 4.375,-1.71875 0,-0.94531 0.35156,-3.47656 0.78125,-5.625 0.77545,-3.87723 0.74239,-3.90625 -4.45046,-3.90625 l -5.2317,0 0.38795,-4.6875 c 0.36689,-4.43295 0.64251,-4.70857 5.07546,-5.07546 l 4.6875,-0.38795 0,-6.17455 0,-6.17454 -5.12359,0 c -10.83688,0 -17.37641,6.83077 -17.37641,18.15029 0,4.13776 -0.21318,4.34971 -4.375,4.34971 -4.35185,0 -4.375,0.0298 -4.375,5.625 0,5.59524 0.0231,5.625 4.375,5.625 l 4.375,0 0,12.5 c 0,13.72009 0.25514,13.36408 -8.125,11.33701 z"
       id="path3347"
       inkscape:connector-curvature="0" />
  </g>
</svg>
