<?xml version="1.0" encoding="UTF-8"?>
<svg xmlns="http://www.w3.org/2000/svg" xmlns:xlink="http://www.w3.org/1999/xlink" width="49.396pt" height="49.396pt" viewBox="0 0 49.396 49.396" version="1.1">
<g id="surface1">
<path style=" stroke:none;fill-rule:evenodd;fill:rgb(100%,84.298706%,0%);fill-opacity:1;" d="M 48.695312 24.699219 C 48.695312 11.445312 37.953125 0.699219 24.699219 0.699219 C 11.445312 0.699219 0.699219 11.445312 0.699219 24.699219 C 0.699219 37.953125 11.445312 48.695312 24.699219 48.695312 C 37.953125 48.695312 48.695312 37.953125 48.695312 24.699219 "/>
<path style="fill:none;stroke-width:3;stroke-linecap:butt;stroke-linejoin:round;stroke:rgb(100%,100%,100%);stroke-opacity:1;stroke-miterlimit:10;" d="M 332.997313 427.889406 C 329.618406 433.522219 321.091063 434.506594 313.954344 430.092531 C 306.817625 425.674562 303.77075 417.530031 307.149656 411.897219 C 310.528563 406.264406 319.055906 405.280031 326.192625 409.694094 C 333.33325 414.112062 336.380125 422.256594 332.997313 427.889406 " transform="matrix(1,0,0,-1,-295.302,444.698)"/>
<path style=" stroke:none;fill-rule:evenodd;fill:rgb(100%,84.298706%,0%);fill-opacity:1;" d="M 27.804688 12.265625 C 27.804688 10.332031 26.238281 8.765625 24.304688 8.765625 C 22.371094 8.765625 20.804688 10.332031 20.804688 12.265625 C 20.804688 14.199219 22.371094 15.765625 24.304688 15.765625 C 26.238281 15.765625 27.804688 14.199219 27.804688 12.265625 "/>
<path style=" stroke:none;fill-rule:evenodd;fill:rgb(100%,100%,100%);fill-opacity:1;" d="M 28.507812 12.265625 C 28.507812 9.945312 26.625 8.066406 24.304688 8.066406 C 21.984375 8.066406 20.105469 9.945312 20.105469 12.265625 C 20.105469 14.585938 21.984375 16.464844 24.304688 16.464844 C 26.625 16.464844 28.507812 14.585938 28.507812 12.265625 M 27.105469 12.265625 C 27.105469 10.71875 25.851562 9.464844 24.304688 9.464844 C 22.761719 9.464844 21.507812 10.71875 21.507812 12.265625 C 21.507812 13.8125 22.761719 15.066406 24.304688 15.066406 C 25.851562 15.066406 27.105469 13.8125 27.105469 12.265625 "/>
<path style=" stroke:none;fill-rule:evenodd;fill:rgb(100%,84.298706%,0%);fill-opacity:1;" d="M 41.625 17.609375 C 41.625 15.675781 40.058594 14.109375 38.125 14.109375 C 36.191406 14.109375 34.625 15.675781 34.625 17.609375 C 34.625 19.542969 36.191406 21.109375 38.125 21.109375 C 40.058594 21.109375 41.625 19.542969 41.625 17.609375 "/>
<path style=" stroke:none;fill-rule:evenodd;fill:rgb(100%,100%,100%);fill-opacity:1;" d="M 42.324219 17.609375 C 42.324219 15.289062 40.445312 13.410156 38.125 13.410156 C 35.808594 13.410156 33.925781 15.289062 33.925781 17.609375 C 33.925781 19.929688 35.808594 21.808594 38.125 21.808594 C 40.445312 21.808594 42.324219 19.929688 42.324219 17.609375 M 40.925781 17.609375 C 40.925781 16.0625 39.671875 14.808594 38.125 14.808594 C 36.578125 14.808594 35.324219 16.0625 35.324219 17.609375 C 35.324219 19.15625 36.578125 20.410156 38.125 20.410156 C 39.671875 20.410156 40.925781 19.15625 40.925781 17.609375 "/>
<path style=" stroke:none;fill-rule:evenodd;fill:rgb(100%,84.298706%,0%);fill-opacity:1;" d="M 38.902344 31.128906 C 38.902344 29.195312 37.335938 27.628906 35.402344 27.628906 C 33.46875 27.628906 31.902344 29.195312 31.902344 31.128906 C 31.902344 33.0625 33.46875 34.628906 35.402344 34.628906 C 37.335938 34.628906 38.902344 33.0625 38.902344 31.128906 "/>
<path style=" stroke:none;fill-rule:evenodd;fill:rgb(100%,100%,100%);fill-opacity:1;" d="M 39.601562 31.128906 C 39.601562 28.8125 37.722656 26.929688 35.402344 26.929688 C 33.082031 26.929688 31.203125 28.8125 31.203125 31.128906 C 31.203125 33.449219 33.082031 35.328125 35.402344 35.328125 C 37.722656 35.328125 39.601562 33.449219 39.601562 31.128906 M 38.203125 31.128906 C 38.203125 29.585938 36.949219 28.328125 35.402344 28.328125 C 33.855469 28.328125 32.601562 29.585938 32.601562 31.128906 C 32.601562 32.675781 33.855469 33.929688 35.402344 33.929688 C 36.949219 33.929688 38.203125 32.675781 38.203125 31.128906 "/>
<path style=" stroke:none;fill-rule:evenodd;fill:rgb(100%,84.298706%,0%);fill-opacity:1;" d="M 22.046875 37.429688 C 22.046875 35.496094 20.480469 33.929688 18.546875 33.929688 C 16.613281 33.929688 15.046875 35.496094 15.046875 37.429688 C 15.046875 39.363281 16.613281 40.929688 18.546875 40.929688 C 20.480469 40.929688 22.046875 39.363281 22.046875 37.429688 "/>
<path style=" stroke:none;fill-rule:evenodd;fill:rgb(100%,100%,100%);fill-opacity:1;" d="M 22.746094 37.429688 C 22.746094 35.109375 20.863281 33.230469 18.546875 33.230469 C 16.226562 33.230469 14.347656 35.109375 14.347656 37.429688 C 14.347656 39.75 16.226562 41.628906 18.546875 41.628906 C 20.863281 41.628906 22.746094 39.75 22.746094 37.429688 M 21.347656 37.429688 C 21.347656 35.882812 20.09375 34.628906 18.546875 34.628906 C 17 34.628906 15.746094 35.882812 15.746094 37.429688 C 15.746094 38.976562 17 40.230469 18.546875 40.230469 C 20.09375 40.230469 21.347656 38.976562 21.347656 37.429688 "/>
<path style=" stroke:none;fill-rule:evenodd;fill:rgb(100%,84.298706%,0%);fill-opacity:1;" d="M 14.632812 23.730469 C 14.632812 21.796875 13.066406 20.230469 11.132812 20.230469 C 9.199219 20.230469 7.632812 21.796875 7.632812 23.730469 C 7.632812 25.664062 9.199219 27.230469 11.132812 27.230469 C 13.066406 27.230469 14.632812 25.664062 14.632812 23.730469 "/>
<path style=" stroke:none;fill-rule:evenodd;fill:rgb(100%,100%,100%);fill-opacity:1;" d="M 15.335938 23.730469 C 15.335938 21.410156 13.453125 19.53125 11.132812 19.53125 C 8.816406 19.53125 6.933594 21.410156 6.933594 23.730469 C 6.933594 26.050781 8.816406 27.929688 11.132812 27.929688 C 13.453125 27.929688 15.335938 26.050781 15.335938 23.730469 M 13.933594 23.730469 C 13.933594 22.183594 12.679688 20.929688 11.132812 20.929688 C 9.589844 20.929688 8.335938 22.183594 8.335938 23.730469 C 8.335938 25.277344 9.589844 26.53125 11.132812 26.53125 C 12.679688 26.53125 13.933594 25.277344 13.933594 23.730469 "/>
</g>
</svg>
