<?xml version="1.0" encoding="UTF-8"?>
<svg xmlns="http://www.w3.org/2000/svg" xmlns:xlink="http://www.w3.org/1999/xlink" width="64.4pt" height="64.4pt" viewBox="0 0 64.4 64.4" version="1.1">
<defs>
<clipPath id="clip1">
  <path d="M 0 0 L 64.398438 0 L 64.398438 64.398438 L 0 64.398438 Z M 0 0 "/>
</clipPath>
</defs>
<g id="surface1">
<g clip-path="url(#clip1)" clip-rule="nonzero">
<path style=" stroke:none;fill-rule:evenodd;fill:rgb(100%,100%,100%);fill-opacity:1;" d="M 0.199219 0.199219 L 0.199219 64.199219 L 64.199219 64.199219 L 64.199219 0.199219 Z M 0.199219 0.199219 "/>
</g>
<path style=" stroke:none;fill-rule:evenodd;fill:rgb(50.19989%,0%,50.19989%);fill-opacity:1;" d="M 38.800781 36.199219 C 38.800781 32.554688 35.84375 29.601562 32.199219 29.601562 C 28.554688 29.601562 25.601562 32.554688 25.601562 36.199219 C 25.601562 39.84375 28.554688 42.800781 32.199219 42.800781 C 35.84375 42.800781 38.800781 39.84375 38.800781 36.199219 "/>
<path style="fill:none;stroke-width:5;stroke-linecap:round;stroke-linejoin:round;stroke:rgb(50.19989%,0%,50.19989%);stroke-opacity:1;stroke-miterlimit:10;" d="M 199.999219 672.000781 C 213.253125 685.254688 234.745313 685.254688 247.999219 672.000781 " transform="matrix(1,0,0,-1,-191.8,704.2)"/>
</g>
</svg>
