<?xml version="1.0" encoding="UTF-8" standalone="no"?>
<svg
   xmlns:dc="http://purl.org/dc/elements/1.1/"
   xmlns:cc="http://creativecommons.org/ns#"
   xmlns:rdf="http://www.w3.org/1999/02/22-rdf-syntax-ns#"
   xmlns:svg="http://www.w3.org/2000/svg"
   xmlns="http://www.w3.org/2000/svg"
   viewBox="0 0 85.866669 85.866669"
   height="85.866669"
   width="85.866669"
   xml:space="preserve"
   id="svg2"
   version="1.1"><metadata
     id="metadata8"><rdf:RDF><cc:Work
         rdf:about=""><dc:format>image/svg+xml</dc:format><dc:type
           rdf:resource="http://purl.org/dc/dcmitype/StillImage" /></cc:Work></rdf:RDF></metadata><defs
     id="defs6"><clipPath
       id="clipPath14"
       clipPathUnits="userSpaceOnUse"><path
         id="path12"
         d="M 0,0 H 595 V 842 H 0 Z" /></clipPath></defs><g
     clip-path="url(#clipPath14)"
     transform="matrix(1.3333333,0,0,-1.3333333,-298.4,917.6)"
     id="g10"><g
       id="g16"><path
         id="path18"
         style="fill:#ffffff;fill-opacity:1;fill-rule:evenodd;stroke:none"
         d="m 224,688 v -64 h 64 v 64 z" /></g><g
       id="g20"><path
         id="path22"
         style="fill:none;stroke:#000000;stroke-width:2;stroke-linecap:butt;stroke-linejoin:round;stroke-miterlimit:10;stroke-dasharray:none;stroke-opacity:1"
         d="m 256,678.627 -14.545,-5.293 -7.739,-13.405 2.688,-15.243 11.857,-9.949 h 15.478 l 11.857,9.949 2.688,15.243 -7.739,13.405 z" /></g><g
       id="g24"><g
         id="g26"><path
           id="path28"
           style="fill:#000000;fill-opacity:1;fill-rule:evenodd;stroke:none"
           d="m 244.455,673.334 c 0,1.657 -1.343,3 -3,3 -1.657,0 -3,-1.343 -3,-3 0,-1.657 1.343,-3 3,-3 1.657,0 3,1.343 3,3" /></g></g><g
       id="g30"><g
         id="g32"><path
           id="path34"
           style="fill:#000000;fill-opacity:1;fill-rule:evenodd;stroke:none"
           d="m 259,678.627 c 0,1.657 -1.343,3 -3,3 -1.657,0 -3,-1.343 -3,-3 0,-1.657 1.343,-3 3,-3 1.657,0 3,1.343 3,3" /></g></g><g
       id="g36"><g
         id="g38"><path
           id="path40"
           style="fill:#000000;fill-opacity:1;fill-rule:evenodd;stroke:none"
           d="m 273.545,673.334 c 0,1.657 -1.343,3 -3,3 -1.657,0 -3,-1.343 -3,-3 0,-1.657 1.343,-3 3,-3 1.657,0 3,1.343 3,3" /></g></g><g
       id="g42"><g
         id="g44"><path
           id="path46"
           style="fill:#000000;fill-opacity:1;fill-rule:evenodd;stroke:none"
           d="m 281.284,659.929 c 0,1.657 -1.343,3 -3,3 -1.657,0 -3,-1.343 -3,-3 0,-1.657 1.343,-3 3,-3 1.657,0 3,1.343 3,3" /></g></g><g
       id="g48"><g
         id="g50"><path
           id="path52"
           style="fill:#000000;fill-opacity:1;fill-rule:evenodd;stroke:none"
           d="m 278.596,644.686 c 0,1.657 -1.343,3 -3,3 -1.657,0 -3,-1.343 -3,-3 0,-1.657 1.343,-3 3,-3 1.657,0 3,1.343 3,3" /></g></g><g
       id="g54"><g
         id="g56"><path
           id="path58"
           style="fill:#000000;fill-opacity:1;fill-rule:evenodd;stroke:none"
           d="m 266.739,634.737 c 0,1.657 -1.343,3 -3,3 -1.657,0 -3,-1.343 -3,-3 0,-1.657 1.343,-3 3,-3 1.657,0 3,1.343 3,3" /></g></g><g
       id="g60"><g
         id="g62"><path
           id="path64"
           style="fill:#000000;fill-opacity:1;fill-rule:evenodd;stroke:none"
           d="m 251.261,634.737 c 0,1.657 -1.343,3 -3,3 -1.657,0 -3,-1.343 -3,-3 0,-1.657 1.343,-3 3,-3 1.657,0 3,1.343 3,3" /></g></g><g
       id="g66"><g
         id="g68"><path
           id="path70"
           style="fill:#000000;fill-opacity:1;fill-rule:evenodd;stroke:none"
           d="m 239.404,644.686 c 0,1.657 -1.343,3 -3,3 -1.657,0 -3,-1.343 -3,-3 0,-1.657 1.343,-3 3,-3 1.657,0 3,1.343 3,3" /></g></g><g
       id="g72"><g
         id="g74"><path
           id="path76"
           style="fill:#000000;fill-opacity:1;fill-rule:evenodd;stroke:none"
           d="m 236.716,659.929 c 0,1.657 -1.343,3 -3,3 -1.657,0 -3,-1.343 -3,-3 0,-1.657 1.343,-3 3,-3 1.657,0 3,1.343 3,3" /></g></g></g></svg>