<?xml version="1.0" encoding="UTF-8"?>
<svg xmlns="http://www.w3.org/2000/svg" xmlns:xlink="http://www.w3.org/1999/xlink" width="258pt" height="172.275pt" viewBox="0 0 258 172.275" version="1.1">
<g id="surface1">
<path style="fill:none;stroke-width:2;stroke-linecap:butt;stroke-linejoin:round;stroke:rgb(0%,0%,0%);stroke-opacity:1;stroke-miterlimit:10;" d="M 128 640 L 384 640 " transform="matrix(1,0,0,-1,-127,759.375)"/>
<path style="fill:none;stroke-width:2;stroke-linecap:butt;stroke-linejoin:round;stroke:rgb(0%,0%,0%);stroke-opacity:1;stroke-miterlimit:10;" d="M 128 644 L 128 636 " transform="matrix(1,0,0,-1,-127,759.375)"/>
<path style="fill:none;stroke-width:2;stroke-linecap:butt;stroke-linejoin:round;stroke:rgb(0%,0%,0%);stroke-opacity:1;stroke-miterlimit:10;" d="M 384 644 L 384 636 " transform="matrix(1,0,0,-1,-127,759.375)"/>
<path style="fill:none;stroke-width:0.8;stroke-linecap:butt;stroke-linejoin:round;stroke:rgb(0%,0%,0%);stroke-opacity:1;stroke-miterlimit:10;" d="M 128 724 C 164 700 200 710 227.332031 719.667969 C 254.667969 729.332031 273.332031 738.667969 296.667969 733.332031 C 320 728 348 708 384 712 " transform="matrix(1,0,0,-1,-127,759.375)"/>
<path style="fill:none;stroke-width:0.8;stroke-linecap:butt;stroke-linejoin:round;stroke:rgb(0%,0%,0%);stroke-opacity:1;stroke-miterlimit:10;" d="M 128 664 C 176 748 192 680 206 671.332031 C 220 662.667969 232 713.332031 242.667969 712 C 253.332031 710.667969 262.667969 657.332031 272.667969 635.332031 C 282.667969 613.332031 293.332031 622.667969 311.667969 638.332031 C 330 654 356 676 384 660 " transform="matrix(1,0,0,-1,-127,759.375)"/>
<path style="fill:none;stroke-width:0.8;stroke-linecap:butt;stroke-linejoin:round;stroke:rgb(0%,0%,0%);stroke-opacity:1;stroke-miterlimit:10;" d="M 128 756 C 156 652 170 630 182.332031 619.667969 C 194.667969 609.332031 205.332031 610.667969 213.332031 620 C 221.332031 629.332031 226.667969 646.667969 233.332031 656 C 240 665.332031 248 666.667969 255.332031 667.332031 C 262.667969 668 269.332031 668 274 672.667969 C 278.667969 677.332031 281.332031 686.667969 288 688.667969 C 294.667969 690.667969 305.332031 685.332031 315.332031 677.332031 C 325.332031 669.332031 334.667969 658.667969 347.332031 647.332031 C 360 636 376 624 384 624 " transform="matrix(1,0,0,-1,-127,759.375)"/>
<path style="fill:none;stroke-width:0.8;stroke-linecap:butt;stroke-linejoin:round;stroke:rgb(0%,0%,0%);stroke-opacity:1;stroke-miterlimit:10;" d="M 128 588 C 208 592 284 608 384 748 " transform="matrix(1,0,0,-1,-127,759.375)"/>
<path style="fill:none;stroke-width:0.8;stroke-linecap:butt;stroke-linejoin:round;stroke:rgb(0%,0%,0%);stroke-opacity:1;stroke-miterlimit:10;" d="M 128 620 C 188 652 202 678 216.332031 703 C 230.667969 728 245.332031 752 256.667969 757.332031 C 268 762.667969 276 749.332031 282.667969 726 C 289.332031 702.667969 294.667969 669.332031 313.332031 666.667969 C 332 664 364 692 384 600 " transform="matrix(1,0,0,-1,-127,759.375)"/>
</g>
</svg>
