<?xml version="1.0" encoding="UTF-8" standalone="no"?>
<svg
   xmlns:dc="http://purl.org/dc/elements/1.1/"
   xmlns:cc="http://creativecommons.org/ns#"
   xmlns:rdf="http://www.w3.org/1999/02/22-rdf-syntax-ns#"
   xmlns:svg="http://www.w3.org/2000/svg"
   xmlns="http://www.w3.org/2000/svg"
   viewBox="0 0 85.866669 85.866669"
   height="85.866669"
   width="85.866669"
   xml:space="preserve"
   id="svg2"
   version="1.1"><metadata
     id="metadata8"><rdf:RDF><cc:Work
         rdf:about=""><dc:format>image/svg+xml</dc:format><dc:type
           rdf:resource="http://purl.org/dc/dcmitype/StillImage" /></cc:Work></rdf:RDF></metadata><defs
     id="defs6"><clipPath
       id="clipPath14"
       clipPathUnits="userSpaceOnUse"><path
         id="path12"
         d="M 0,0 H 595 V 842 H 0 Z" /></clipPath></defs><g
     clip-path="url(#clipPath14)"
     transform="matrix(1.3333333,0,0,-1.3333333,-298.4,1024.2667)"
     id="g10"><g
       id="g16"><path
         id="path18"
         style="fill:#ffffff;fill-opacity:1;fill-rule:evenodd;stroke:none"
         d="m 224,768 v -64 h 64 v 64 z" /></g><g
       id="g20"><path
         id="path22"
         style="fill:none;stroke:#000000;stroke-width:2;stroke-linecap:butt;stroke-linejoin:round;stroke-miterlimit:10;stroke-dasharray:none;stroke-opacity:1"
         d="m 231.75,726.804 19.995,-3.079 6.804,31.327 21.232,-7.959" /></g><g
       id="g24"><g
         id="g26"><path
           id="path28"
           style="fill:#000000;fill-opacity:1;fill-rule:evenodd;stroke:none"
           d="m 234.75,726.804 c 0,1.657 -1.343,3 -3,3 -1.657,0 -3,-1.343 -3,-3 0,-1.657 1.343,-3 3,-3 1.657,0 3,1.343 3,3" /></g></g><g
       id="g30"><g
         id="g32"><path
           id="path34"
           style="fill:#000000;fill-opacity:1;fill-rule:evenodd;stroke:none"
           d="m 254.745,723.725 c 0,1.657 -1.343,3 -3,3 -1.657,0 -3,-1.343 -3,-3 0,-1.657 1.343,-3 3,-3 1.657,0 3,1.343 3,3" /></g></g><g
       id="g36"><g
         id="g38"><path
           id="path40"
           style="fill:#000000;fill-opacity:1;fill-rule:evenodd;stroke:none"
           d="m 261.549,755.052 c 0,1.657 -1.343,3 -3,3 -1.657,0 -3,-1.343 -3,-3 0,-1.657 1.343,-3 3,-3 1.657,0 3,1.343 3,3" /></g></g><g
       id="g42"><g
         id="g44"><path
           id="path46"
           style="fill:#000000;fill-opacity:1;fill-rule:evenodd;stroke:none"
           d="m 282.781,747.093 c 0,1.657 -1.343,3 -3,3 -1.657,0 -3,-1.343 -3,-3 0,-1.657 1.343,-3 3,-3 1.657,0 3,1.343 3,3" /></g></g></g></svg>