<?xml version="1.0" encoding="UTF-8" standalone="no"?>
<svg
   xmlns:dc="http://purl.org/dc/elements/1.1/"
   xmlns:cc="http://creativecommons.org/ns#"
   xmlns:rdf="http://www.w3.org/1999/02/22-rdf-syntax-ns#"
   xmlns:svg="http://www.w3.org/2000/svg"
   xmlns="http://www.w3.org/2000/svg"
   viewBox="0 0 85.866669 85.866669"
   height="85.866669"
   width="85.866669"
   xml:space="preserve"
   id="svg2"
   version="1.1"><metadata
     id="metadata8"><rdf:RDF><cc:Work
         rdf:about=""><dc:format>image/svg+xml</dc:format><dc:type
           rdf:resource="http://purl.org/dc/dcmitype/StillImage" /></cc:Work></rdf:RDF></metadata><defs
     id="defs6"><clipPath
       id="clipPath14"
       clipPathUnits="userSpaceOnUse"><path
         id="path12"
         d="M 0,0 H 595 V 842 H 0 Z" /></clipPath></defs><g
     clip-path="url(#clipPath14)"
     transform="matrix(1.3333333,0,0,-1.3333333,-191.73333,810.93333)"
     id="g10"><g
       id="g16"><path
         id="path18"
         style="fill:#ffffff;fill-opacity:1;fill-rule:evenodd;stroke:none"
         d="m 144,608 v -64 h 64 v 64 z" /></g><g
       id="g20"><path
         id="path22"
         style="fill:#ffd700;fill-opacity:1;fill-rule:evenodd;stroke:#000000;stroke-width:2;stroke-linecap:butt;stroke-linejoin:round;stroke-miterlimit:10;stroke-dasharray:none;stroke-opacity:1"
         d="m 176,598.627 -21.52,-15.635 8.22,-25.298 h 26.6 l 8.22,25.298 z" /></g><g
       id="g24"><g
         id="g26"><path
           id="path28"
           style="fill:#000000;fill-opacity:1;fill-rule:evenodd;stroke:none"
           d="m 179,598.627 c 0,1.657 -1.343,3 -3,3 -1.657,0 -3,-1.343 -3,-3 0,-1.657 1.343,-3 3,-3 1.657,0 3,1.343 3,3" /></g></g><g
       id="g30"><g
         id="g32"><path
           id="path34"
           style="fill:#000000;fill-opacity:1;fill-rule:evenodd;stroke:none"
           d="m 200.52,582.992 c 0,1.657 -1.343,3 -3,3 -1.657,0 -3,-1.343 -3,-3 0,-1.657 1.343,-3 3,-3 1.657,0 3,1.343 3,3" /></g></g><g
       id="g36"><g
         id="g38"><path
           id="path40"
           style="fill:#000000;fill-opacity:1;fill-rule:evenodd;stroke:none"
           d="m 192.3,557.694 c 0,1.657 -1.343,3 -3,3 -1.657,0 -3,-1.343 -3,-3 0,-1.657 1.343,-3 3,-3 1.657,0 3,1.343 3,3" /></g></g><g
       id="g42"><g
         id="g44"><path
           id="path46"
           style="fill:#000000;fill-opacity:1;fill-rule:evenodd;stroke:none"
           d="m 165.7,557.694 c 0,1.657 -1.343,3 -3,3 -1.657,0 -3,-1.343 -3,-3 0,-1.657 1.343,-3 3,-3 1.657,0 3,1.343 3,3" /></g></g><g
       id="g48"><g
         id="g50"><path
           id="path52"
           style="fill:#000000;fill-opacity:1;fill-rule:evenodd;stroke:none"
           d="m 157.48,582.992 c 0,1.657 -1.343,3 -3,3 -1.657,0 -3,-1.343 -3,-3 0,-1.657 1.343,-3 3,-3 1.657,0 3,1.343 3,3" /></g></g></g></svg>