<?xml version="1.0" encoding="UTF-8"?>
<svg xmlns="http://www.w3.org/2000/svg" xmlns:xlink="http://www.w3.org/1999/xlink" width="282.18pt" height="162pt" viewBox="0 0 282.18 162" version="1.1">
<defs>
<clipPath id="clip1">
  <path d="M 244 29 L 282.179688 29 L 282.179688 63 L 244 63 Z M 244 29 "/>
</clipPath>
</defs>
<g id="surface1">
<path style="fill:none;stroke-width:1.2;stroke-linecap:butt;stroke-linejoin:round;stroke:rgb(66.299438%,66.299438%,66.299438%);stroke-opacity:1;stroke-miterlimit:10;" d="M 144 752 L 288 752 " transform="matrix(1,0,0,-1,-127,769)"/>
<path style="fill:none;stroke-width:1.2;stroke-linecap:butt;stroke-linejoin:round;stroke:rgb(66.299438%,66.299438%,66.299438%);stroke-opacity:1;stroke-miterlimit:10;" d="M 128 736 L 288 736 " transform="matrix(1,0,0,-1,-127,769)"/>
<path style="fill:none;stroke-width:1.2;stroke-linecap:butt;stroke-linejoin:round;stroke:rgb(66.299438%,66.299438%,66.299438%);stroke-opacity:1;stroke-miterlimit:10;" d="M 128 720 L 288 720 " transform="matrix(1,0,0,-1,-127,769)"/>
<path style="fill:none;stroke-width:1.2;stroke-linecap:butt;stroke-linejoin:round;stroke:rgb(66.299438%,66.299438%,66.299438%);stroke-opacity:1;stroke-miterlimit:10;" d="M 128 704 L 288 704 " transform="matrix(1,0,0,-1,-127,769)"/>
<path style="fill:none;stroke-width:1.2;stroke-linecap:butt;stroke-linejoin:round;stroke:rgb(66.299438%,66.299438%,66.299438%);stroke-opacity:1;stroke-miterlimit:10;" d="M 128 688 L 288 688 " transform="matrix(1,0,0,-1,-127,769)"/>
<path style="fill:none;stroke-width:1.2;stroke-linecap:butt;stroke-linejoin:round;stroke:rgb(66.299438%,66.299438%,66.299438%);stroke-opacity:1;stroke-miterlimit:10;" d="M 128 672 L 288 672 " transform="matrix(1,0,0,-1,-127,769)"/>
<path style="fill:none;stroke-width:1.2;stroke-linecap:butt;stroke-linejoin:round;stroke:rgb(66.299438%,66.299438%,66.299438%);stroke-opacity:1;stroke-miterlimit:10;" d="M 128 656 L 288 656 " transform="matrix(1,0,0,-1,-127,769)"/>
<path style="fill:none;stroke-width:1.2;stroke-linecap:butt;stroke-linejoin:round;stroke:rgb(66.299438%,66.299438%,66.299438%);stroke-opacity:1;stroke-miterlimit:10;" d="M 128 640 L 288 640 " transform="matrix(1,0,0,-1,-127,769)"/>
<path style="fill:none;stroke-width:1.2;stroke-linecap:butt;stroke-linejoin:round;stroke:rgb(66.299438%,66.299438%,66.299438%);stroke-opacity:1;stroke-miterlimit:10;" d="M 128 624 L 272 624 " transform="matrix(1,0,0,-1,-127,769)"/>
<path style="fill:none;stroke-width:1.2;stroke-linecap:butt;stroke-linejoin:round;stroke:rgb(66.299438%,66.299438%,66.299438%);stroke-opacity:1;stroke-miterlimit:10;" d="M 144 752 L 144 608 " transform="matrix(1,0,0,-1,-127,769)"/>
<path style="fill:none;stroke-width:1.2;stroke-linecap:butt;stroke-linejoin:round;stroke:rgb(66.299438%,66.299438%,66.299438%);stroke-opacity:1;stroke-miterlimit:10;" d="M 160 768 L 160 608 " transform="matrix(1,0,0,-1,-127,769)"/>
<path style="fill:none;stroke-width:1.2;stroke-linecap:butt;stroke-linejoin:round;stroke:rgb(66.299438%,66.299438%,66.299438%);stroke-opacity:1;stroke-miterlimit:10;" d="M 176 768 L 176 608 " transform="matrix(1,0,0,-1,-127,769)"/>
<path style="fill:none;stroke-width:1.2;stroke-linecap:butt;stroke-linejoin:round;stroke:rgb(66.299438%,66.299438%,66.299438%);stroke-opacity:1;stroke-miterlimit:10;" d="M 192 768 L 192 608 " transform="matrix(1,0,0,-1,-127,769)"/>
<path style="fill:none;stroke-width:1.2;stroke-linecap:butt;stroke-linejoin:round;stroke:rgb(66.299438%,66.299438%,66.299438%);stroke-opacity:1;stroke-miterlimit:10;" d="M 208 768 L 208 608 " transform="matrix(1,0,0,-1,-127,769)"/>
<path style="fill:none;stroke-width:1.2;stroke-linecap:butt;stroke-linejoin:round;stroke:rgb(66.299438%,66.299438%,66.299438%);stroke-opacity:1;stroke-miterlimit:10;" d="M 224 768 L 224 608 " transform="matrix(1,0,0,-1,-127,769)"/>
<path style="fill:none;stroke-width:1.2;stroke-linecap:butt;stroke-linejoin:round;stroke:rgb(66.299438%,66.299438%,66.299438%);stroke-opacity:1;stroke-miterlimit:10;" d="M 240 768 L 240 608 " transform="matrix(1,0,0,-1,-127,769)"/>
<path style="fill:none;stroke-width:1.2;stroke-linecap:butt;stroke-linejoin:round;stroke:rgb(66.299438%,66.299438%,66.299438%);stroke-opacity:1;stroke-miterlimit:10;" d="M 256 768 L 256 608 " transform="matrix(1,0,0,-1,-127,769)"/>
<path style="fill:none;stroke-width:1.2;stroke-linecap:butt;stroke-linejoin:round;stroke:rgb(66.299438%,66.299438%,66.299438%);stroke-opacity:1;stroke-miterlimit:10;" d="M 272 768 L 272 624 " transform="matrix(1,0,0,-1,-127,769)"/>
<path style="fill:none;stroke-width:1.2;stroke-linecap:butt;stroke-linejoin:round;stroke:rgb(66.299438%,66.299438%,66.299438%);stroke-opacity:1;stroke-miterlimit:10;" d="M 339.085938 720.316406 L 333.546875 705.304688 " transform="matrix(1,0,0,-1,-127,769)"/>
<path style="fill:none;stroke-width:2;stroke-linecap:butt;stroke-linejoin:round;stroke:rgb(0%,0%,0%);stroke-opacity:1;stroke-miterlimit:10;" d="M 324.074219 725.855469 L 318.535156 710.84375 L 348.558594 699.765625 L 354.097656 714.777344 Z M 324.074219 725.855469 " transform="matrix(1,0,0,-1,-127,769)"/>
<path style="fill:none;stroke-width:1.2;stroke-linecap:butt;stroke-linejoin:round;stroke:rgb(66.299438%,66.299438%,66.299438%);stroke-opacity:1;stroke-miterlimit:10;" d="M 349.453125 671.363281 L 335.28125 678.785156 " transform="matrix(1,0,0,-1,-127,769)"/>
<path style="fill:none;stroke-width:2;stroke-linecap:butt;stroke-linejoin:round;stroke:rgb(0%,0%,0%);stroke-opacity:1;stroke-miterlimit:10;" d="M 356.878906 685.539062 L 342.703125 692.960938 L 327.859375 664.609375 L 342.035156 657.191406 Z M 356.878906 685.539062 " transform="matrix(1,0,0,-1,-127,769)"/>
<path style="fill:none;stroke-width:1.2;stroke-linecap:butt;stroke-linejoin:round;stroke:rgb(66.299438%,66.299438%,66.299438%);stroke-opacity:1;stroke-miterlimit:10;" d="M 380.824219 667.941406 L 395.457031 674.417969 " transform="matrix(1,0,0,-1,-127,769)"/>
<path style="fill:none;stroke-width:2;stroke-linecap:butt;stroke-linejoin:round;stroke:rgb(0%,0%,0%);stroke-opacity:1;stroke-miterlimit:10;" d="M 387.300781 653.3125 L 401.933594 659.785156 L 388.984375 689.050781 L 374.351562 682.574219 Z M 387.300781 653.3125 " transform="matrix(1,0,0,-1,-127,769)"/>
<path style="fill:none;stroke-width:1.2;stroke-linecap:butt;stroke-linejoin:round;stroke:rgb(66.299438%,66.299438%,66.299438%);stroke-opacity:1;stroke-miterlimit:10;" d="M 365.996094 640.332031 L 360.144531 625.4375 " transform="matrix(1,0,0,-1,-127,769)"/>
<path style="fill:none;stroke-width:2;stroke-linecap:butt;stroke-linejoin:round;stroke:rgb(0%,0%,0%);stroke-opacity:1;stroke-miterlimit:10;" d="M 351.105469 646.179688 L 345.253906 631.289062 L 375.039062 619.589844 L 380.890625 634.480469 Z M 351.105469 646.179688 " transform="matrix(1,0,0,-1,-127,769)"/>
<path style="fill:none;stroke-width:1.2;stroke-linecap:butt;stroke-linejoin:round;stroke:rgb(66.299438%,66.299438%,66.299438%);stroke-opacity:1;stroke-miterlimit:10;" d="M 386.144531 729.871094 L 394.59375 716.28125 " transform="matrix(1,0,0,-1,-127,769)"/>
<g clip-path="url(#clip1)" clip-rule="nonzero">
<path style="fill:none;stroke-width:2;stroke-linecap:butt;stroke-linejoin:round;stroke:rgb(0%,0%,0%);stroke-opacity:1;stroke-miterlimit:10;" d="M 372.554688 721.425781 L 381.003906 707.835938 L 408.179688 724.730469 L 399.734375 738.316406 Z M 372.554688 721.425781 " transform="matrix(1,0,0,-1,-127,769)"/>
</g>
<path style="fill:none;stroke-width:2;stroke-linecap:butt;stroke-linejoin:round;stroke:rgb(0%,0%,0%);stroke-opacity:1;stroke-miterlimit:10;" d="M 128 752 L 144 752 L 144 768 L 288 768 L 288 624 L 272 624 L 272 608 L 128 608 Z M 128 752 " transform="matrix(1,0,0,-1,-127,769)"/>
</g>
</svg>
