<?xml version="1.0" encoding="UTF-8"?>
<svg xmlns="http://www.w3.org/2000/svg" xmlns:xlink="http://www.w3.org/1999/xlink" width="132pt" height="132pt" viewBox="0 0 132 132" version="1.1">
<g id="surface1">
<path style="fill:none;stroke-width:3;stroke-linecap:butt;stroke-linejoin:round;stroke:rgb(0%,0%,0%);stroke-opacity:1;stroke-miterlimit:10;" d="M 256 704 C 256 739.347656 227.347656 768 192 768 C 156.652344 768 128 739.347656 128 704 C 128 668.652344 156.652344 640 192 640 C 227.347656 640 256 668.652344 256 704 " transform="matrix(1,0,0,-1,-126,770)"/>
<path style="fill:none;stroke-width:2.5;stroke-linecap:butt;stroke-linejoin:round;stroke:rgb(0%,0%,0%);stroke-opacity:1;stroke-miterlimit:10;" d="M 192 704 C 192 721.671875 177.671875 736 160 736 C 142.328125 736 128 721.671875 128 704 C 128 686.328125 142.328125 672 160 672 C 177.671875 672 192 686.328125 192 704 " transform="matrix(1,0,0,-1,-126,770)"/>
<path style="fill:none;stroke-width:2;stroke-linecap:butt;stroke-linejoin:round;stroke:rgb(0%,0%,0%);stroke-opacity:1;stroke-miterlimit:10;" d="M 170.625 704 C 170.625 715.769531 161.082031 725.3125 149.3125 725.3125 C 137.542969 725.3125 128 715.769531 128 704 C 128 692.230469 137.542969 682.6875 149.3125 682.6875 C 161.082031 682.6875 170.625 692.230469 170.625 704 " transform="matrix(1,0,0,-1,-126,770)"/>
<path style="fill:none;stroke-width:1.5;stroke-linecap:butt;stroke-linejoin:round;stroke:rgb(0%,0%,0%);stroke-opacity:1;stroke-miterlimit:10;" d="M 160 704 C 160 712.835938 152.835938 720 144 720 C 135.164062 720 128 712.835938 128 704 C 128 695.164062 135.164062 688 144 688 C 152.835938 688 160 695.164062 160 704 " transform="matrix(1,0,0,-1,-126,770)"/>
<path style="fill:none;stroke-width:1.3;stroke-linecap:butt;stroke-linejoin:round;stroke:rgb(0%,0%,0%);stroke-opacity:1;stroke-miterlimit:10;" d="M 153.601562 704 C 153.601562 711.070312 147.867188 716.800781 140.800781 716.800781 C 133.730469 716.800781 128 711.070312 128 704 C 128 696.929688 133.730469 691.199219 140.800781 691.199219 C 147.867188 691.199219 153.601562 696.929688 153.601562 704 " transform="matrix(1,0,0,-1,-126,770)"/>
<path style="fill:none;stroke-width:1.1;stroke-linecap:butt;stroke-linejoin:round;stroke:rgb(0%,0%,0%);stroke-opacity:1;stroke-miterlimit:10;" d="M 149.246094 704 C 149.246094 709.867188 144.492188 714.625 138.625 714.625 C 132.757812 714.625 128 709.867188 128 704 C 128 698.132812 132.757812 693.375 138.625 693.375 C 144.492188 693.375 149.246094 698.132812 149.246094 704 " transform="matrix(1,0,0,-1,-126,770)"/>
<path style="fill:none;stroke-width:0.9;stroke-linecap:butt;stroke-linejoin:round;stroke:rgb(0%,0%,0%);stroke-opacity:1;stroke-miterlimit:10;" d="M 146.277344 704 C 146.277344 709.046875 142.1875 713.140625 137.140625 713.140625 C 132.09375 713.140625 128 709.046875 128 704 C 128 698.953125 132.09375 694.859375 137.140625 694.859375 C 142.1875 694.859375 146.277344 698.953125 146.277344 704 " transform="matrix(1,0,0,-1,-126,770)"/>
<path style="fill:none;stroke-width:0.8;stroke-linecap:butt;stroke-linejoin:round;stroke:rgb(0%,0%,0%);stroke-opacity:1;stroke-miterlimit:10;" d="M 144 704 C 144 708.417969 140.417969 712 136 712 C 131.582031 712 128 708.417969 128 704 C 128 699.582031 131.582031 696 136 696 C 140.417969 696 144 699.582031 144 704 " transform="matrix(1,0,0,-1,-126,770)"/>
<path style="fill:none;stroke-width:0.7;stroke-linecap:butt;stroke-linejoin:round;stroke:rgb(0%,0%,0%);stroke-opacity:1;stroke-miterlimit:10;" d="M 142.207031 704 C 142.207031 707.921875 139.027344 711.105469 135.105469 711.105469 C 131.179688 711.105469 128 707.921875 128 704 C 128 700.078125 131.179688 696.894531 135.105469 696.894531 C 139.027344 696.894531 142.207031 700.078125 142.207031 704 " transform="matrix(1,0,0,-1,-126,770)"/>
<path style="fill:none;stroke-width:0.6;stroke-linecap:butt;stroke-linejoin:round;stroke:rgb(0%,0%,0%);stroke-opacity:1;stroke-miterlimit:10;" d="M 140.800781 704 C 140.800781 707.535156 137.933594 710.398438 134.398438 710.398438 C 130.863281 710.398438 128 707.535156 128 704 C 128 700.464844 130.863281 697.601562 134.398438 697.601562 C 137.933594 697.601562 140.800781 700.464844 140.800781 704 " transform="matrix(1,0,0,-1,-126,770)"/>
<path style="fill:none;stroke-width:0.6;stroke-linecap:butt;stroke-linejoin:round;stroke:rgb(0%,0%,0%);stroke-opacity:1;stroke-miterlimit:10;" d="M 139.648438 704 C 139.648438 707.21875 137.039062 709.824219 133.824219 709.824219 C 130.605469 709.824219 128 707.21875 128 704 C 128 700.78125 130.605469 698.175781 133.824219 698.175781 C 137.039062 698.175781 139.648438 700.78125 139.648438 704 " transform="matrix(1,0,0,-1,-126,770)"/>
<path style="fill:none;stroke-width:0.6;stroke-linecap:butt;stroke-linejoin:round;stroke:rgb(0%,0%,0%);stroke-opacity:1;stroke-miterlimit:10;" d="M 138.601562 704 C 138.601562 706.925781 136.226562 709.300781 133.300781 709.300781 C 130.371094 709.300781 128 706.925781 128 704 C 128 701.074219 130.371094 698.699219 133.300781 698.699219 C 136.226562 698.699219 138.601562 701.074219 138.601562 704 " transform="matrix(1,0,0,-1,-126,770)"/>
<path style="fill:none;stroke-width:0.6;stroke-linecap:butt;stroke-linejoin:round;stroke:rgb(0%,0%,0%);stroke-opacity:1;stroke-miterlimit:10;" d="M 137.644531 704 C 137.644531 706.664062 135.484375 708.824219 132.824219 708.824219 C 130.160156 708.824219 128 706.664062 128 704 C 128 701.335938 130.160156 699.175781 132.824219 699.175781 C 135.484375 699.175781 137.644531 701.335938 137.644531 704 " transform="matrix(1,0,0,-1,-126,770)"/>
<path style="fill:none;stroke-width:0.6;stroke-linecap:butt;stroke-linejoin:round;stroke:rgb(0%,0%,0%);stroke-opacity:1;stroke-miterlimit:10;" d="M 136.777344 704 C 136.777344 706.425781 134.8125 708.390625 132.390625 708.390625 C 129.964844 708.390625 128 706.425781 128 704 C 128 701.574219 129.964844 699.609375 132.390625 699.609375 C 134.8125 699.609375 136.777344 701.574219 136.777344 704 " transform="matrix(1,0,0,-1,-126,770)"/>
<path style="fill:none;stroke-width:0.6;stroke-linecap:butt;stroke-linejoin:round;stroke:rgb(0%,0%,0%);stroke-opacity:1;stroke-miterlimit:10;" d="M 135.988281 704 C 135.988281 706.207031 134.199219 707.992188 131.992188 707.992188 C 129.789062 707.992188 128 706.207031 128 704 C 128 701.792969 129.789062 700.007812 131.992188 700.007812 C 134.199219 700.007812 135.988281 701.792969 135.988281 704 " transform="matrix(1,0,0,-1,-126,770)"/>
<path style="fill:none;stroke-width:0.6;stroke-linecap:butt;stroke-linejoin:round;stroke:rgb(0%,0%,0%);stroke-opacity:1;stroke-miterlimit:10;" d="M 135.269531 704 C 135.269531 706.007812 133.640625 707.632812 131.632812 707.632812 C 129.628906 707.632812 128 706.007812 128 704 C 128 701.992188 129.628906 700.367188 131.632812 700.367188 C 133.640625 700.367188 135.269531 701.992188 135.269531 704 " transform="matrix(1,0,0,-1,-126,770)"/>
<path style="fill:none;stroke-width:0.6;stroke-linecap:butt;stroke-linejoin:round;stroke:rgb(0%,0%,0%);stroke-opacity:1;stroke-miterlimit:10;" d="M 134.613281 704 C 134.613281 705.828125 133.132812 707.308594 131.308594 707.308594 C 129.480469 707.308594 128 705.828125 128 704 C 128 702.171875 129.480469 700.691406 131.308594 700.691406 C 133.132812 700.691406 134.613281 702.171875 134.613281 704 " transform="matrix(1,0,0,-1,-126,770)"/>
<path style="fill:none;stroke-width:0.6;stroke-linecap:butt;stroke-linejoin:round;stroke:rgb(0%,0%,0%);stroke-opacity:1;stroke-miterlimit:10;" d="M 134.019531 704 C 134.019531 705.660156 132.671875 707.011719 131.011719 707.011719 C 129.347656 707.011719 128 705.660156 128 704 C 128 702.339844 129.347656 700.988281 131.011719 700.988281 C 132.671875 700.988281 134.019531 702.339844 134.019531 704 " transform="matrix(1,0,0,-1,-126,770)"/>
<path style="fill-rule:evenodd;fill:rgb(0%,0%,0%);fill-opacity:1;stroke-width:0.6;stroke-linecap:butt;stroke-linejoin:round;stroke:rgb(0%,0%,0%);stroke-opacity:1;stroke-miterlimit:10;" d="M 133.476562 704 C 133.476562 705.511719 132.25 706.738281 130.738281 706.738281 C 129.226562 706.738281 128 705.511719 128 704 C 128 702.488281 129.226562 701.261719 130.738281 701.261719 C 132.25 701.261719 133.476562 702.488281 133.476562 704 " transform="matrix(1,0,0,-1,-126,770)"/>
</g>
</svg>
