<?xml version="1.0" encoding="UTF-8"?>
<svg xmlns="http://www.w3.org/2000/svg" xmlns:xlink="http://www.w3.org/1999/xlink" width="561.93558pt" height="194.533pt" viewBox="0 0 561.93558 194.533" version="1.1">
<defs>
<clipPath id="clip1">
  <path d="M 377 0 L 561.9375 0 L 561.9375 194.53125 L 377 194.53125 Z M 377 0 "/>
</clipPath>
</defs>
<g id="surface1">
<path style="fill-rule:evenodd;fill:rgb(86.999512%,86.999512%,86.999512%);fill-opacity:1;stroke-width:2;stroke-linecap:butt;stroke-linejoin:round;stroke:rgb(0%,0%,0%);stroke-opacity:1;stroke-miterlimit:10;" d="M 187.396389 233.8535 C 182.66592 209.298812 189.763576 176.162094 224.47842 162.455062 C 259.193264 148.744125 321.521389 154.466781 342.724514 183.951156 C 363.927639 213.439437 344.005764 266.693344 317.576076 288.388656 C 291.146389 310.087875 258.208889 300.224594 233.451076 287.306625 C 208.701076 274.38475 192.130764 258.408187 187.396389 233.8535 Z M 187.396389 233.8535 " transform="matrix(1,0,0,-1,-3.97842,325.041)"/>
<path style="fill-rule:evenodd;fill:rgb(25.898743%,25.898743%,25.898743%);fill-opacity:1;stroke-width:8;stroke-linecap:butt;stroke-linejoin:round;stroke:rgb(86.999512%,86.999512%,86.999512%);stroke-opacity:1;stroke-miterlimit:10;" d="M 265.701076 264.029281 C 263.72842 257.423812 269.056545 243.419906 275.267483 229.615219 C 281.482326 215.806625 288.583889 202.19725 298.345608 201.6035 C 308.107326 201.013656 320.533108 213.439437 320.732326 221.330062 C 320.927639 229.220687 308.896389 232.57225 305.247951 239.376937 C 301.599514 246.181625 306.333889 256.439437 304.556545 261.962875 C 302.783108 267.482406 294.497951 268.271469 285.720608 269.060531 C 276.943264 269.849594 267.673733 270.638656 265.701076 264.029281 Z M 265.701076 264.029281 " transform="matrix(1,0,0,-1,-3.97842,325.041)"/>
<path style="fill-rule:evenodd;fill:rgb(100%,100%,100%);fill-opacity:1;stroke-width:2;stroke-linecap:butt;stroke-linejoin:round;stroke:rgb(0%,0%,0%);stroke-opacity:1;stroke-miterlimit:10;" d="M 220.732326 217.38475 C 217.376857 215.806625 215.997951 211.07225 218.857326 206.833969 C 221.716701 202.591781 228.818264 198.845687 232.169826 200.423812 C 235.525295 202.001937 235.130764 208.904281 232.271389 213.142562 C 229.408107 217.38475 224.083889 218.962875 220.732326 217.38475 Z M 220.732326 217.38475 " transform="matrix(1,0,0,-1,-3.97842,325.041)"/>
<path style="fill:none;stroke-width:2;stroke-linecap:butt;stroke-linejoin:round;stroke:rgb(0%,0%,0%);stroke-opacity:1;stroke-miterlimit:10;" d="M 206.923732 206.240219 C 207.122951 197.462875 212.642482 187.994125 223.099514 186.814437 C 233.552639 185.630844 248.935451 192.7285 251.69717 203.576156 C 254.458889 214.427719 244.599514 229.021469 236.708889 234.248031 C 228.818264 239.474594 222.900295 235.333969 217.376857 229.220687 C 211.857326 223.1035 206.72842 215.017562 206.923732 206.240219 Z M 206.923732 206.240219 " transform="matrix(1,0,0,-1,-3.97842,325.041)"/>
<path style="fill:none;stroke-width:2;stroke-linecap:butt;stroke-linejoin:round;stroke:rgb(0%,0%,0%);stroke-opacity:1;stroke-miterlimit:10;" d="M 249.490139 218.451156 C 249.490139 218.451156 249.490139 218.451156 249.283107 218.865219 C 249.076076 219.279281 248.658107 220.107406 248.220607 220.912094 C 247.783107 221.716781 247.326076 222.498031 246.861232 223.236312 C 246.396389 223.974594 245.931545 224.669906 245.69717 225.017562 C 245.462795 225.365219 245.462795 225.365219 245.462795 225.365219 " transform="matrix(1,0,0,-1,-3.97842,325.041)"/>
<path style="fill-rule:evenodd;fill:rgb(0%,0%,0%);fill-opacity:1;stroke-width:2;stroke-linecap:butt;stroke-linejoin:round;stroke:rgb(0%,0%,0%);stroke-opacity:1;stroke-miterlimit:10;" d="M 245.462795 225.365219 L 247.431545 218.255844 L 251.302639 220.857406 Z M 245.462795 225.365219 " transform="matrix(1,0,0,-1,-3.97842,325.041)"/>
<path style="fill:none;stroke-width:2;stroke-linecap:butt;stroke-linejoin:round;stroke:rgb(0%,0%,0%);stroke-opacity:1;stroke-miterlimit:10;" d="M 265.701076 264.029281 C 263.72842 257.423812 269.056545 243.419906 275.267483 229.615219 C 281.482326 215.806625 288.583889 202.19725 298.345608 201.6035 C 308.107326 201.013656 320.533108 213.439437 320.732326 221.330062 C 320.927639 229.220687 308.896389 232.57225 305.247951 239.376937 C 301.599514 246.181625 306.333889 256.439437 304.556545 261.962875 C 302.783108 267.482406 294.497951 268.271469 285.720608 269.060531 C 276.943264 269.849594 267.673733 270.638656 265.701076 264.029281 Z M 265.701076 264.029281 " transform="matrix(1,0,0,-1,-3.97842,325.041)"/>
<path style="fill:none;stroke-width:2;stroke-linecap:butt;stroke-linejoin:round;stroke:rgb(0%,0%,0%);stroke-opacity:1;stroke-miterlimit:10;" d="M 270.736233 240.232406 C 270.736233 240.232406 270.736233 240.232406 271.060451 239.443344 C 271.388576 238.654281 272.04092 237.07225 272.544826 235.865219 C 273.048733 234.658187 273.408108 233.826156 273.724514 233.1035 C 274.04092 232.380844 274.306545 231.771469 274.443264 231.466781 C 274.576076 231.162094 274.576076 231.162094 274.576076 231.162094 " transform="matrix(1,0,0,-1,-3.97842,325.041)"/>
<path style="fill-rule:evenodd;fill:rgb(0%,0%,0%);fill-opacity:1;stroke-width:2;stroke-linecap:butt;stroke-linejoin:round;stroke:rgb(0%,0%,0%);stroke-opacity:1;stroke-miterlimit:10;" d="M 274.576076 231.162094 L 273.88467 238.505844 L 269.619045 236.626937 Z M 274.576076 231.162094 " transform="matrix(1,0,0,-1,-3.97842,325.041)"/>
<path style=" stroke:none;fill-rule:evenodd;fill:rgb(86.999512%,86.999512%,86.999512%);fill-opacity:1;" d="M 391.1875 51.082031 C 376.296875 76.53125 371.96875 117 391.441406 147.03125 C 410.910156 177.0625 454.175781 196.660156 490.828125 192.589844 C 527.476562 188.515625 557.507812 160.773438 560.4375 123.234375 C 563.363281 85.695312 539.183594 38.355469 517.421875 16.976562 C 495.664062 -4.402344 476.320312 0.179688 453.921875 7.6875 C 431.527344 15.195312 406.074219 25.632812 391.1875 51.082031 Z M 391.1875 51.082031 "/>
<g clip-path="url(#clip1)" clip-rule="nonzero">
<path style="fill:none;stroke-width:2;stroke-linecap:butt;stroke-linejoin:round;stroke:rgb(0%,0%,0%);stroke-opacity:1;stroke-miterlimit:10;" d="M 395.16592 273.958969 C 380.275295 248.50975 375.94717 208.041 395.419826 178.00975 C 414.888576 147.9785 458.154201 128.380844 494.806545 132.451156 C 531.454983 136.525375 561.486233 164.267562 564.41592 201.806625 C 567.341701 239.345687 543.162014 286.685531 521.400295 308.064437 C 499.642483 329.443344 480.298733 324.861312 457.900295 317.3535 C 435.505764 309.845687 410.052639 299.408187 395.16592 273.958969 Z M 395.16592 273.958969 " transform="matrix(1,0,0,-1,-3.97842,325.041)"/>
</g>
<path style="fill:none;stroke-width:2;stroke-linecap:butt;stroke-linejoin:round;stroke:rgb(0%,0%,0%);stroke-opacity:1;stroke-dasharray:4;stroke-miterlimit:10;" d="M 382.361233 224.341781 C 382.361233 224.341781 382.361233 224.341781 382.466701 224.599594 C 382.57217 224.857406 382.783108 225.373031 382.970608 225.767562 C 383.158108 226.158187 383.32217 226.423812 383.599514 226.779281 C 383.880764 227.130844 384.271389 227.568344 384.810451 228.056625 C 385.349514 228.541 386.033108 229.07225 386.962795 229.666 C 387.892483 230.25975 389.068264 230.908187 390.091701 231.423812 C 391.119045 231.939437 391.994045 232.32225 393.267483 232.806625 C 394.537014 233.291 396.204983 233.876937 398.07217 234.458969 C 399.935451 235.037094 402.001858 235.611312 405.001858 236.302719 C 407.997951 236.994125 411.931545 237.802719 415.50967 238.44725 C 419.091701 239.091781 422.32217 239.576156 425.716701 240.013656 C 429.115139 240.451156 432.677639 240.845687 437.208889 241.232406 C 441.744045 241.623031 447.247951 242.00975 451.958889 242.267562 C 456.673733 242.525375 460.595608 242.654281 464.79092 242.732406 C 468.986233 242.806625 473.451076 242.82225 478.060451 242.75975 C 482.66592 242.701156 487.408108 242.564437 492.060451 242.349594 C 496.712795 242.13475 501.267483 241.845687 504.689358 241.591781 C 508.115139 241.337875 510.404201 241.126937 513.138576 240.830062 C 515.869045 240.533187 519.044826 240.150375 522.474514 239.662094 C 525.904201 239.173812 529.595608 238.57225 533.255764 237.861312 C 536.91592 237.150375 540.552639 236.326156 543.69717 235.486312 C 546.841701 234.650375 549.501858 233.794906 551.747951 232.935531 C 553.997951 232.080062 555.833889 231.224594 557.22842 230.466781 C 558.622951 229.712875 559.57217 229.056625 560.341701 228.408187 C 561.107326 227.75975 561.693264 227.123031 562.111233 226.529281 C 562.529201 225.939437 562.779201 225.392562 562.904201 225.119125 C 563.029201 224.849594 563.029201 224.849594 563.029201 224.849594 " transform="matrix(1,0,0,-1,-3.97842,325.041)"/>
<path style="fill:none;stroke-width:2;stroke-linecap:butt;stroke-linejoin:round;stroke:rgb(0%,0%,0%);stroke-opacity:1;stroke-dasharray:4;stroke-miterlimit:10;" d="M 395.931545 224.771469 C 395.931545 224.771469 395.931545 224.771469 396.029201 224.943344 C 396.130764 225.115219 396.333889 225.455062 396.689358 225.802719 C 397.048733 226.150375 397.560451 226.501937 398.158108 226.818344 C 398.755764 227.138656 399.439358 227.423812 400.431545 227.744125 C 401.419826 228.064437 402.716701 228.416 403.798733 228.677719 C 404.880764 228.939437 405.751858 229.107406 406.650295 229.263656 C 407.552639 229.419906 408.486233 229.560531 409.798733 229.720687 C 411.115139 229.880844 412.814358 230.060531 414.150295 230.181625 C 415.482326 230.306625 416.44717 230.369125 417.564358 230.431625 C 418.685451 230.490219 419.954983 230.541 421.302639 230.576156 C 422.650295 230.611312 424.068264 230.626937 425.689358 230.611312 C 427.314358 230.599594 429.13467 230.552719 430.599514 230.501937 C 432.068264 230.443344 433.181545 230.380844 434.751858 230.244125 C 436.326076 230.111312 438.361233 229.904281 440.060451 229.693344 C 441.763576 229.4785 443.13467 229.25975 444.294826 229.041 C 445.458889 228.826156 446.412014 228.611312 447.220608 228.408187 C 448.029201 228.205062 448.693264 228.00975 449.224514 227.841781 C 449.755764 227.673812 450.150295 227.529281 450.619045 227.330062 C 451.087795 227.126937 451.626858 226.869125 451.997951 226.677719 C 452.372951 226.482406 452.57217 226.349594 452.673733 226.283187 C 452.775295 226.216781 452.775295 226.216781 452.775295 226.216781 " transform="matrix(1,0,0,-1,-3.97842,325.041)"/>
<path style="fill:none;stroke-width:4;stroke-linecap:butt;stroke-linejoin:round;stroke:rgb(86.999512%,86.999512%,86.999512%);stroke-opacity:1;stroke-miterlimit:10;" d="M 408.419826 250.923812 C 408.302639 245.767562 412.357326 238.587875 412.470608 231.63475 C 412.587795 224.685531 408.767483 217.966781 410.443264 212.462875 C 412.126858 206.962875 419.306545 202.673812 426.548733 203.658187 C 433.787014 204.642562 441.087795 210.900375 439.521389 221.556625 C 437.958889 232.212875 427.533108 247.275375 420.177639 253.240219 C 412.818264 259.205062 408.533108 256.076156 408.419826 250.923812 Z M 408.419826 250.923812 " transform="matrix(1,0,0,-1,-3.97842,325.041)"/>
<path style="fill-rule:evenodd;fill:rgb(92.098999%,92.098999%,92.098999%);fill-opacity:1;stroke-width:2;stroke-linecap:butt;stroke-linejoin:round;stroke:rgb(0%,0%,0%);stroke-opacity:1;stroke-miterlimit:10;" d="M 408.419826 250.923812 C 408.302639 245.767562 412.357326 238.587875 412.470608 231.63475 C 412.587795 224.685531 408.767483 217.966781 410.443264 212.462875 C 412.126858 206.962875 419.306545 202.673812 426.548733 203.658187 C 433.787014 204.642562 441.087795 210.900375 439.521389 221.556625 C 437.958889 232.212875 427.533108 247.275375 420.177639 253.240219 C 412.818264 259.205062 408.533108 256.076156 408.419826 250.923812 Z M 408.419826 250.923812 " transform="matrix(1,0,0,-1,-3.97842,325.041)"/>
<path style="fill:none;stroke-width:2;stroke-linecap:butt;stroke-linejoin:round;stroke:rgb(0%,0%,0%);stroke-opacity:1;stroke-dasharray:4;stroke-miterlimit:10;" d="M 411.619045 224.775375 C 411.619045 224.775375 411.619045 224.775375 411.630764 224.830062 C 411.642483 224.88475 411.66592 224.994125 411.693264 225.107406 C 411.716701 225.220687 411.740139 225.341781 411.982326 225.451156 C 412.220608 225.564437 412.677639 225.669906 413.033108 225.767562 C 413.388576 225.865219 413.646389 225.951156 414.115139 226.080062 C 414.587795 226.205062 415.275295 226.369125 416.185451 226.529281 C 417.095608 226.693344 418.22842 226.849594 419.732326 226.974594 C 421.240139 227.095687 423.119045 227.185531 424.939358 227.193344 C 426.75967 227.201156 428.525295 227.126937 430.00967 227.013656 C 431.497951 226.896469 432.708889 226.740219 433.82217 226.533187 C 434.939358 226.32225 435.962795 226.056625 436.654201 225.833969 C 437.349514 225.611312 437.712795 225.431625 437.97842 225.25975 C 438.244045 225.083969 438.41592 224.912094 438.513576 224.744125 C 438.607326 224.576156 438.630764 224.404281 438.642483 224.32225 C 438.654201 224.236312 438.654201 224.236312 438.654201 224.236312 " transform="matrix(1,0,0,-1,-3.97842,325.041)"/>
<path style="fill:none;stroke-width:2;stroke-linecap:butt;stroke-linejoin:round;stroke:rgb(0%,0%,0%);stroke-opacity:1;stroke-miterlimit:10;" d="M 411.57217 224.564437 C 411.57217 224.564437 411.57217 224.564437 411.615139 224.431625 C 411.654201 224.298812 411.736233 224.033187 411.912014 223.818344 C 412.083889 223.599594 412.349514 223.431625 412.599514 223.298812 C 412.849514 223.162094 413.087795 223.064437 413.560451 222.919906 C 414.033108 222.771469 414.747951 222.576156 415.466701 222.419906 C 416.185451 222.25975 416.912014 222.13475 417.736233 222.021469 C 418.560451 221.912094 419.482326 221.814437 420.404201 221.740219 C 421.329983 221.669906 422.255764 221.619125 423.216701 221.591781 C 424.173733 221.564437 425.162014 221.556625 426.189358 221.576156 C 427.220608 221.595687 428.29092 221.642562 429.314358 221.712875 C 430.337795 221.787094 431.314358 221.88475 432.169826 221.990219 C 433.025295 222.099594 433.755764 222.220687 434.423733 222.3535 C 435.095608 222.490219 435.701076 222.642562 436.158108 222.771469 C 436.615139 222.900375 436.923733 223.00975 437.19717 223.126937 C 437.474514 223.244125 437.720608 223.369125 437.958889 223.556625 C 438.19717 223.744125 438.427639 223.994125 438.544826 224.150375 C 438.66592 224.302719 438.673733 224.3535 438.677639 224.380844 C 438.681545 224.404281 438.681545 224.404281 438.681545 224.404281 " transform="matrix(1,0,0,-1,-3.97842,325.041)"/>
<path style="fill:none;stroke-width:4;stroke-linecap:butt;stroke-linejoin:round;stroke:rgb(86.999512%,86.999512%,86.999512%);stroke-opacity:1;stroke-miterlimit:10;" d="M 398.544826 258.189437 C 395.490139 251.060531 395.232326 241.138656 395.744045 229.939437 C 396.251858 218.740219 397.525295 206.267562 403.888576 194.435531 C 410.251858 182.599594 421.701076 171.400375 434.681545 170.001937 C 447.662014 168.599594 462.169826 177.001937 461.404201 196.087875 C 460.642483 215.177719 444.607326 244.955062 434.044826 259.716781 C 423.482326 274.4785 418.392483 274.224594 412.923733 271.931625 C 407.451076 269.642562 401.595608 265.314437 398.544826 258.189437 Z M 398.544826 258.189437 " transform="matrix(1,0,0,-1,-3.97842,325.041)"/>
<path style="fill:none;stroke-width:4;stroke-linecap:butt;stroke-linejoin:round;stroke:rgb(86.999512%,86.999512%,86.999512%);stroke-opacity:1;stroke-miterlimit:10;" d="M 396.146389 223.755844 C 396.146389 223.755844 396.146389 223.755844 396.146389 223.681625 C 396.150295 223.607406 396.150295 223.455062 396.431545 223.224594 C 396.712795 222.990219 397.267483 222.673812 397.849514 222.376937 C 398.435451 222.080062 399.052639 221.802719 399.826076 221.521469 C 400.599514 221.240219 401.529201 220.955062 402.454983 220.708969 C 403.380764 220.462875 404.298733 220.25975 405.052639 220.1035 C 405.806545 219.94725 406.396389 219.841781 407.587795 219.669906 C 408.779201 219.501937 410.576076 219.263656 412.201076 219.087875 C 413.82217 218.912094 415.271389 218.794906 416.724514 218.701156 C 418.181545 218.611312 419.638576 218.548812 421.056545 218.505844 C 422.474514 218.466781 423.849514 218.44725 425.306545 218.455062 C 426.767483 218.458969 428.306545 218.490219 429.88467 218.548812 C 431.462795 218.607406 433.079983 218.69725 435.275295 218.908187 C 437.474514 219.115219 440.255764 219.443344 442.119045 219.69725 C 443.982326 219.955062 444.923733 220.13475 445.747951 220.314437 C 446.568264 220.490219 447.271389 220.666 448.00967 220.876937 C 448.744045 221.087875 449.513576 221.337875 450.177639 221.587875 C 450.841701 221.837875 451.400295 222.087875 451.986233 222.50975 C 452.576076 222.931625 453.193264 223.517562 453.470608 223.88475 C 453.747951 224.248031 453.685451 224.392562 453.658108 224.462875 C 453.626858 224.537094 453.626858 224.537094 453.626858 224.537094 " transform="matrix(1,0,0,-1,-3.97842,325.041)"/>
<path style="fill:none;stroke-width:2;stroke-linecap:butt;stroke-linejoin:round;stroke:rgb(0%,0%,0%);stroke-opacity:1;stroke-miterlimit:10;" d="M 398.544826 258.189437 C 395.490139 251.060531 395.232326 241.138656 395.744045 229.939437 C 396.251858 218.740219 397.525295 206.267562 403.888576 194.435531 C 410.251858 182.599594 421.701076 171.400375 434.681545 170.001937 C 447.662014 168.599594 462.169826 177.001937 461.404201 196.087875 C 460.642483 215.177719 444.607326 244.955062 434.044826 259.716781 C 423.482326 274.4785 418.392483 274.224594 412.923733 271.931625 C 407.451076 269.642562 401.595608 265.314437 398.544826 258.189437 Z M 398.544826 258.189437 " transform="matrix(1,0,0,-1,-3.97842,325.041)"/>
<path style="fill:none;stroke-width:4;stroke-linecap:butt;stroke-linejoin:round;stroke:rgb(86.999512%,86.999512%,86.999512%);stroke-opacity:1;stroke-miterlimit:10;" d="M 388.271389 217.123031 C 388.271389 217.123031 388.271389 217.123031 389.10342 216.736312 C 389.931545 216.3535 391.591701 215.583969 393.458889 214.8535 C 395.32217 214.119125 397.396389 213.419906 400.119045 212.658187 C 402.841701 211.896469 406.212795 211.068344 409.361233 210.388656 C 412.50967 209.708969 415.431545 209.181625 419.154201 208.615219 C 422.876858 208.056625 427.400295 207.458969 431.685451 206.982406 C 435.966701 206.505844 440.005764 206.150375 444.486233 205.845687 C 448.966701 205.541 453.880764 205.287094 458.763576 205.123031 C 463.646389 204.955062 468.494045 204.880844 473.04092 204.876937 C 477.583889 204.873031 481.826076 204.939437 486.482326 205.1035 C 491.142483 205.263656 496.216701 205.517562 501.521389 205.908187 C 506.833889 206.298812 512.376858 206.82225 516.470608 207.263656 C 520.564358 207.705062 523.208889 208.068344 526.869045 208.689437 C 530.525295 209.314437 535.19717 210.19725 538.779201 210.970687 C 542.361233 211.748031 544.85342 212.412094 547.275295 213.177719 C 549.693264 213.939437 552.044826 214.798812 553.216701 215.2285 C 554.392483 215.658187 554.392483 215.658187 554.392483 215.658187 " transform="matrix(1,0,0,-1,-3.97842,325.041)"/>
<path style="fill:none;stroke-width:2;stroke-linecap:butt;stroke-linejoin:round;stroke:rgb(0%,0%,0%);stroke-opacity:1;stroke-miterlimit:10;" d="M 382.466701 223.75975 C 382.466701 223.75975 382.466701 223.75975 382.451076 223.494125 C 382.443264 223.232406 382.419826 222.701156 382.576076 222.255844 C 382.740139 221.806625 383.083889 221.435531 383.454983 221.021469 C 383.826076 220.607406 384.22842 220.154281 384.654201 219.736312 C 385.083889 219.32225 385.54092 218.943344 386.146389 218.513656 C 386.755764 218.083969 387.513576 217.6035 388.724514 216.9785 C 389.931545 216.3535 391.591701 215.583969 393.458889 214.8535 C 395.32217 214.119125 397.396389 213.419906 400.119045 212.658187 C 402.841701 211.896469 406.212795 211.068344 409.361233 210.388656 C 412.50967 209.708969 415.431545 209.181625 419.154201 208.615219 C 422.876858 208.056625 427.400295 207.458969 431.685451 206.982406 C 435.966701 206.505844 440.005764 206.150375 444.486233 205.845687 C 448.966701 205.541 453.880764 205.287094 458.763576 205.123031 C 463.646389 204.955062 468.494045 204.880844 473.04092 204.876937 C 477.583889 204.873031 481.826076 204.939437 486.482326 205.1035 C 491.142483 205.263656 496.216701 205.517562 501.521389 205.908187 C 506.833889 206.298812 512.376858 206.82225 516.470608 207.263656 C 520.564358 207.705062 523.208889 208.068344 526.869045 208.689437 C 530.525295 209.314437 535.19717 210.19725 538.779201 210.970687 C 542.361233 211.748031 544.85342 212.412094 547.275295 213.177719 C 549.693264 213.939437 552.044826 214.798812 554.060451 215.693344 C 556.079983 216.587875 557.767483 217.517562 559.005764 218.333969 C 560.244045 219.154281 561.033108 219.861312 561.521389 220.349594 C 562.00967 220.837875 562.201076 221.1035 562.365139 221.365219 C 562.529201 221.630844 562.669826 221.892562 562.794826 222.248031 C 562.919826 222.599594 563.029201 223.044906 563.087795 223.267562 C 563.142483 223.490219 563.142483 223.490219 563.142483 223.490219 " transform="matrix(1,0,0,-1,-3.97842,325.041)"/>
<path style="fill:none;stroke-width:2;stroke-linecap:butt;stroke-linejoin:round;stroke:rgb(0%,0%,0%);stroke-opacity:1;stroke-miterlimit:10;" d="M 396.146389 223.755844 C 396.146389 223.755844 396.146389 223.755844 396.146389 223.681625 C 396.150295 223.607406 396.150295 223.455062 396.431545 223.224594 C 396.712795 222.990219 397.267483 222.673812 397.849514 222.376937 C 398.435451 222.080062 399.052639 221.802719 399.826076 221.521469 C 400.599514 221.240219 401.529201 220.955062 402.454983 220.708969 C 403.380764 220.462875 404.298733 220.25975 405.052639 220.1035 C 405.806545 219.94725 406.396389 219.841781 407.587795 219.669906 C 408.779201 219.501937 410.576076 219.263656 412.201076 219.087875 C 413.82217 218.912094 415.271389 218.794906 416.724514 218.701156 C 418.181545 218.611312 419.638576 218.548812 421.056545 218.505844 C 422.474514 218.466781 423.849514 218.44725 425.306545 218.455062 C 426.767483 218.458969 428.306545 218.490219 429.88467 218.548812 C 431.462795 218.607406 433.079983 218.69725 435.275295 218.908187 C 437.474514 219.115219 440.255764 219.443344 442.119045 219.69725 C 443.982326 219.955062 444.923733 220.13475 445.747951 220.314437 C 446.568264 220.490219 447.271389 220.666 448.00967 220.876937 C 448.744045 221.087875 449.513576 221.337875 450.177639 221.587875 C 450.841701 221.837875 451.400295 222.087875 451.986233 222.50975 C 452.576076 222.931625 453.193264 223.517562 453.470608 223.88475 C 453.747951 224.248031 453.685451 224.392562 453.658108 224.462875 C 453.626858 224.537094 453.626858 224.537094 453.626858 224.537094 " transform="matrix(1,0,0,-1,-3.97842,325.041)"/>
<path style="fill-rule:evenodd;fill:rgb(25.898743%,25.898743%,25.898743%);fill-opacity:1;stroke-width:2;stroke-linecap:butt;stroke-linejoin:round;stroke:rgb(0%,0%,0%);stroke-opacity:1;stroke-miterlimit:10;" d="M 474.587795 281.068344 C 470.521389 274.443344 471.876858 266.763656 477.599514 262.544906 C 483.318264 258.330062 493.408108 257.576156 498.982326 251.8535 C 504.556545 246.130844 505.607326 235.439437 513.365139 231.220687 C 521.122951 227.005844 535.576076 229.263656 536.630764 241.990219 C 537.685451 254.712875 525.337795 277.908187 516.60342 289.126937 C 507.869045 300.345687 502.747951 299.591781 495.443264 296.431625 C 488.138576 293.267562 478.650295 287.69725 474.587795 281.068344 Z M 474.587795 281.068344 " transform="matrix(1,0,0,-1,-3.97842,325.041)"/>
<path style="fill:none;stroke-width:8;stroke-linecap:butt;stroke-linejoin:round;stroke:rgb(86.999512%,86.999512%,86.999512%);stroke-opacity:1;stroke-miterlimit:10;" d="M 474.587795 281.068344 C 470.521389 274.443344 471.876858 266.763656 477.599514 262.544906 C 483.318264 258.330062 493.408108 257.576156 498.982326 251.8535 C 504.556545 246.130844 505.607326 235.439437 513.365139 231.220687 C 521.122951 227.005844 535.576076 229.263656 536.630764 241.990219 C 537.685451 254.712875 525.337795 277.908187 516.60342 289.126937 C 507.869045 300.345687 502.747951 299.591781 495.443264 296.431625 C 488.138576 293.267562 478.650295 287.69725 474.587795 281.068344 Z M 474.587795 281.068344 " transform="matrix(1,0,0,-1,-3.97842,325.041)"/>
<path style="fill:none;stroke-width:2;stroke-linecap:butt;stroke-linejoin:round;stroke:rgb(0%,0%,0%);stroke-opacity:1;stroke-miterlimit:10;" d="M 474.587795 281.068344 C 470.521389 274.443344 471.876858 266.763656 477.599514 262.544906 C 483.318264 258.330062 493.408108 257.576156 498.982326 251.8535 C 504.556545 246.130844 505.607326 235.439437 513.365139 231.220687 C 521.122951 227.005844 535.576076 229.263656 536.630764 241.990219 C 537.685451 254.712875 525.337795 277.908187 516.60342 289.126937 C 507.869045 300.345687 502.747951 299.591781 495.443264 296.431625 C 488.138576 293.267562 478.650295 287.69725 474.587795 281.068344 Z M 474.587795 281.068344 " transform="matrix(1,0,0,-1,-3.97842,325.041)"/>
<path style="fill:none;stroke-width:2;stroke-linecap:butt;stroke-linejoin:round;stroke:rgb(0%,0%,0%);stroke-opacity:1;stroke-miterlimit:10;" d="M 472.404201 273.615219 C 472.404201 273.615219 472.404201 273.615219 472.408108 273.583969 C 472.41592 273.548812 472.423733 273.4785 472.482326 273.341781 C 472.54092 273.201156 472.646389 272.990219 472.775295 272.806625 C 472.900295 272.626937 473.048733 272.474594 473.22842 272.326156 C 473.408108 272.173812 473.626858 272.017562 473.833889 271.888656 C 474.04092 271.755844 474.240139 271.642562 474.787014 271.412094 C 475.333889 271.185531 476.224514 270.837875 477.392483 270.494125 C 478.560451 270.146469 480.00967 269.802719 482.001858 269.466781 C 483.990139 269.126937 486.521389 268.794906 488.564358 268.580062 C 490.607326 268.365219 492.162014 268.263656 493.814358 268.193344 C 495.466701 268.123031 497.216701 268.083969 499.099514 268.087875 C 500.97842 268.087875 502.990139 268.13475 505.001858 268.2285 C 507.00967 268.326156 509.017483 268.474594 510.704983 268.63475 C 512.388576 268.798812 513.755764 268.970687 515.204983 269.212875 C 516.658108 269.451156 518.19717 269.755844 519.482326 270.07225 C 520.771389 270.38475 521.810451 270.708969 522.650295 271.029281 C 523.490139 271.3535 524.126858 271.673812 524.568264 271.931625 C 525.005764 272.189437 525.244045 272.38475 525.443264 272.619125 C 525.646389 272.857406 525.810451 273.13475 525.896389 273.341781 C 525.982326 273.548812 525.990139 273.685531 525.994045 273.755844 C 525.997951 273.82225 525.997951 273.82225 525.997951 273.82225 " transform="matrix(1,0,0,-1,-3.97842,325.041)"/>
<path style="fill:none;stroke-width:2;stroke-linecap:butt;stroke-linejoin:round;stroke:rgb(0%,0%,0%);stroke-opacity:1;stroke-dasharray:4;stroke-miterlimit:10;" d="M 472.267483 273.986312 C 472.267483 273.986312 472.267483 273.986312 472.29092 274.19725 C 472.314358 274.408187 472.361233 274.830062 472.673733 275.115219 C 472.990139 275.404281 473.57217 275.552719 474.099514 275.736312 C 474.630764 275.919906 475.099514 276.13475 475.958889 276.431625 C 476.814358 276.724594 478.056545 277.099594 479.142483 277.380844 C 480.22842 277.658187 481.16592 277.849594 482.189358 278.025375 C 483.212795 278.201156 484.326076 278.369125 485.630764 278.525375 C 486.935451 278.685531 488.427639 278.837875 489.85342 278.951156 C 491.275295 279.068344 492.630764 279.146469 494.060451 279.205062 C 495.490139 279.263656 496.997951 279.298812 498.583889 279.306625 C 500.173733 279.310531 501.841701 279.287094 503.517483 279.2285 C 505.193264 279.169906 506.880764 279.076156 508.189358 278.986312 C 509.501858 278.892562 510.439358 278.806625 511.568264 278.677719 C 512.69717 278.548812 514.013576 278.373031 515.064358 278.216781 C 516.115139 278.060531 516.904201 277.919906 518.091701 277.63475 C 519.279201 277.349594 520.872951 276.923812 521.919826 276.6035 C 522.966701 276.279281 523.470608 276.064437 523.85342 275.880844 C 524.236233 275.693344 524.497951 275.544906 524.72842 275.392562 C 524.958889 275.240219 525.154201 275.083969 525.314358 274.935531 C 525.474514 274.787094 525.599514 274.646469 525.66592 274.576156 C 525.724514 274.505844 525.724514 274.505844 525.724514 274.505844 " transform="matrix(1,0,0,-1,-3.97842,325.041)"/>
<path style="fill-rule:evenodd;fill:rgb(86.999512%,86.999512%,86.999512%);fill-opacity:1;stroke-width:2;stroke-linecap:butt;stroke-linejoin:round;stroke:rgb(0%,0%,0%);stroke-opacity:1;stroke-miterlimit:10;" d="M 13.087795 189.38475 C 12.693264 181.888656 22.556545 175.775375 32.517482 171.927719 C 42.47842 168.080062 52.537014 166.505844 54.412014 173.111312 C 56.283107 179.720687 49.974514 194.513656 45.337795 202.794906 C 40.701076 211.080062 37.744045 212.8535 30.939357 209.306625 C 24.13467 205.755844 13.482326 196.880844 13.087795 189.38475 Z M 13.087795 189.38475 " transform="matrix(1,0,0,-1,-3.97842,325.041)"/>
<path style="fill-rule:evenodd;fill:rgb(86.999512%,86.999512%,86.999512%);fill-opacity:1;stroke-width:2;stroke-linecap:butt;stroke-linejoin:round;stroke:rgb(0%,0%,0%);stroke-opacity:1;stroke-miterlimit:10;" d="M 65.751857 218.673812 C 66.341701 202.994125 70.681545 186.623031 87.349514 177.154281 C 104.017482 167.689437 133.00967 165.123031 146.423732 186.919906 C 159.833889 208.712875 157.66592 254.865219 142.576076 271.830062 C 127.486232 288.791 99.47842 276.564437 83.896389 262.955062 C 68.314357 249.345687 65.162014 234.3535 65.751857 218.673812 Z M 65.751857 218.673812 " transform="matrix(1,0,0,-1,-3.97842,325.041)"/>
<path style="fill-rule:evenodd;fill:rgb(86.999512%,86.999512%,86.999512%);fill-opacity:1;stroke-width:2;stroke-linecap:butt;stroke-linejoin:round;stroke:rgb(0%,0%,0%);stroke-opacity:1;stroke-miterlimit:10;" d="M 5.595607 248.25975 C 7.568264 236.720687 17.626857 222.126937 28.474514 221.927719 C 39.32217 221.732406 50.958889 235.931625 50.369045 243.525375 C 49.775295 251.119125 36.954982 252.107406 29.16592 256.544906 C 21.372951 260.982406 18.611232 268.869125 14.173732 268.576156 C 9.736232 268.279281 3.622951 259.798812 5.595607 248.25975 Z M 5.595607 248.25975 " transform="matrix(1,0,0,-1,-3.97842,325.041)"/>
<path style=" stroke:none;fill-rule:evenodd;fill:rgb(0%,0%,100%);fill-opacity:1;" d="M 122.246094 62.480469 C 122.246094 61.652344 121.574219 60.980469 120.746094 60.980469 C 119.917969 60.980469 119.246094 61.652344 119.246094 62.480469 C 119.246094 63.308594 119.917969 63.980469 120.746094 63.980469 C 121.574219 63.980469 122.246094 63.308594 122.246094 62.480469 "/>
<path style=" stroke:none;fill-rule:evenodd;fill:rgb(0%,0%,0%);fill-opacity:1;" d="M 122.546875 62.480469 C 122.546875 61.488281 121.742188 60.683594 120.746094 60.683594 C 119.753906 60.683594 118.949219 61.488281 118.949219 62.480469 C 118.949219 63.476562 119.753906 64.28125 120.746094 64.28125 C 121.742188 64.28125 122.546875 63.476562 122.546875 62.480469 M 121.949219 62.480469 C 121.949219 61.820312 121.410156 61.28125 120.746094 61.28125 C 120.085938 61.28125 119.546875 61.820312 119.546875 62.480469 C 119.546875 63.144531 120.085938 63.683594 120.746094 63.683594 C 121.410156 63.683594 121.949219 63.144531 121.949219 62.480469 "/>
<path style=" stroke:none;fill-rule:evenodd;fill:rgb(100%,0%,0%);fill-opacity:1;" d="M 83.195312 128.753906 C 83.195312 127.925781 82.523438 127.253906 81.695312 127.253906 C 80.867188 127.253906 80.195312 127.925781 80.195312 128.753906 C 80.195312 129.582031 80.867188 130.253906 81.695312 130.253906 C 82.523438 130.253906 83.195312 129.582031 83.195312 128.753906 "/>
<path style=" stroke:none;fill-rule:evenodd;fill:rgb(0%,0%,0%);fill-opacity:1;" d="M 83.496094 128.753906 C 83.496094 127.761719 82.6875 126.953125 81.695312 126.953125 C 80.699219 126.953125 79.894531 127.761719 79.894531 128.753906 C 79.894531 129.746094 80.699219 130.554688 81.695312 130.554688 C 82.6875 130.554688 83.496094 129.746094 83.496094 128.753906 M 82.894531 128.753906 C 82.894531 128.089844 82.355469 127.554688 81.695312 127.554688 C 81.03125 127.554688 80.496094 128.089844 80.496094 128.753906 C 80.496094 129.417969 81.03125 129.953125 81.695312 129.953125 C 82.355469 129.953125 82.894531 129.417969 82.894531 128.753906 "/>
<path style=" stroke:none;fill-rule:evenodd;fill:rgb(0%,0%,100%);fill-opacity:1;" d="M 16.199219 77.984375 C 16.199219 77.15625 15.527344 76.484375 14.699219 76.484375 C 13.871094 76.484375 13.199219 77.15625 13.199219 77.984375 C 13.199219 78.8125 13.871094 79.484375 14.699219 79.484375 C 15.527344 79.484375 16.199219 78.8125 16.199219 77.984375 "/>
<path style=" stroke:none;fill-rule:evenodd;fill:rgb(0%,0%,0%);fill-opacity:1;" d="M 16.5 77.984375 C 16.5 76.988281 15.695312 76.183594 14.699219 76.183594 C 13.707031 76.183594 12.898438 76.988281 12.898438 77.984375 C 12.898438 78.976562 13.707031 79.785156 14.699219 79.785156 C 15.695312 79.785156 16.5 78.976562 16.5 77.984375 M 15.898438 77.984375 C 15.898438 77.320312 15.363281 76.785156 14.699219 76.785156 C 14.035156 76.785156 13.5 77.320312 13.5 77.984375 C 13.5 78.648438 14.035156 79.183594 14.699219 79.183594 C 15.363281 79.183594 15.898438 78.648438 15.898438 77.984375 "/>
<path style=" stroke:none;fill-rule:evenodd;fill:rgb(100%,0%,0%);fill-opacity:1;" d="M 35.316406 138.519531 C 35.316406 137.691406 34.644531 137.019531 33.816406 137.019531 C 32.988281 137.019531 32.316406 137.691406 32.316406 138.519531 C 32.316406 139.347656 32.988281 140.019531 33.816406 140.019531 C 34.644531 140.019531 35.316406 139.347656 35.316406 138.519531 "/>
<path style=" stroke:none;fill-rule:evenodd;fill:rgb(0%,0%,0%);fill-opacity:1;" d="M 35.617188 138.519531 C 35.617188 137.527344 34.808594 136.722656 33.816406 136.722656 C 32.820312 136.722656 32.015625 137.527344 32.015625 138.519531 C 32.015625 139.515625 32.820312 140.320312 33.816406 140.320312 C 34.808594 140.320312 35.617188 139.515625 35.617188 138.519531 M 35.015625 138.519531 C 35.015625 137.859375 34.480469 137.320312 33.816406 137.320312 C 33.152344 137.320312 32.617188 137.859375 32.617188 138.519531 C 32.617188 139.183594 33.152344 139.722656 33.816406 139.722656 C 34.480469 139.722656 35.015625 139.183594 35.015625 138.519531 "/>
<path style="fill:none;stroke-width:2;stroke-linecap:butt;stroke-linejoin:round;stroke:rgb(25.898743%,25.898743%,25.898743%);stroke-opacity:1;stroke-miterlimit:10;" d="M 85.673732 196.287094 C 85.673732 196.287094 85.673732 196.287094 87.349514 198.654281 C 89.025295 201.021469 92.380764 205.755844 96.91592 207.826156 C 101.451076 209.896469 107.173732 209.306625 112.595607 207.037094 C 118.021389 204.767562 123.146389 200.82225 127.091701 202.400375 C 131.037014 203.9785 133.798732 211.080062 131.236232 216.208969 C 128.669826 221.337875 120.779201 224.494125 114.271389 228.537094 C 107.763576 232.580062 102.63467 237.50975 102.240139 241.751937 C 101.845607 245.990219 106.185451 249.541 110.720607 252.896469 C 115.25967 256.248031 119.990139 259.404281 122.357326 260.982406 C 124.724514 262.560531 124.724514 262.560531 124.724514 262.560531 " transform="matrix(1,0,0,-1,-3.97842,325.041)"/>
<path style="fill-rule:evenodd;fill:rgb(25.898743%,25.898743%,25.898743%);fill-opacity:1;stroke-width:2;stroke-linecap:butt;stroke-linejoin:round;stroke:rgb(25.898743%,25.898743%,25.898743%);stroke-opacity:1;stroke-miterlimit:10;" d="M 124.724514 262.560531 L 117.607326 260.615219 L 120.193264 256.736312 Z M 124.724514 262.560531 " transform="matrix(1,0,0,-1,-3.97842,325.041)"/>
</g>
</svg>
