<?xml version="1.0" encoding="UTF-8"?>
<svg xmlns="http://www.w3.org/2000/svg" xmlns:xlink="http://www.w3.org/1999/xlink" width="277.808pt" height="92.71pt" viewBox="0 0 277.808 92.71" version="1.1">
<defs>
<clipPath id="clip1">
  <path d="M 167 14 L 277.808594 14 L 277.808594 78 L 167 78 Z M 167 14 "/>
</clipPath>
<clipPath id="clip2">
  <path d="M 0 0 L 93 0 L 93 92.710938 L 0 92.710938 Z M 0 0 "/>
</clipPath>
</defs>
<g id="surface1">
<path style=" stroke:none;fill-rule:evenodd;fill:rgb(82.699585%,82.699585%,82.699585%);fill-opacity:1;" d="M 172.90625 32.839844 C 166.753906 40.777344 167.042969 51.542969 172.570312 59.386719 C 178.09375 67.226562 188.859375 72.152344 201.792969 74.757812 C 214.726562 77.363281 229.835938 77.652344 242.890625 75.023438 C 255.945312 72.390625 266.949219 66.84375 272.5 59.070312 C 278.050781 51.300781 278.148438 41.308594 272.570312 33.5625 C 266.996094 25.816406 255.753906 20.316406 243.421875 17.539062 C 231.089844 14.765625 217.671875 14.71875 204.664062 17.25 C 191.65625 19.785156 179.058594 24.898438 172.90625 32.839844 Z M 172.90625 32.839844 "/>
<g clip-path="url(#clip1)" clip-rule="nonzero">
<path style="fill:none;stroke-width:1.2;stroke-linecap:butt;stroke-linejoin:round;stroke:rgb(0%,0%,0%);stroke-opacity:1;stroke-miterlimit:10;" d="M 299.89325 509.515156 C 293.740906 501.577656 294.029969 490.812031 299.557313 482.968281 C 305.08075 475.128437 315.846375 470.202656 328.779969 467.597187 C 341.713563 464.991719 356.822938 464.702656 369.877625 467.331562 C 382.932313 469.964375 393.936219 475.51125 399.487 483.284687 C 405.037781 491.054219 405.135438 501.046406 399.557313 508.7925 C 393.983094 516.538594 382.740906 522.038594 370.408875 524.815937 C 358.076844 527.589375 344.658875 527.63625 331.651063 525.105 C 318.64325 522.569844 306.045594 517.456562 299.89325 509.515156 Z M 299.89325 509.515156 " transform="matrix(1,0,0,-1,-126.987,542.355)"/>
</g>
<path style=" stroke:none;fill-rule:evenodd;fill:rgb(100%,100%,100%);fill-opacity:1;" d="M 205.5 44.628906 C 206.664062 44.339844 207.6875 44.121094 209.003906 43.898438 C 210.320312 43.671875 211.933594 43.441406 213.199219 43.28125 C 214.464844 43.125 215.386719 43.042969 216.566406 42.960938 C 217.75 42.882812 219.195312 42.804688 220.652344 42.757812 C 222.105469 42.710938 223.570312 42.695312 225.03125 42.738281 C 226.488281 42.777344 227.941406 42.882812 229.386719 43.011719 C 230.828125 43.140625 232.265625 43.300781 233.542969 43.464844 C 234.824219 43.632812 235.949219 43.804688 236.847656 43.964844 C 237.742188 44.125 238.414062 44.269531 239.246094 44.472656 C 240.074219 44.679688 241.0625 44.945312 242.097656 45.265625 C 243.132812 45.589844 244.210938 45.964844 244.75 46.152344 C 245.289062 46.339844 245.289062 46.339844 244.847656 46.492188 C 244.402344 46.648438 243.515625 46.953125 242.53125 47.246094 C 241.550781 47.542969 240.46875 47.820312 239.292969 48.09375 C 238.117188 48.367188 236.851562 48.632812 235.835938 48.835938 C 234.824219 49.039062 234.0625 49.179688 233.234375 49.304688 C 232.402344 49.433594 231.496094 49.546875 230.605469 49.632812 C 229.714844 49.71875 228.835938 49.773438 227.960938 49.820312 C 227.085938 49.863281 226.214844 49.898438 225.371094 49.925781 C 224.527344 49.953125 223.714844 49.972656 222.917969 49.984375 C 222.121094 49.992188 221.34375 49.988281 220.613281 49.972656 C 219.882812 49.953125 219.199219 49.921875 218.519531 49.882812 C 217.839844 49.839844 217.164062 49.792969 216.46875 49.738281 C 215.773438 49.683594 215.0625 49.621094 214.199219 49.53125 C 213.335938 49.4375 212.324219 49.316406 211.519531 49.210938 C 210.71875 49.101562 210.121094 49.007812 209.445312 48.886719 C 208.769531 48.765625 208.011719 48.621094 207.285156 48.46875 C 206.558594 48.320312 205.859375 48.164062 205.160156 47.996094 C 204.460938 47.828125 203.761719 47.644531 203.230469 47.492188 C 202.695312 47.347656 202.335938 47.230469 201.777344 47.027344 C 201.21875 46.824219 200.464844 46.535156 200.085938 46.386719 C 199.710938 46.242188 199.710938 46.242188 200.046875 46.140625 C 200.386719 46.039062 201.058594 45.839844 202.046875 45.5625 C 203.035156 45.28125 204.335938 44.921875 205.5 44.628906 Z M 205.5 44.628906 "/>
<path style=" stroke:none;fill-rule:evenodd;fill:rgb(82.699585%,82.699585%,82.699585%);fill-opacity:1;" d="M 91.609375 46.355469 C 91.609375 21.359375 71.347656 1.101562 46.355469 1.101562 C 21.359375 1.101562 1.101562 21.359375 1.101562 46.355469 C 1.101562 71.347656 21.359375 91.609375 46.355469 91.609375 C 71.347656 91.609375 91.609375 71.347656 91.609375 46.355469 "/>
<g clip-path="url(#clip2)" clip-rule="nonzero">
<path style="fill:none;stroke-width:1.2;stroke-linecap:butt;stroke-linejoin:round;stroke:rgb(0%,0%,0%);stroke-opacity:1;stroke-miterlimit:10;" d="M 218.596375 495.999531 C 218.596375 520.995625 198.334656 541.253437 173.342469 541.253437 C 148.346375 541.253437 128.088563 520.995625 128.088563 495.999531 C 128.088563 471.007344 148.346375 450.745625 173.342469 450.745625 C 198.334656 450.745625 218.596375 471.007344 218.596375 495.999531 " transform="matrix(1,0,0,-1,-126.987,542.355)"/>
</g>
<path style="fill:none;stroke-width:1.2;stroke-linecap:butt;stroke-linejoin:round;stroke:rgb(0%,0%,0%);stroke-opacity:1;stroke-dasharray:4;stroke-miterlimit:10;" d="M 218.166688 495.890156 C 218.248719 501.257344 198.229188 505.624531 173.447938 505.640156 C 148.666688 505.659687 128.510438 501.32375 128.428406 495.956562 C 128.428406 495.94875 128.428406 495.944844 128.428406 495.937031 " transform="matrix(1,0,0,-1,-126.987,542.355)"/>
<path style="fill:none;stroke-width:1.2;stroke-linecap:butt;stroke-linejoin:round;stroke:rgb(0%,0%,0%);stroke-opacity:1;stroke-miterlimit:10;" d="M 128.428406 495.937031 C 128.397156 490.569844 148.45575 486.214375 173.237 486.206562 C 197.983094 486.19875 218.084656 490.530781 218.166688 495.890156 " transform="matrix(1,0,0,-1,-126.987,542.355)"/>
<path style="fill:none;stroke-width:1.2;stroke-linecap:round;stroke-linejoin:round;stroke:rgb(0%,0%,0%);stroke-opacity:1;stroke-miterlimit:10;" d="M 321.951844 498.76125 C 321.951844 498.76125 321.951844 498.76125 322.416688 498.464375 C 322.881531 498.1675 323.807313 497.57375 324.920594 496.98 C 326.037781 496.38625 327.334656 495.7925 328.803406 495.288594 C 330.26825 494.788594 331.901063 494.382344 333.627625 494.007344 C 335.354188 493.63625 337.1745 493.304219 338.994813 493.062031 C 340.811219 492.819844 342.631531 492.671406 344.135438 492.562031 C 345.639344 492.44875 346.826844 492.374531 348.14325 492.358906 C 349.463563 492.339375 350.912781 492.374531 352.58075 492.433125 C 354.252625 492.487812 356.147156 492.562031 357.740906 492.710469 C 359.338563 492.858906 360.639344 493.081562 362.178406 493.378437 C 363.717469 493.675312 365.502625 494.046406 366.987 494.397969 C 368.471375 494.753437 369.658875 495.085469 370.717469 495.440937 C 371.776063 495.7925 372.70575 496.163594 373.779969 496.718281 C 374.858094 497.276875 376.08075 498.019062 376.694031 498.390156 C 377.307313 498.76125 377.307313 498.76125 377.307313 498.76125 " transform="matrix(1,0,0,-1,-126.987,542.355)"/>
<path style="fill:none;stroke-width:1.2;stroke-linecap:round;stroke-linejoin:round;stroke:rgb(0%,0%,0%);stroke-opacity:1;stroke-miterlimit:10;" d="M 326.697938 496.112812 C 326.697938 496.112812 326.697938 496.112812 327.244813 496.276875 C 327.787781 496.440937 328.881531 496.765156 329.963563 497.077656 C 331.0495 497.38625 332.123719 497.683125 333.240906 497.944844 C 334.350281 498.206562 335.502625 498.425312 336.748719 498.632344 C 337.990906 498.835469 339.326844 499.022969 340.737 499.171406 C 342.147156 499.319844 343.635438 499.429219 344.916688 499.503437 C 346.197938 499.577656 347.272156 499.616719 348.404969 499.651875 C 349.537781 499.690937 350.725281 499.726094 352.209656 499.671406 C 353.694031 499.616719 355.475281 499.468281 357.315125 499.280781 C 359.151063 499.097187 361.045594 498.874531 362.588563 498.632344 C 364.127625 498.390156 365.315125 498.128437 366.436219 497.855 C 367.561219 497.577656 368.615906 497.284687 369.576844 496.972187 C 370.541688 496.663594 371.408875 496.339375 371.842469 496.179219 C 372.276063 496.015156 372.276063 496.015156 372.276063 496.015156 " transform="matrix(1,0,0,-1,-126.987,542.355)"/>
<path style="fill:none;stroke-width:1.2;stroke-linecap:butt;stroke-linejoin:round;stroke:rgb(0%,0%,0%);stroke-opacity:1;stroke-miterlimit:10;" d="M 326.697938 496.112812 L 326.697938 496.112812 " transform="matrix(1,0,0,-1,-126.987,542.355)"/>
<path style="fill:none;stroke-width:2;stroke-linecap:butt;stroke-linejoin:round;stroke:rgb(0%,0%,0%);stroke-opacity:1;stroke-miterlimit:10;" d="M 152.709656 468.487812 C 154.451844 481.82375 153.436219 487.476094 151.190125 492.48 C 148.940125 497.48 145.463563 501.831562 142.416688 504.827656 C 139.373719 507.82375 136.764344 509.468281 135.748719 512.753437 C 134.733094 516.038594 135.315125 520.968281 138.502625 524.44875 " transform="matrix(1,0,0,-1,-126.987,542.355)"/>
<path style="fill:none;stroke-width:2;stroke-linecap:butt;stroke-linejoin:round;stroke:rgb(0%,0%,0%);stroke-opacity:1;stroke-dasharray:4;stroke-miterlimit:10;" d="M 137.987 523.882344 C 141.451844 528.272969 146.213563 528.679219 149.752625 528.159687 C 153.291688 527.63625 155.612 526.187031 158.701844 524.397969 C 161.795594 522.608906 165.662781 520.483906 170.252625 520.726094 C 174.842469 520.968281 180.158875 523.577656 184.412781 525.655781 C 188.666688 527.733906 191.854188 529.280781 194.463563 529.909687 C 197.072938 530.534687 199.104188 530.245625 201.061219 529.812031 C 203.01825 529.374531 204.901063 528.796406 206.932313 526.476094 " transform="matrix(1,0,0,-1,-126.987,542.355)"/>
<path style="fill:none;stroke-width:2;stroke-linecap:butt;stroke-linejoin:round;stroke:rgb(0%,0%,0%);stroke-opacity:1;stroke-miterlimit:10;" d="M 206.932313 526.476094 C 209.252625 523.288594 207.658875 520.241719 204.756531 516.546406 C 201.858094 512.847187 197.654969 508.499531 195.045594 493.421406 " transform="matrix(1,0,0,-1,-126.987,542.355)"/>
<path style="fill:none;stroke-width:2;stroke-linecap:butt;stroke-linejoin:round;stroke:rgb(0%,0%,0%);stroke-opacity:1;stroke-miterlimit:10;" d="M 302.764344 490.6675 C 306.541688 486.034687 310.229188 486.120625 313.045594 486.647969 C 315.862 487.179219 317.807313 488.151875 319.694031 489.265156 C 321.58075 490.378437 323.412781 491.63625 324.928406 492.440937 C 326.440125 493.237812 327.64325 493.581562 329.229188 493.839375 C 330.815125 494.097187 332.791688 494.269062 334.506531 493.753437 " transform="matrix(1,0,0,-1,-126.987,542.355)"/>
<path style="fill:none;stroke-width:2;stroke-linecap:butt;stroke-linejoin:round;stroke:rgb(0%,0%,0%);stroke-opacity:1;stroke-dasharray:4;stroke-miterlimit:10;" d="M 334.240906 493.839375 C 335.662781 493.331562 336.83075 492.366719 337.647156 491.32375 C 338.471375 490.284687 338.944031 489.1675 339.365906 487.882344 C 339.791688 486.593281 340.162781 485.140156 340.365906 483.651875 C 340.569031 482.163594 340.600281 480.640156 340.498719 478.929219 C 340.397156 477.222187 340.162781 475.327656 339.842469 473.737812 C 339.51825 472.144062 339.115906 470.858906 338.639344 469.894062 C 338.166688 468.929219 337.623719 468.288594 337.135438 467.831562 C 336.64325 467.374531 336.20575 467.105 335.604188 466.9175 C 335.002625 466.733906 334.240906 466.628437 333.225281 466.933125 " transform="matrix(1,0,0,-1,-126.987,542.355)"/>
<path style="fill:none;stroke-width:2;stroke-linecap:butt;stroke-linejoin:round;stroke:rgb(0%,0%,0%);stroke-opacity:1;stroke-miterlimit:10;" d="M 333.225281 466.933125 C 331.947938 467.296406 331.619813 468.335469 331.815125 469.851094 C 332.006531 471.366719 332.717469 473.362812 333.783875 475.409687 C 334.850281 477.456562 336.26825 479.554219 338.065125 481.433125 C 339.858094 483.312031 342.022156 484.972187 344.256531 486.374531 C 346.490906 487.780781 348.791688 488.929219 351.537781 490.026875 C 354.287781 491.120625 357.479188 492.163594 363.377625 493.632344 " transform="matrix(1,0,0,-1,-126.987,542.355)"/>
<path style="fill:none;stroke-width:2;stroke-linecap:butt;stroke-linejoin:round;stroke:rgb(0%,0%,0%);stroke-opacity:1;stroke-dasharray:4;stroke-miterlimit:10;" d="M 363.377625 493.632344 C 367.436219 494.651875 370.026063 493.88625 372.537781 492.558125 C 375.053406 491.23 377.487 489.335469 379.365906 487.003437 C 381.244813 484.6675 382.565125 481.890156 383.256531 479.726094 C 383.951844 477.558125 384.01825 476.003437 383.967469 474.819844 C 383.916688 473.63625 383.748719 472.82375 383.389344 472.175312 C 383.033875 471.526875 382.487 471.046406 381.346375 470.644062 " transform="matrix(1,0,0,-1,-126.987,542.355)"/>
<path style="fill:none;stroke-width:2;stroke-linecap:butt;stroke-linejoin:round;stroke:rgb(0%,0%,0%);stroke-opacity:1;stroke-miterlimit:10;" d="M 381.447938 470.690937 C 379.822938 470.081562 378.451844 470.640156 377.514344 471.968281 C 376.572938 473.296406 376.065125 475.394062 375.983094 477.374531 C 375.897156 479.351094 376.237 481.214375 376.877625 483.128437 C 377.522156 485.038594 378.467469 486.999531 380.084656 489.202656 C 381.701844 491.401875 383.987 493.839375 391.397156 497.085469 " transform="matrix(1,0,0,-1,-126.987,542.355)"/>
</g>
</svg>
