<?xml version="1.0" encoding="UTF-8"?>
<svg xmlns="http://www.w3.org/2000/svg" xmlns:xlink="http://www.w3.org/1999/xlink" width="277.807pt" height="92.71pt" viewBox="0 0 277.807 92.71" version="1.1">
<defs>
<clipPath id="clip1">
  <path d="M 167 14 L 277.808594 14 L 277.808594 78 L 167 78 Z M 167 14 "/>
</clipPath>
<clipPath id="clip2">
  <path d="M 0 0 L 93 0 L 93 92.710938 L 0 92.710938 Z M 0 0 "/>
</clipPath>
</defs>
<g id="surface1">
<path style=" stroke:none;fill-rule:evenodd;fill:rgb(82.699585%,82.699585%,82.699585%);fill-opacity:1;" d="M 172.90625 32.839844 C 166.753906 40.777344 167.042969 51.542969 172.566406 59.386719 C 178.09375 67.226562 188.859375 72.152344 201.792969 74.757812 C 214.726562 77.363281 229.835938 77.652344 242.890625 75.023438 C 255.945312 72.390625 266.949219 66.84375 272.5 59.070312 C 278.050781 51.300781 278.144531 41.308594 272.570312 33.5625 C 266.996094 25.816406 255.753906 20.316406 243.421875 17.539062 C 231.089844 14.765625 217.671875 14.71875 204.664062 17.25 C 191.65625 19.785156 179.058594 24.898438 172.90625 32.839844 Z M 172.90625 32.839844 "/>
<g clip-path="url(#clip1)" clip-rule="nonzero">
<path style="fill:none;stroke-width:1.2;stroke-linecap:butt;stroke-linejoin:round;stroke:rgb(0%,0%,0%);stroke-opacity:1;stroke-miterlimit:10;" d="M 315.89325 509.515156 C 309.740906 501.577656 310.029969 490.812031 315.553406 482.968281 C 321.08075 475.128437 331.846375 470.202656 344.779969 467.597187 C 357.713563 464.991719 372.822938 464.702656 385.877625 467.331562 C 398.932313 469.964375 409.936219 475.51125 415.487 483.284687 C 421.037781 491.054219 421.131531 501.046406 415.557313 508.7925 C 409.983094 516.538594 398.740906 522.038594 386.408875 524.815937 C 374.076844 527.589375 360.658875 527.63625 347.651063 525.105 C 334.64325 522.569844 322.045594 517.456562 315.89325 509.515156 Z M 315.89325 509.515156 " transform="matrix(1,0,0,-1,-142.987,542.355)"/>
</g>
<path style=" stroke:none;fill-rule:evenodd;fill:rgb(100%,100%,100%);fill-opacity:1;" d="M 205.5 44.628906 C 206.664062 44.339844 207.6875 44.121094 209.003906 43.898438 C 210.320312 43.671875 211.933594 43.441406 213.199219 43.28125 C 214.464844 43.125 215.386719 43.042969 216.566406 42.960938 C 217.75 42.882812 219.195312 42.804688 220.652344 42.757812 C 222.105469 42.710938 223.570312 42.695312 225.03125 42.738281 C 226.488281 42.777344 227.941406 42.882812 229.386719 43.011719 C 230.828125 43.140625 232.265625 43.300781 233.542969 43.464844 C 234.824219 43.632812 235.949219 43.804688 236.847656 43.964844 C 237.742188 44.125 238.414062 44.269531 239.246094 44.472656 C 240.074219 44.679688 241.0625 44.945312 242.097656 45.265625 C 243.132812 45.589844 244.210938 45.964844 244.75 46.152344 C 245.289062 46.339844 245.289062 46.339844 244.847656 46.492188 C 244.402344 46.648438 243.515625 46.953125 242.53125 47.246094 C 241.550781 47.542969 240.46875 47.820312 239.292969 48.09375 C 238.117188 48.367188 236.851562 48.632812 235.835938 48.835938 C 234.824219 49.039062 234.0625 49.179688 233.234375 49.304688 C 232.402344 49.433594 231.496094 49.546875 230.605469 49.632812 C 229.714844 49.71875 228.835938 49.773438 227.960938 49.820312 C 227.085938 49.863281 226.214844 49.898438 225.371094 49.925781 C 224.527344 49.953125 223.714844 49.972656 222.917969 49.984375 C 222.121094 49.992188 221.34375 49.988281 220.613281 49.972656 C 219.882812 49.953125 219.199219 49.921875 218.519531 49.882812 C 217.839844 49.839844 217.164062 49.792969 216.46875 49.738281 C 215.773438 49.683594 215.0625 49.621094 214.199219 49.53125 C 213.335938 49.4375 212.324219 49.316406 211.519531 49.210938 C 210.71875 49.101562 210.121094 49.007812 209.445312 48.886719 C 208.769531 48.765625 208.011719 48.621094 207.285156 48.46875 C 206.558594 48.320312 205.859375 48.164062 205.160156 47.996094 C 204.460938 47.828125 203.761719 47.644531 203.230469 47.492188 C 202.695312 47.347656 202.335938 47.230469 201.777344 47.027344 C 201.21875 46.824219 200.464844 46.535156 200.085938 46.386719 C 199.710938 46.242188 199.710938 46.242188 200.046875 46.140625 C 200.386719 46.039062 201.058594 45.839844 202.046875 45.5625 C 203.035156 45.28125 204.335938 44.921875 205.5 44.628906 Z M 205.5 44.628906 "/>
<path style=" stroke:none;fill-rule:evenodd;fill:rgb(82.699585%,82.699585%,82.699585%);fill-opacity:1;" d="M 91.609375 46.355469 C 91.609375 21.359375 71.347656 1.101562 46.355469 1.101562 C 21.359375 1.101562 1.101562 21.359375 1.101562 46.355469 C 1.101562 71.347656 21.359375 91.609375 46.355469 91.609375 C 71.347656 91.609375 91.609375 71.347656 91.609375 46.355469 "/>
<g clip-path="url(#clip2)" clip-rule="nonzero">
<path style="fill:none;stroke-width:1.2;stroke-linecap:butt;stroke-linejoin:round;stroke:rgb(0%,0%,0%);stroke-opacity:1;stroke-miterlimit:10;" d="M 234.596375 495.999531 C 234.596375 520.995625 214.334656 541.253437 189.342469 541.253437 C 164.346375 541.253437 144.088563 520.995625 144.088563 495.999531 C 144.088563 471.007344 164.346375 450.745625 189.342469 450.745625 C 214.334656 450.745625 234.596375 471.007344 234.596375 495.999531 " transform="matrix(1,0,0,-1,-142.987,542.355)"/>
</g>
<path style="fill:none;stroke-width:1.2;stroke-linecap:butt;stroke-linejoin:round;stroke:rgb(0%,0%,0%);stroke-opacity:1;stroke-dasharray:4;stroke-miterlimit:10;" d="M 234.166688 495.890156 C 234.248719 501.257344 214.229188 505.624531 189.447938 505.640156 C 164.666688 505.659687 144.510438 501.32375 144.428406 495.956562 C 144.428406 495.94875 144.428406 495.944844 144.428406 495.937031 " transform="matrix(1,0,0,-1,-142.987,542.355)"/>
<path style="fill:none;stroke-width:1.2;stroke-linecap:butt;stroke-linejoin:round;stroke:rgb(0%,0%,0%);stroke-opacity:1;stroke-miterlimit:10;" d="M 144.428406 495.937031 C 144.397156 490.569844 164.45575 486.214375 189.237 486.206562 C 213.983094 486.19875 234.084656 490.530781 234.166688 495.890156 " transform="matrix(1,0,0,-1,-142.987,542.355)"/>
<path style="fill:none;stroke-width:1.2;stroke-linecap:round;stroke-linejoin:round;stroke:rgb(0%,0%,0%);stroke-opacity:1;stroke-miterlimit:10;" d="M 337.951844 498.76125 C 337.951844 498.76125 337.951844 498.76125 338.416688 498.464375 C 338.881531 498.1675 339.807313 497.57375 340.920594 496.98 C 342.037781 496.38625 343.334656 495.7925 344.803406 495.288594 C 346.26825 494.788594 347.901063 494.382344 349.627625 494.007344 C 351.354188 493.63625 353.1745 493.304219 354.994813 493.062031 C 356.811219 492.819844 358.631531 492.671406 360.135438 492.562031 C 361.639344 492.44875 362.826844 492.374531 364.14325 492.358906 C 365.463563 492.339375 366.908875 492.374531 368.58075 492.433125 C 370.252625 492.487812 372.14325 492.562031 373.740906 492.710469 C 375.338563 492.858906 376.635438 493.081562 378.178406 493.378437 C 379.717469 493.675312 381.502625 494.046406 382.987 494.397969 C 384.471375 494.753437 385.658875 495.085469 386.717469 495.440937 C 387.776063 495.7925 388.701844 496.163594 389.779969 496.718281 C 390.858094 497.276875 392.08075 498.019062 392.694031 498.390156 C 393.307313 498.76125 393.307313 498.76125 393.307313 498.76125 " transform="matrix(1,0,0,-1,-142.987,542.355)"/>
<path style="fill:none;stroke-width:1.2;stroke-linecap:round;stroke-linejoin:round;stroke:rgb(0%,0%,0%);stroke-opacity:1;stroke-miterlimit:10;" d="M 342.697938 496.112812 C 342.697938 496.112812 342.697938 496.112812 343.244813 496.276875 C 343.787781 496.440937 344.881531 496.765156 345.963563 497.077656 C 347.0495 497.38625 348.123719 497.683125 349.237 497.944844 C 350.350281 498.206562 351.502625 498.425312 352.748719 498.632344 C 353.990906 498.835469 355.326844 499.022969 356.737 499.171406 C 358.147156 499.319844 359.635438 499.429219 360.916688 499.503437 C 362.194031 499.577656 363.272156 499.616719 364.404969 499.651875 C 365.537781 499.690937 366.725281 499.726094 368.209656 499.671406 C 369.694031 499.616719 371.475281 499.468281 373.315125 499.280781 C 375.151063 499.097187 377.045594 498.874531 378.588563 498.632344 C 380.127625 498.390156 381.315125 498.128437 382.436219 497.855 C 383.561219 497.577656 384.615906 497.284687 385.576844 496.972187 C 386.541688 496.663594 387.408875 496.339375 387.842469 496.179219 C 388.276063 496.015156 388.276063 496.015156 388.276063 496.015156 " transform="matrix(1,0,0,-1,-142.987,542.355)"/>
<path style="fill:none;stroke-width:1.2;stroke-linecap:butt;stroke-linejoin:round;stroke:rgb(0%,0%,0%);stroke-opacity:1;stroke-miterlimit:10;" d="M 342.697938 496.112812 L 342.697938 496.112812 " transform="matrix(1,0,0,-1,-142.987,542.355)"/>
<path style="fill:none;stroke-width:2;stroke-linecap:butt;stroke-linejoin:round;stroke:rgb(0%,0%,0%);stroke-opacity:1;stroke-miterlimit:10;" d="M 349.217469 466.839375 C 346.092469 467.151875 344.584656 469.526875 343.744813 471.73 C 342.908875 473.937031 342.744813 475.972187 342.764344 477.847187 C 342.787781 479.722187 342.994813 481.440937 343.463563 483.538594 C 343.932313 485.632344 344.662781 488.105 345.873719 490.265156 C 347.088563 492.425312 348.791688 494.269062 350.506531 493.753437 " transform="matrix(1,0,0,-1,-142.987,542.355)"/>
<path style="fill:none;stroke-width:2;stroke-linecap:butt;stroke-linejoin:round;stroke:rgb(0%,0%,0%);stroke-opacity:1;stroke-dasharray:4;stroke-miterlimit:10;" d="M 350.276063 493.800312 C 352.076844 493.538594 353.037781 492.468281 353.752625 491.378437 C 354.471375 490.284687 354.944031 489.1675 355.365906 487.882344 C 355.791688 486.593281 356.162781 485.140156 356.365906 483.651875 C 356.569031 482.163594 356.600281 480.640156 356.498719 478.929219 C 356.397156 477.222187 356.162781 475.327656 355.842469 473.737812 C 355.51825 472.144062 355.115906 470.858906 354.639344 469.894062 C 354.166688 468.929219 353.623719 468.288594 353.135438 467.831562 C 352.64325 467.374531 352.20575 467.105 351.604188 466.933125 C 351.002625 466.76125 350.240906 466.687031 349.14325 466.847187 " transform="matrix(1,0,0,-1,-142.987,542.355)"/>
<path style="fill:none;stroke-width:2;stroke-linecap:butt;stroke-linejoin:round;stroke:rgb(0%,0%,0%);stroke-opacity:1;stroke-miterlimit:10;" d="M 183.967469 513.683125 C 179.865906 513.647969 175.908875 514.569844 171.842469 514.319844 C 167.776063 514.07375 163.608094 512.659687 162.651063 509.726094 C 161.697938 506.7925 163.959656 502.339375 166.998719 498.98 C 170.041688 495.620625 173.858094 493.358906 177.139344 488.351094 C 180.416688 483.343281 183.162781 475.589375 186.658875 472.23 C 190.158875 468.874531 194.416688 469.909687 197.322938 472.159687 C 200.225281 474.413594 201.783875 477.874531 200.553406 482.358906 C 199.322938 486.843281 195.303406 492.347187 196.967469 495.9175 C 198.627625 499.487812 205.971375 501.116719 209.397156 506.772969 C 212.822938 512.429219 212.334656 522.108906 209.541688 524.269062 C 206.744813 526.425312 201.647156 521.062031 196.979188 517.88625 C 192.311219 514.710469 188.069031 513.718281 183.967469 513.683125 Z M 183.967469 513.683125 " transform="matrix(1,0,0,-1,-142.987,542.355)"/>
</g>
</svg>
