<?xml version="1.0" encoding="UTF-8"?>
<svg xmlns="http://www.w3.org/2000/svg" xmlns:xlink="http://www.w3.org/1999/xlink" width="516pt" height="157.125pt" viewBox="0 0 516 157.125" version="1.1">
<defs>
<clipPath id="clip1">
  <path d="M 0 153 L 516 153 L 516 157.125 L 0 157.125 Z M 0 153 "/>
</clipPath>
</defs>
<g id="surface1">
<g clip-path="url(#clip1)" clip-rule="nonzero">
<path style="fill:none;stroke-width:4;stroke-linecap:butt;stroke-linejoin:round;stroke:rgb(0%,0%,0%);stroke-opacity:1;stroke-miterlimit:10;" d="M 32 128 L 544 128 " transform="matrix(1,0,0,-1,-30,283.125)"/>
</g>
<path style="fill:none;stroke-width:4;stroke-linecap:round;stroke-linejoin:round;stroke:rgb(0%,0%,0%);stroke-opacity:1;stroke-miterlimit:10;" d="M 224 256 C 224 256 224 256 227.667969 255.167969 C 231.332031 254.332031 238.667969 252.667969 246 251.832031 C 253.332031 251 260.667969 251 268.5 252.167969 C 276.332031 253.332031 284.667969 255.667969 292.832031 257.5 C 301 259.332031 309 260.667969 317.667969 261 C 326.332031 261.332031 335.667969 260.667969 341.667969 255.667969 C 347.667969 250.667969 350.332031 241.332031 350.667969 235.5 C 351 229.667969 349 227.332031 345 226.167969 C 341 225 335 225 330.5 225.167969 C 326 225.332031 323 225.667969 318.832031 225.5 C 314.667969 225.332031 309.332031 224.667969 306.667969 224.332031 C 304 224 304 224 304 224 " transform="matrix(1,0,0,-1,-30,283.125)"/>
<path style="fill-rule:evenodd;fill:rgb(0%,0%,0%);fill-opacity:1;stroke-width:4;stroke-linecap:round;stroke-linejoin:round;stroke:rgb(0%,0%,0%);stroke-opacity:1;stroke-miterlimit:10;" d="M 304 224 L 311.234375 222.554688 L 310.65625 227.179688 Z M 304 224 " transform="matrix(1,0,0,-1,-30,283.125)"/>
<path style="fill:none;stroke-width:2;stroke-linecap:butt;stroke-linejoin:round;stroke:rgb(0%,0%,0%);stroke-opacity:1;stroke-miterlimit:10;" d="M 224 256 L 224 128 " transform="matrix(1,0,0,-1,-30,283.125)"/>
<path style="fill:none;stroke-width:2;stroke-linecap:butt;stroke-linejoin:round;stroke:rgb(0%,0%,0%);stroke-opacity:1;stroke-miterlimit:10;" d="M 304 224 L 304 128 " transform="matrix(1,0,0,-1,-30,283.125)"/>
<path style="fill:none;stroke-width:4;stroke-linecap:butt;stroke-linejoin:round;stroke:rgb(0%,0%,100%);stroke-opacity:1;stroke-miterlimit:10;" d="M 224 144 L 304 144 " transform="matrix(1,0,0,-1,-30,283.125)"/>
<path style="fill-rule:evenodd;fill:rgb(0%,0%,100%);fill-opacity:1;stroke-width:4;stroke-linecap:butt;stroke-linejoin:round;stroke:rgb(0%,0%,100%);stroke-opacity:1;stroke-miterlimit:10;" d="M 304 144 L 297 146.332031 L 297 141.667969 Z M 304 144 " transform="matrix(1,0,0,-1,-30,283.125)"/>
<path style="fill:none;stroke-width:4;stroke-linecap:round;stroke-linejoin:round;stroke:rgb(0%,0%,0%);stroke-opacity:1;stroke-miterlimit:10;" d="M 48 256 C 48 256 48 256 49.859375 257.753906 C 51.71875 259.503906 55.4375 263.007812 59.4375 266.007812 C 63.4375 269.007812 67.71875 271.503906 72.875 273.40625 C 78.03125 275.308594 84.066406 276.617188 90.230469 277.617188 C 96.398438 278.617188 102.699219 279.308594 108.5 279.433594 C 114.300781 279.554688 119.605469 279.109375 124.769531 278.277344 C 129.9375 277.441406 134.96875 276.222656 138.816406 274.609375 C 142.667969 273 145.332031 271 148.667969 267.832031 C 152 264.667969 156 260.332031 158 258.167969 C 160 256 160 256 160 256 " transform="matrix(1,0,0,-1,-30,283.125)"/>
<path style="fill-rule:evenodd;fill:rgb(0%,0%,0%);fill-opacity:1;stroke-width:4;stroke-linecap:round;stroke-linejoin:round;stroke:rgb(0%,0%,0%);stroke-opacity:1;stroke-miterlimit:10;" d="M 160 256 L 156.964844 262.726562 L 153.539062 259.5625 Z M 160 256 " transform="matrix(1,0,0,-1,-30,283.125)"/>
<path style="fill:none;stroke-width:2;stroke-linecap:butt;stroke-linejoin:round;stroke:rgb(0%,0%,0%);stroke-opacity:1;stroke-miterlimit:10;" d="M 48 256 L 48 128 " transform="matrix(1,0,0,-1,-30,283.125)"/>
<path style="fill:none;stroke-width:2;stroke-linecap:butt;stroke-linejoin:round;stroke:rgb(0%,0%,0%);stroke-opacity:1;stroke-miterlimit:10;" d="M 160 256 L 160 128 " transform="matrix(1,0,0,-1,-30,283.125)"/>
<path style="fill:none;stroke-width:4;stroke-linecap:butt;stroke-linejoin:round;stroke:rgb(0%,0%,100%);stroke-opacity:1;stroke-miterlimit:10;" d="M 48 144 L 160 144 " transform="matrix(1,0,0,-1,-30,283.125)"/>
<path style="fill-rule:evenodd;fill:rgb(0%,0%,100%);fill-opacity:1;stroke-width:4;stroke-linecap:butt;stroke-linejoin:round;stroke:rgb(0%,0%,100%);stroke-opacity:1;stroke-miterlimit:10;" d="M 160 144 L 153 146.332031 L 153 141.667969 Z M 160 144 " transform="matrix(1,0,0,-1,-30,283.125)"/>
<path style="fill:none;stroke-width:4;stroke-linecap:butt;stroke-linejoin:round;stroke:rgb(0%,0%,0%);stroke-opacity:1;stroke-miterlimit:10;" d="M 413.332031 253.332031 C 410.667969 261.332031 421.332031 266.667969 437.332031 272 C 453.332031 277.332031 474.667969 282.667969 490.667969 280 C 506.667969 277.332031 517.332031 266.667969 522.667969 253.332031 C 528 240 528 224 514.667969 216 C 501.332031 208 474.667969 208 461.332031 210.667969 C 448 213.332031 448 218.667969 440 226.667969 C 432 234.667969 416 245.332031 413.332031 253.332031 Z M 413.332031 253.332031 " transform="matrix(1,0,0,-1,-30,283.125)"/>
<path style="fill:none;stroke-width:4;stroke-linecap:butt;stroke-linejoin:round;stroke:rgb(0%,0%,0%);stroke-opacity:1;stroke-miterlimit:10;" d="M 425.128906 239.597656 C 425.128906 239.597656 425.128906 239.597656 425.851562 238.980469 C 426.574219 238.367188 428.019531 237.140625 429.496094 235.886719 C 430.976562 234.636719 432.488281 233.367188 433.996094 232.066406 C 435.503906 230.765625 437.003906 229.4375 438.445312 228.058594 C 439.890625 226.675781 441.277344 225.234375 442.726562 223.589844 C 444.179688 221.945312 445.695312 220.09375 447.261719 218.457031 C 448.828125 216.816406 450.441406 215.394531 452.285156 214.25 C 454.132812 213.105469 456.214844 212.242188 458.410156 211.585938 C 460.609375 210.925781 462.925781 210.46875 464.085938 210.242188 C 465.242188 210.015625 465.242188 210.015625 465.242188 210.015625 " transform="matrix(1,0,0,-1,-30,283.125)"/>
<path style="fill-rule:evenodd;fill:rgb(0%,0%,0%);fill-opacity:1;stroke-width:4;stroke-linecap:butt;stroke-linejoin:round;stroke:rgb(0%,0%,0%);stroke-opacity:1;stroke-miterlimit:10;" d="M 465.242188 210.015625 L 458.824219 213.652344 L 457.925781 209.078125 Z M 465.242188 210.015625 " transform="matrix(1,0,0,-1,-30,283.125)"/>
<path style="fill:none;stroke-width:2;stroke-linecap:butt;stroke-linejoin:round;stroke:rgb(0%,0%,0%);stroke-opacity:1;stroke-miterlimit:10;" d="M 412.941406 255.234375 L 412.941406 128 " transform="matrix(1,0,0,-1,-30,283.125)"/>
<path style="fill:none;stroke-width:2;stroke-linecap:butt;stroke-linejoin:round;stroke:rgb(0%,0%,0%);stroke-opacity:1;stroke-miterlimit:10;" d="M 525.992188 237.914062 L 525.992188 128 " transform="matrix(1,0,0,-1,-30,283.125)"/>
<path style="fill:none;stroke-width:2;stroke-linecap:butt;stroke-linejoin:round;stroke:rgb(0%,0%,0%);stroke-opacity:1;stroke-miterlimit:10;" d="M 465.242188 210.015625 L 465.242188 128 " transform="matrix(1,0,0,-1,-30,283.125)"/>
<path style="fill:none;stroke-width:2;stroke-linecap:butt;stroke-linejoin:round;stroke:rgb(0%,0%,0%);stroke-opacity:1;stroke-miterlimit:10;" d="M 350.691406 235 L 350.691406 128 " transform="matrix(1,0,0,-1,-30,283.125)"/>
</g>
</svg>
