<?xml version="1.0" encoding="UTF-8" standalone="no"?>
<svg
   xmlns:dc="http://purl.org/dc/elements/1.1/"
   xmlns:cc="http://creativecommons.org/ns#"
   xmlns:rdf="http://www.w3.org/1999/02/22-rdf-syntax-ns#"
   xmlns:svg="http://www.w3.org/2000/svg"
   xmlns="http://www.w3.org/2000/svg"
   xmlns:sodipodi="http://sodipodi.sourceforge.net/DTD/sodipodi-0.dtd"
   xmlns:inkscape="http://www.inkscape.org/namespaces/inkscape"
   width="64.4pt"
   height="64.4pt"
   viewBox="0 0 64.4 64.4"
   version="1.1"
   id="svg2"
   inkscape:version="0.91 r13725"
   sodipodi:docname="quotation.svg">
  <metadata
     id="metadata24">
    <rdf:RDF>
      <cc:Work
         rdf:about="">
        <dc:format>image/svg+xml</dc:format>
        <dc:type
           rdf:resource="http://purl.org/dc/dcmitype/StillImage" />
        <dc:title></dc:title>
      </cc:Work>
    </rdf:RDF>
  </metadata>
  <sodipodi:namedview
     pagecolor="#ffffff"
     bordercolor="#666666"
     borderopacity="1"
     objecttolerance="10"
     gridtolerance="10"
     guidetolerance="10"
     inkscape:pageopacity="0"
     inkscape:pageshadow="2"
     inkscape:window-width="640"
     inkscape:window-height="480"
     id="namedview22"
     showgrid="false"
     inkscape:zoom="2.9316769"
     inkscape:cx="40.250001"
     inkscape:cy="40.250001"
     inkscape:window-x="0"
     inkscape:window-y="0"
     inkscape:window-maximized="0"
     inkscape:current-layer="svg2" />
  <defs
     id="defs4">
    <clipPath
       id="clip1">
      <path
         d="M 0 0 L 64.398438 0 L 64.398438 64.398438 L 0 64.398438 Z M 0 0 "
         id="path7" />
    </clipPath>
  </defs>
  <g
     id="surface1"
     style="opacity:0.5">
    <g
       clip-path="url(#clip1)"
       clip-rule="nonzero"
       id="g10"
       style="">
      <path
         style="stroke:none;fill-rule:evenodd;fill:rgb(100%, 100%, 100%);fill-opacity:1"
         d="M 0.199219 0.199219 L 0.199219 64.199219 L 64.199219 64.199219 L 64.199219 0.199219 Z M 0.199219 0.199219 "
         id="path12" />
    </g>
    <path
       style="fill-rule:evenodd;fill:rgb(50%, 0%, 0%);fill-opacity:1;stroke-width:2;stroke-linecap:butt;stroke-linejoin:round;stroke:rgb(50%, 0%, 0%);stroke-opacity:1;stroke-miterlimit:10"
       d="M 219.897656 689.492969 C 219.897656 693.344531 216.776563 696.465625 212.925 696.465625 C 209.073438 696.465625 205.952344 693.344531 205.952344 689.492969 C 205.952344 685.641406 209.073438 682.520313 212.925 682.520313 C 216.776563 682.520313 219.897656 685.641406 219.897656 689.492969 "
       transform="matrix(1,0,0,-1,-191.8,704.2)"
       id="path14" />
    <path
       style="fill:none;stroke-width:4;stroke-linecap:round;stroke-linejoin:round;stroke:rgb(50%, 0%, 0%);stroke-opacity:1;stroke-miterlimit:10"
       d="M 217.589063 693.203906 C 225.413281 683.864063 224.186719 669.95 214.846875 662.125781 C 213.95625 661.375781 213.003125 660.7 212.003125 660.102344 "
       transform="matrix(1,0,0,-1,-191.8,704.2)"
       id="path16" />
    <path
       style="fill-rule:evenodd;fill:rgb(50%, 0%, 0%);fill-opacity:1;stroke-width:2;stroke-linecap:butt;stroke-linejoin:round;stroke:rgb(50%, 0%, 0%);stroke-opacity:1;stroke-miterlimit:10"
       d="M 243.471875 689.492969 C 243.471875 693.344531 240.350781 696.465625 236.499219 696.465625 C 232.647656 696.465625 229.526563 693.344531 229.526563 689.492969 C 229.526563 685.641406 232.647656 682.520313 236.499219 682.520313 C 240.350781 682.520313 243.471875 685.641406 243.471875 689.492969 "
       transform="matrix(1,0,0,-1,-191.8,704.2)"
       id="path18" />
    <path
       style="fill:none;stroke-width:4;stroke-linecap:round;stroke-linejoin:round;stroke:rgb(50%, 0%, 0%);stroke-opacity:1;stroke-miterlimit:10"
       d="M 241.163281 693.203906 C 248.9875 683.864063 247.760938 669.95 238.421094 662.125781 C 237.530469 661.375781 236.577344 660.7 235.577344 660.102344 "
       transform="matrix(1,0,0,-1,-191.8,704.2)"
       id="path20" />
  </g>
</svg>
