<?xml version="1.0" encoding="UTF-8" standalone="no"?>
<svg
   xmlns:dc="http://purl.org/dc/elements/1.1/"
   xmlns:cc="http://creativecommons.org/ns#"
   xmlns:rdf="http://www.w3.org/1999/02/22-rdf-syntax-ns#"
   xmlns:svg="http://www.w3.org/2000/svg"
   xmlns="http://www.w3.org/2000/svg"
   xmlns:sodipodi="http://sodipodi.sourceforge.net/DTD/sodipodi-0.dtd"
   xmlns:inkscape="http://www.inkscape.org/namespaces/inkscape"
   width="64.4pt"
   height="64.4pt"
   viewBox="0 0 64.4 64.4"
   version="1.1"
   id="svg2"
   inkscape:version="0.91 r13725"
   sodipodi:docname="unfinished-l.svg">
  <metadata
     id="metadata24">
    <rdf:RDF>
      <cc:Work
         rdf:about="">
        <dc:format>image/svg+xml</dc:format>
        <dc:type
           rdf:resource="http://purl.org/dc/dcmitype/StillImage" />
      </cc:Work>
    </rdf:RDF>
  </metadata>
  <sodipodi:namedview
     pagecolor="#ffffff"
     bordercolor="#666666"
     borderopacity="1"
     objecttolerance="10"
     gridtolerance="10"
     guidetolerance="10"
     inkscape:pageopacity="0"
     inkscape:pageshadow="2"
     inkscape:window-width="640"
     inkscape:window-height="480"
     id="namedview22"
     showgrid="false"
     inkscape:zoom="2.9316769"
     inkscape:cx="40.250001"
     inkscape:cy="40.250001"
     inkscape:window-x="0"
     inkscape:window-y="0"
     inkscape:window-maximized="0"
     inkscape:current-layer="svg2" />
  <defs
     id="defs4">
    <clipPath
       id="clip1">
      <path
         d="M 0 0 L 64.398438 0 L 64.398438 64.398438 L 0 64.398438 Z M 0 0 "
         id="path7" />
    </clipPath>
  </defs>
  <g
     id="surface1"
     style="opacity:0.5">
    <g
       clip-path="url(#clip1)"
       clip-rule="nonzero"
       id="g10"
       style="">
      <path
         style="stroke:none;fill-rule:evenodd;fill:rgb(100%, 100%, 100%);fill-opacity:1"
         d="M 0.199219 0.199219 L 0.199219 64.199219 L 64.199219 64.199219 L 64.199219 0.199219 Z M 0.199219 0.199219 "
         id="path12" />
    </g>
    <path
       style="fill:none;stroke-width:2;stroke-linecap:butt;stroke-linejoin:round;stroke:rgb(0%, 0%, 0%);stroke-opacity:1;stroke-miterlimit:10"
       d="M 159.999219 757.332813 L 159.999219 714.66875 "
       transform="matrix(1,0,0,-1,-127.8,768.2)"
       id="path14" />
    <path
       style="fill:none;stroke-width:2;stroke-linecap:butt;stroke-linejoin:round;stroke:rgb(0%, 0%, 0%);stroke-opacity:1;stroke-miterlimit:10"
       d="M 138.667188 736.000781 L 181.33125 736.000781 "
       transform="matrix(1,0,0,-1,-127.8,768.2)"
       id="path16" />
    <path
       style="fill:none;stroke-width:4;stroke-linecap:butt;stroke-linejoin:round;stroke:rgb(0%, 0%, 0%);stroke-opacity:1;stroke-miterlimit:10"
       d="M 175.085156 736.000781 C 175.085156 744.332813 168.33125 751.086719 159.999219 751.086719 C 151.667188 751.086719 144.913281 744.332813 144.913281 736.000781 C 144.913281 727.66875 151.667188 720.914844 159.999219 720.914844 C 168.33125 720.914844 175.085156 727.66875 175.085156 736.000781 "
       transform="matrix(1,0,0,-1,-127.8,768.2)"
       id="path18" />
    <path
       style="stroke:none;fill-rule:evenodd;fill:rgb(0%, 0%, 0%);fill-opacity:1"
       d="M 38.199219 32.199219 C 38.199219 28.886719 35.515625 26.199219 32.199219 26.199219 C 28.886719 26.199219 26.199219 28.886719 26.199219 32.199219 C 26.199219 35.515625 28.886719 38.199219 32.199219 38.199219 C 35.515625 38.199219 38.199219 35.515625 38.199219 32.199219 "
       id="path20" />
  </g>
</svg>
