<?xml version="1.0" encoding="UTF-8" standalone="no"?>
<svg
   xmlns:dc="http://purl.org/dc/elements/1.1/"
   xmlns:cc="http://creativecommons.org/ns#"
   xmlns:rdf="http://www.w3.org/1999/02/22-rdf-syntax-ns#"
   xmlns:svg="http://www.w3.org/2000/svg"
   xmlns="http://www.w3.org/2000/svg"
   xmlns:sodipodi="http://sodipodi.sourceforge.net/DTD/sodipodi-0.dtd"
   xmlns:inkscape="http://www.inkscape.org/namespaces/inkscape"
   width="96.4pt"
   height="96.4pt"
   viewBox="0 0 96.4 96.4"
   version="1.1"
   id="svg2"
   inkscape:version="0.91 r13725"
   sodipodi:docname="unfinished-l.svg">
  <metadata
     id="metadata24">
    <rdf:RDF>
      <cc:Work
         rdf:about="">
        <dc:format>image/svg+xml</dc:format>
        <dc:type
           rdf:resource="http://purl.org/dc/dcmitype/StillImage" />
      </cc:Work>
    </rdf:RDF>
  </metadata>
  <sodipodi:namedview
     pagecolor="#ffffff"
     bordercolor="#666666"
     borderopacity="1"
     objecttolerance="10"
     gridtolerance="10"
     guidetolerance="10"
     inkscape:pageopacity="0"
     inkscape:pageshadow="2"
     inkscape:window-width="1280"
     inkscape:window-height="737"
     id="namedview22"
     showgrid="false"
     inkscape:zoom="1.9585062"
     inkscape:cx="60.250001"
     inkscape:cy="60.250001"
     inkscape:window-x="-8"
     inkscape:window-y="-8"
     inkscape:window-maximized="1"
     inkscape:current-layer="svg2" />
  <defs
     id="defs4">
    <clipPath
       id="clip1">
      <path
         d="M 0 0 L 96.398438 0 L 96.398438 96.398438 L 0 96.398438 Z M 0 0 "
         id="path7" />
    </clipPath>
  </defs>
  <g
     id="surface1"
     style="opacity:0.5">
    <g
       clip-path="url(#clip1)"
       clip-rule="nonzero"
       id="g10"
       style="">
      <path
         style="stroke:none;fill-rule:evenodd;fill:rgb(100%, 100%, 100%);fill-opacity:1"
         d="M 0.199219 0.199219 L 0.199219 96.199219 L 96.199219 96.199219 L 96.199219 0.199219 Z M 0.199219 0.199219 "
         id="path12" />
    </g>
    <path
       style="fill:none;stroke-width:2;stroke-linecap:butt;stroke-linejoin:round;stroke:rgb(0%, 0%, 0%);stroke-opacity:1;stroke-miterlimit:10"
       d="M 175.999219 752.000781 L 175.999219 688.000781 "
       transform="matrix(1,0,0,-1,-127.8,768.2)"
       id="path14" />
    <path
       style="fill:none;stroke-width:2;stroke-linecap:butt;stroke-linejoin:round;stroke:rgb(0%, 0%, 0%);stroke-opacity:1;stroke-miterlimit:10"
       d="M 143.999219 720.000781 L 207.999219 720.000781 "
       transform="matrix(1,0,0,-1,-127.8,768.2)"
       id="path16" />
    <path
       style="fill:none;stroke-width:4;stroke-linecap:butt;stroke-linejoin:round;stroke:rgb(0%, 0%, 0%);stroke-opacity:1;stroke-miterlimit:10"
       d="M 198.628125 720.000781 C 198.628125 732.496875 188.495313 742.625781 175.999219 742.625781 C 163.503125 742.625781 153.374219 732.496875 153.374219 720.000781 C 153.374219 707.504688 163.503125 697.371875 175.999219 697.371875 C 188.495313 697.371875 198.628125 707.504688 198.628125 720.000781 "
       transform="matrix(1,0,0,-1,-127.8,768.2)"
       id="path18" />
    <path
       style="stroke:none;fill-rule:evenodd;fill:rgb(0%, 0%, 0%);fill-opacity:1"
       d="M 54.199219 48.199219 C 54.199219 44.886719 51.515625 42.199219 48.199219 42.199219 C 44.886719 42.199219 42.199219 44.886719 42.199219 48.199219 C 42.199219 51.515625 44.886719 54.199219 48.199219 54.199219 C 51.515625 54.199219 54.199219 51.515625 54.199219 48.199219 "
       id="path20" />
  </g>
</svg>
