<?xml version="1.0" encoding="UTF-8"?>
<svg xmlns="http://www.w3.org/2000/svg" xmlns:xlink="http://www.w3.org/1999/xlink" width="97.4pt" height="97.4pt" viewBox="0 0 97.4 97.4" version="1.1">
<g id="surface1">
<path style=" stroke:none;fill-rule:evenodd;fill:rgb(0%,25.099182%,50.19989%);fill-opacity:1;" d="M 96.699219 48.699219 C 96.699219 22.191406 75.210938 0.699219 48.699219 0.699219 C 22.191406 0.699219 0.699219 22.191406 0.699219 48.699219 C 0.699219 75.210938 22.191406 96.699219 48.699219 96.699219 C 75.210938 96.699219 96.699219 75.210938 96.699219 48.699219 "/>
<path style="fill-rule:evenodd;fill:rgb(100%,100%,100%);fill-opacity:1;stroke-width:2;stroke-linecap:butt;stroke-linejoin:round;stroke:rgb(0%,25.099182%,50.19989%);stroke-opacity:1;stroke-miterlimit:10;" d="M 119.776562 621.008594 C 115.889844 621.008594 108.1125 621.008594 104.225781 621.008594 C 100.335156 621.008594 100.335156 621.008594 100.335156 624.895313 C 100.335156 628.785938 100.335156 636.559375 100.335156 640.446094 C 100.335156 644.336719 100.335156 644.336719 96.448437 644.336719 C 92.561719 644.336719 84.784375 644.336719 80.897656 644.336719 C 77.007031 644.336719 77.007031 644.336719 77.007031 648.223438 C 77.007031 652.110156 77.007031 659.8875 77.007031 663.774219 C 77.007031 667.664844 77.007031 667.664844 80.897656 667.664844 C 84.784375 667.664844 92.561719 667.664844 96.448437 667.664844 C 100.335156 667.664844 100.335156 667.664844 100.335156 671.551563 C 100.335156 675.438281 100.335156 683.215625 100.335156 687.102344 C 100.335156 690.992969 100.335156 690.992969 104.225781 690.992969 C 108.1125 690.992969 115.889844 690.992969 119.776562 690.992969 C 123.663281 690.992969 123.663281 690.992969 123.663281 687.102344 C 123.663281 683.215625 123.663281 675.438281 123.663281 671.551563 C 123.663281 667.664844 123.663281 667.664844 127.553906 667.664844 C 131.440625 667.664844 139.214063 667.664844 143.104688 667.664844 C 146.991406 667.664844 146.991406 667.664844 146.991406 663.774219 C 146.991406 659.8875 146.991406 652.110156 146.991406 648.223438 C 146.991406 644.336719 146.991406 644.336719 143.104688 644.336719 C 139.214063 644.336719 131.440625 644.336719 127.553906 644.336719 C 123.663281 644.336719 123.663281 644.336719 123.663281 640.446094 C 123.663281 636.559375 123.663281 628.785938 123.663281 624.895313 C 123.663281 621.008594 123.663281 621.008594 119.776562 621.008594 Z M 119.776562 621.008594 " transform="matrix(1,0,0,-1,-63.3,704.7)"/>
</g>
</svg>
