<?xml version="1.0" encoding="UTF-8"?>
<svg xmlns="http://www.w3.org/2000/svg" xmlns:xlink="http://www.w3.org/1999/xlink" width="288.4pt" height="288.4pt" viewBox="0 0 288.4 288.4" version="1.1">
<defs>
<clipPath id="clip1">
  <path d="M 0 0 L 288.398438 0 L 288.398438 288.398438 L 0 288.398438 Z M 0 0 "/>
</clipPath>
</defs>
<g id="surface1">
<g clip-path="url(#clip1)" clip-rule="nonzero">
<path style=" stroke:none;fill-rule:evenodd;fill:rgb(100%,100%,100%);fill-opacity:1;" d="M 0.199219 0.199219 L 0.199219 288.199219 L 288.199219 288.199219 L 288.199219 0.199219 Z M 0.199219 0.199219 "/>
</g>
<path style="fill:none;stroke-width:2;stroke-linecap:round;stroke-linejoin:round;stroke:rgb(0%,100%,0%);stroke-opacity:1;stroke-dasharray:4;stroke-miterlimit:10;" d="M 159.999219 640.000781 L 159.999219 721.821094 " transform="matrix(1,0,0,-1,-111.8,784.2)"/>
<path style="fill:none;stroke-width:2;stroke-linecap:round;stroke-linejoin:round;stroke:rgb(0%,100%,0%);stroke-opacity:1;stroke-dasharray:4;stroke-miterlimit:10;" d="M 223.999219 640.000781 L 223.999219 568.000781 " transform="matrix(1,0,0,-1,-111.8,784.2)"/>
<path style="fill:none;stroke-width:2;stroke-linecap:round;stroke-linejoin:round;stroke:rgb(0%,100%,0%);stroke-opacity:1;stroke-dasharray:4;stroke-miterlimit:10;" d="M 271.999219 640.000781 L 271.999219 698.66875 " transform="matrix(1,0,0,-1,-111.8,784.2)"/>
<path style="fill:none;stroke-width:2;stroke-linecap:round;stroke-linejoin:round;stroke:rgb(0%,100%,0%);stroke-opacity:1;stroke-dasharray:4;stroke-miterlimit:10;" d="M 319.999219 640.000781 L 319.999219 618.66875 " transform="matrix(1,0,0,-1,-111.8,784.2)"/>
<path style="fill:none;stroke-width:2;stroke-linecap:round;stroke-linejoin:round;stroke:rgb(0%,100%,0%);stroke-opacity:1;stroke-dasharray:4;stroke-miterlimit:10;" d="M 367.999219 640.000781 L 367.999219 752.000781 " transform="matrix(1,0,0,-1,-111.8,784.2)"/>
<path style="fill:none;stroke-width:2;stroke-linecap:round;stroke-linejoin:round;stroke:rgb(100%,0%,50.19989%);stroke-opacity:1;stroke-dasharray:4;stroke-miterlimit:10;" d="M 367.999219 752.000781 L 255.999219 752.000781 " transform="matrix(1,0,0,-1,-111.8,784.2)"/>
<path style="fill:none;stroke-width:2;stroke-linecap:round;stroke-linejoin:round;stroke:rgb(100%,0%,50.19989%);stroke-opacity:1;stroke-dasharray:4;stroke-miterlimit:10;" d="M 159.999219 721.821094 L 255.999219 721.821094 " transform="matrix(1,0,0,-1,-111.8,784.2)"/>
<path style="fill:none;stroke-width:2;stroke-linecap:round;stroke-linejoin:round;stroke:rgb(100%,0%,50.19989%);stroke-opacity:1;stroke-dasharray:4;stroke-miterlimit:10;" d="M 271.999219 698.66875 L 255.999219 698.66875 " transform="matrix(1,0,0,-1,-111.8,784.2)"/>
<path style="fill:none;stroke-width:2;stroke-linecap:round;stroke-linejoin:round;stroke:rgb(100%,0%,50.19989%);stroke-opacity:1;stroke-dasharray:4;stroke-miterlimit:10;" d="M 223.999219 568.000781 L 255.999219 568.000781 " transform="matrix(1,0,0,-1,-111.8,784.2)"/>
<path style="fill:none;stroke-width:2;stroke-linecap:round;stroke-linejoin:round;stroke:rgb(100%,0%,50.19989%);stroke-opacity:1;stroke-dasharray:4;stroke-miterlimit:10;" d="M 319.999219 618.66875 L 255.999219 618.66875 " transform="matrix(1,0,0,-1,-111.8,784.2)"/>
<path style="fill:none;stroke-width:4;stroke-linecap:butt;stroke-linejoin:round;stroke:rgb(0%,0%,0%);stroke-opacity:1;stroke-miterlimit:10;" d="M 255.999219 768.000781 L 255.999219 512.000781 " transform="matrix(1,0,0,-1,-111.8,784.2)"/>
<path style="fill:none;stroke-width:4;stroke-linecap:butt;stroke-linejoin:round;stroke:rgb(0%,0%,0%);stroke-opacity:1;stroke-miterlimit:10;" d="M 127.999219 640.000781 L 383.999219 640.000781 " transform="matrix(1,0,0,-1,-111.8,784.2)"/>
<path style="fill:none;stroke-width:4;stroke-linecap:round;stroke-linejoin:round;stroke:rgb(0%,0%,50.19989%);stroke-opacity:1;stroke-miterlimit:10;" d="M 143.999219 720.000781 C 159.999219 736.000781 167.999219 712.000781 174.667188 684.000781 C 181.33125 656.000781 186.667188 624.000781 191.999219 602.66875 C 197.33125 581.332813 202.667188 570.66875 207.999219 565.332813 C 213.33125 560.000781 218.667188 560.000781 223.999219 568.000781 C 229.33125 576.000781 234.667188 592.000781 239.999219 613.332813 C 245.33125 634.66875 250.667188 661.332813 255.999219 677.332813 C 261.33125 693.332813 266.667188 698.66875 271.999219 698.66875 C 277.33125 698.66875 282.667188 693.332813 287.999219 685.332813 C 293.33125 677.332813 298.667188 666.66875 303.999219 653.332813 C 309.33125 640.000781 314.667188 624.000781 319.999219 618.66875 C 325.33125 613.332813 330.667188 618.66875 337.33125 633.332813 C 343.999219 648.000781 351.999219 672.000781 367.999219 752.000781 " transform="matrix(1,0,0,-1,-111.8,784.2)"/>
</g>
</svg>
