<?xml version="1.0" encoding="UTF-8"?>
<svg xmlns="http://www.w3.org/2000/svg" xmlns:xlink="http://www.w3.org/1999/xlink" width="97.4pt" height="97.4pt" viewBox="0 0 97.4 97.4" version="1.1">
<g id="surface1">
<path style=" stroke:none;fill-rule:evenodd;fill:rgb(0%,100%,0%);fill-opacity:1;" d="M 96.699219 48.699219 C 96.699219 22.191406 75.210938 0.699219 48.699219 0.699219 C 22.191406 0.699219 0.699219 22.191406 0.699219 48.699219 C 0.699219 75.210938 22.191406 96.699219 48.699219 96.699219 C 75.210938 96.699219 96.699219 75.210938 96.699219 48.699219 "/>
<path style="fill:none;stroke-width:4;stroke-linecap:butt;stroke-linejoin:round;stroke:rgb(100%,100%,100%);stroke-opacity:1;stroke-miterlimit:10;" d="M 90.401562 748.801563 L 90.401562 691.2 L 133.600781 691.2 L 133.600781 748.801563 Z M 90.401562 748.801563 " transform="matrix(1,0,0,-1,-63.3,768.7)"/>
<path style="fill:none;stroke-width:2;stroke-linecap:round;stroke-linejoin:round;stroke:rgb(100%,100%,100%);stroke-opacity:1;stroke-miterlimit:10;" d="M 88.342969 746.395313 C 84.694531 745.336719 86.428906 742.852344 88.995312 741.133594 C 91.561719 739.41875 94.960156 738.473438 95.757031 740.203906 " transform="matrix(1,0,0,-1,-63.3,768.7)"/>
<path style="fill:none;stroke-width:2;stroke-linecap:round;stroke-linejoin:round;stroke:rgb(100%,100%,100%);stroke-opacity:1;stroke-miterlimit:10;" d="M 88.342969 738.395313 C 84.694531 737.336719 86.428906 734.852344 88.995312 733.133594 C 91.561719 731.41875 94.960156 730.473438 95.757031 732.203906 " transform="matrix(1,0,0,-1,-63.3,768.7)"/>
<path style="fill:none;stroke-width:2;stroke-linecap:round;stroke-linejoin:round;stroke:rgb(100%,100%,100%);stroke-opacity:1;stroke-miterlimit:10;" d="M 88.342969 730.395313 C 84.694531 729.336719 86.428906 726.852344 88.995312 725.133594 C 91.561719 723.41875 94.960156 722.473438 95.757031 724.203906 " transform="matrix(1,0,0,-1,-63.3,768.7)"/>
<path style="fill:none;stroke-width:2;stroke-linecap:round;stroke-linejoin:round;stroke:rgb(100%,100%,100%);stroke-opacity:1;stroke-miterlimit:10;" d="M 88.342969 722.395313 C 84.694531 721.336719 86.428906 718.852344 88.995312 717.133594 C 91.561719 715.41875 94.960156 714.473438 95.757031 716.203906 " transform="matrix(1,0,0,-1,-63.3,768.7)"/>
<path style="fill:none;stroke-width:2;stroke-linecap:round;stroke-linejoin:round;stroke:rgb(100%,100%,100%);stroke-opacity:1;stroke-miterlimit:10;" d="M 88.342969 714.395313 C 84.694531 713.336719 86.428906 710.852344 88.995312 709.133594 C 91.561719 707.41875 94.960156 706.473438 95.757031 708.203906 " transform="matrix(1,0,0,-1,-63.3,768.7)"/>
<path style="fill:none;stroke-width:2;stroke-linecap:round;stroke-linejoin:round;stroke:rgb(100%,100%,100%);stroke-opacity:1;stroke-miterlimit:10;" d="M 88.342969 706.395313 C 84.694531 705.336719 86.428906 702.852344 88.995312 701.133594 C 91.561719 699.41875 94.960156 698.473438 95.757031 700.203906 " transform="matrix(1,0,0,-1,-63.3,768.7)"/>
<path style="fill:none;stroke-width:2;stroke-linecap:round;stroke-linejoin:round;stroke:rgb(100%,100%,100%);stroke-opacity:1;stroke-miterlimit:10;" d="M 88.342969 698.395313 C 84.694531 697.336719 86.428906 694.852344 88.995312 693.133594 C 91.561719 691.41875 94.960156 690.473438 95.757031 692.203906 " transform="matrix(1,0,0,-1,-63.3,768.7)"/>
<path style="fill:none;stroke-width:2;stroke-linecap:round;stroke-linejoin:round;stroke:rgb(100%,100%,100%);stroke-opacity:1;stroke-miterlimit:10;" d="M 99.999219 740.000781 L 127.999219 740.000781 " transform="matrix(1,0,0,-1,-63.3,768.7)"/>
<path style="fill:none;stroke-width:2;stroke-linecap:round;stroke-linejoin:round;stroke:rgb(100%,100%,100%);stroke-opacity:1;stroke-miterlimit:10;" d="M 99.999219 732.000781 L 111.999219 732.000781 " transform="matrix(1,0,0,-1,-63.3,768.7)"/>
</g>
</svg>
