<?xml version="1.0" encoding="UTF-8"?>
<svg xmlns="http://www.w3.org/2000/svg" xmlns:xlink="http://www.w3.org/1999/xlink" width="49.396pt" height="49.397pt" viewBox="0 0 49.396 49.397" version="1.1">
<g id="surface1">
<path style=" stroke:none;fill-rule:evenodd;fill:rgb(100%,0%,0%);fill-opacity:1;" d="M 48.695312 24.699219 C 48.695312 11.445312 37.949219 0.699219 24.699219 0.699219 C 11.445312 0.699219 0.699219 11.445312 0.699219 24.699219 C 0.699219 37.953125 11.445312 48.695312 24.699219 48.695312 C 37.949219 48.695312 48.695312 37.953125 48.695312 24.699219 "/>
<path style=" stroke:none;fill-rule:evenodd;fill:rgb(100%,100%,100%);fill-opacity:1;" d="M 17.8125 16.75 C 17.8125 20.722656 17.8125 28.671875 17.8125 32.648438 C 17.8125 36.621094 17.8125 36.621094 21.253906 34.636719 C 24.699219 32.648438 31.582031 28.671875 35.023438 26.6875 C 38.464844 24.699219 38.464844 24.699219 35.023438 22.710938 C 31.582031 20.722656 24.699219 16.75 21.253906 14.761719 C 17.8125 12.773438 17.8125 12.773438 17.8125 16.75 Z M 17.8125 16.75 "/>
</g>
</svg>
